SplineFontDB: 3.0
FontName: BoonTook-Oblique
FullName: BoonTook Oblique
FamilyName: BoonTook
Weight: Ultra
Copyright: Copyright 2014-2015, Sungsit Sawaiwan (https://fontuni.com | uni@fontuni.com). This Font Software is licensed under the SIL Open Font License, Version 1.1 (http://scripts.sil.org/OFL).
Version: 2.0-beta1
ItalicAngle: -9
UnderlinePosition: -60
UnderlineWidth: 30
Ascent: 960
Descent: 240
InvalidEm: 0
woffMajor: 2
woffMinor: 0
LayerCount: 4
Layer: 0 0 "Back" 1
Layer: 1 0 "Fore" 0
Layer: 2 0 "Normal" 0
Layer: 3 0 "Mon" 0
FSType: 8
OS2Version: 0
OS2_WeightWidthSlopeOnly: 0
OS2_UseTypoMetrics: 0
CreationTime: 1394017292
ModificationTime: 1445933999
PfmFamily: 33
TTFWeight: 950
TTFWidth: 5
LineGap: 0
VLineGap: 0
Panose: 2 1 1 5 5 0 0 0 0 0
OS2TypoAscent: 1240
OS2TypoAOffset: 0
OS2TypoDescent: -480
OS2TypoDOffset: 0
OS2TypoLinegap: 0
OS2WinAscent: 1240
OS2WinAOffset: 0
OS2WinDescent: 480
OS2WinDOffset: 0
HheadAscent: 1240
HheadAOffset: 0
HheadDescent: -480
HheadDOffset: 0
OS2CapHeight: 840
OS2FamilyClass: 2048
OS2Vendor: 'FUni'
MarkAttachClasses: 1
DEI: 91125
LangName: 1054 "" "" "" "" "" "" "" "" "" "" "" "" "" "" "" "" "" "" "" "+Dh4ONQ5IDhsOSw4zDg4OOQ4ZDjkOSw4ZDkkOMw5ADhsOSA4yDh0OOA5IDhkOKw4NDjkOSA4BDkkOGQ4bDjUOSAAA +DhAOMg4VDjgOTQAA +Dg0OMg4VDjQOTQAA +DhsOOA5NDhsONA5N"
LangName: 1033 "" "" "" "" "" "" "" "" "FontUni" "Sungsit Sawaiwan" "" "https://fontuni.com" "https://sungsit.com" "This Font Software is licensed under the SIL Open Font License, Version 1.1." "http://scripts.sil.org/OFL" "" "BoonTook" "" "BoonTook"
GaspTable: 3 12 14 24 7 65535 15 1
Encoding: UnicodeFull
Compacted: 1
UnicodeInterp: none
NameList: Adobe Glyph List
DisplaySize: -48
DisplayLayer: 3
AntiAlias: 1
FitToEm: 0
WinInfo: 0 18 8
BeginPrivate: 0
EndPrivate
TeXData: 1 0 0 346030 173015 115343 0 1048576 115343 783286 444596 497025 792723 393216 433062 380633 303038 157286 324010 404750 52429 2506097 1059062 262144
BeginChars: 1114140 835

StartChar: uni0E2D
Encoding: 3629 3629 0
Width: 730
VWidth: 0
Flags: HMW
LayerCount: 4
Layer: 2
SplineSet
11 260 m 0
 18 305 46 340 84 340 c 2
 314 340 l 1
 296 230 l 1
 251 230 l 1
 250 225 250 220 250 216 c 0
 250 178 279 160 315 160 c 0
 373 160 404 210 418 300 c 0
 420 312 421 323 421 333 c 0
 421 409 369 440 290 440 c 0
 218 440 150 416 103 400 c 1
 67 550 l 1
 67 550 196 620 398 620 c 0
 588 620 693 523 693 364 c 0
 693 344 692 322 688 300 c 0
 660 123 501 -20 287 -20 c 0
 123 -20 7 53 7 206 c 0
 7 223 8 241 11 260 c 0
EndSplineSet
Layer: 3
SplineSet
11 260 m 0
 18 305 46 340 84 340 c 2
 284 340 l 2
 300 340 312 326 309 310 c 2
 301 260 l 2
 298 244 282 230 266 230 c 2
 251 230 l 1
 250 225 250 220 250 216 c 0
 250 178 279 160 315 160 c 0
 373 160 404 210 418 300 c 0
 420 312 421 323 421 333 c 0
 421 409 369 440 290 440 c 0
 230 440 190 427 167 420 c 0
 153 416 128 405 115 405 c 0
 100 405 98 423 95 435 c 2
 76 510 l 1
 76 510 73 522 75 535 c 0
 77 550 83 558 99 565 c 0
 112 570 222 620 398 620 c 0
 588 620 693 523 693 364 c 0
 693 344 692 322 688 300 c 0
 660 123 501 -20 287 -20 c 0
 123 -20 7 53 7 206 c 0
 7 223 8 241 11 260 c 0
EndSplineSet
Colour: ffff00
EndChar

StartChar: uni0E01
Encoding: 3585 3585 1
Width: 770
VWidth: 0
Flags: HMW
LayerCount: 4
Layer: 2
SplineSet
42 520 m 1
 42 520 216 620 418 620 c 0
 613 620 732 550 732 412 c 0
 732 399 731 385 729 370 c 2
 670 0 l 1
 400 0 l 1
 459 370 l 2
 460 377 461 383 461 389 c 0
 461 424 440 440 390 440 c 0
 377 440 355 439 331 436 c 1
 346 422 358 401 358 374 c 0
 358 369 358 365 357 360 c 2
 300 0 l 1
 30 0 l 1
 89 370 l 2
 92 389 89 396 82 397 c 1
 72 395 61 392 52 390 c 1
 42 520 l 1
EndSplineSet
Layer: 3
SplineSet
40 505 m 0
 42 517 51 527 65 535 c 1
 65 535 230 620 418 620 c 0
 613 620 732 550 732 412 c 0
 732 399 731 385 729 370 c 2
 676 40 l 2
 673 18 652 0 630 0 c 2
 440 0 l 2
 420 0 406 15 406 34 c 0
 406 36 406 38 406 40 c 2
 459 370 l 2
 460 377 461 383 461 389 c 0
 461 424 440 440 390 440 c 0
 375 440 354 439 331 437 c 1
 346 422 358 401 358 374 c 0
 358 369 358 365 357 360 c 2
 306 40 l 2
 303 18 282 0 260 0 c 2
 70 0 l 2
 50 0 36 15 36 34 c 0
 36 36 36 38 36 40 c 2
 89 370 l 2
 92 387 90 395 85 398 c 1
 79 397 71 395 68 395 c 0
 57 395 53 403 51 415 c 2
 41 480 l 1
 41 480 39 497 40 505 c 0
EndSplineSet
Colour: ffff00
EndChar

StartChar: uni0E17
Encoding: 3607 3607 2
Width: 775
VWidth: 0
UnlinkRmOvrlpSave: 1
Flags: HMW
LayerCount: 4
Layer: 2
SplineSet
-10 0 m 1
 85 600 l 1
 345 600 l 1
 329 498 l 1
 364 544 434 610 547 610 c 0
 661 610 734 545 734 429 c 0
 734 413 733 397 730 380 c 2
 670 0 l 1
 390 0 l 1
 441 320 l 2
 443 333 444 344 444 353 c 0
 444 388 430 400 403 400 c 0
 368 400 342 374 323 333 c 1
 270 0 l 1
 -10 0 l 1
EndSplineSet
Layer: 3
SplineSet
-4 40 m 2
 79 560 l 2
 82 582 103 600 125 600 c 2
 305 600 l 2
 325 600 339 585 339 566 c 0
 339 564 339 562 339 560 c 2
 329 498 l 1
 364 544 434 610 547 610 c 0
 661 610 734 545 734 429 c 0
 734 413 733 397 730 380 c 2
 676 40 l 2
 673 18 652 0 630 0 c 2
 430 0 l 2
 410 0 396 15 396 34 c 0
 396 36 396 38 396 40 c 2
 441 320 l 2
 443 333 444 344 444 353 c 0
 444 388 430 400 403 400 c 0
 368 400 342 374 323 333 c 1
 276 40 l 2
 273 18 252 0 230 0 c 2
 30 0 l 2
 10 0 -4 15 -4 34 c 0
 -4 36 -4 38 -4 40 c 2
EndSplineSet
Colour: ffff00
EndChar

StartChar: uni0E19
Encoding: 3609 3609 3
Width: 775
VWidth: 0
UnlinkRmOvrlpSave: 1
Flags: HMW
LayerCount: 4
Layer: 2
SplineSet
760 600 m 1
 665 0 l 1
 405 0 l 1
 421 102 l 1
 386 56 316 -10 203 -10 c 0
 89 -10 16 55 16 171 c 0
 16 187 17 203 20 220 c 2
 80 600 l 1
 360 600 l 1
 309 280 l 2
 307 267 306 256 306 247 c 0
 306 212 320 200 347 200 c 0
 382 200 408 226 427 267 c 1
 480 600 l 1
 760 600 l 1
EndSplineSet
Layer: 3
SplineSet
754 560 m 2
 671 40 l 2
 668 18 647 0 625 0 c 2
 445 0 l 2
 425 0 411 15 411 34 c 0
 411 36 411 38 411 40 c 2
 421 102 l 1
 386 56 316 -10 203 -10 c 0
 89 -10 16 55 16 171 c 0
 16 187 17 203 20 220 c 2
 74 560 l 2
 77 582 98 600 120 600 c 2
 320 600 l 2
 340 600 354 585 354 566 c 0
 354 564 354 562 354 560 c 2
 309 280 l 2
 307 267 306 256 306 247 c 0
 306 212 320 200 347 200 c 0
 382 200 408 226 427 267 c 1
 474 560 l 2
 477 582 498 600 520 600 c 2
 720 600 l 2
 740 600 754 585 754 566 c 0
 754 564 754 562 754 560 c 2
EndSplineSet
Colour: ffff00
EndChar

StartChar: uni0E21
Encoding: 3617 3617 4
Width: 775
VWidth: 0
Flags: HMW
LayerCount: 4
Layer: 2
SplineSet
-10 0 m 1
 85 600 l 1
 365 600 l 1
 312 267 l 1
 319 226 337 200 372 200 c 0
 406 200 424 219 434 280 c 2
 485 600 l 1
 765 600 l 1
 705 220 l 2
 682 74 577 -10 448 -10 c 0
 335 -10 287 56 266 102 c 1
 250 0 l 1
 -10 0 l 1
EndSplineSet
Layer: 3
SplineSet
-4 40 m 2
 79 560 l 2
 82 582 103 600 125 600 c 2
 325 600 l 2
 345 600 359 585 359 566 c 0
 359 564 359 562 359 560 c 2
 312 267 l 1
 319 226 337 200 372 200 c 0
 406 200 424 219 434 280 c 2
 479 560 l 2
 482 582 503 600 525 600 c 2
 725 600 l 2
 745 600 759 585 759 566 c 0
 759 564 759 562 759 560 c 2
 705 220 l 2
 682 74 577 -10 448 -10 c 0
 335 -10 287 56 266 102 c 1
 256 40 l 2
 253 18 232 0 210 0 c 2
 30 0 l 2
 10 0 -4 15 -4 34 c 0
 -4 36 -4 38 -4 40 c 2
EndSplineSet
Colour: ffff00
EndChar

StartChar: uni0E1A
Encoding: 3610 3610 5
Width: 790
VWidth: 0
Flags: HMW
LayerCount: 4
Layer: 2
SplineSet
21 230 m 2
 80 600 l 1
 360 600 l 1
 303 240 l 2
 302 234 301 227 301 222 c 0
 301 186 324 170 362 170 c 0
 406 170 435 192 443 240 c 2
 500 600 l 1
 780 600 l 1
 721 230 l 2
 695 64 546 -20 332 -20 c 0
 137 -20 18 50 18 188 c 0
 18 201 19 215 21 230 c 2
EndSplineSet
Layer: 3
SplineSet
21 230 m 2
 74 560 l 2
 77 582 98 600 120 600 c 2
 320 600 l 2
 340 600 354 585 354 566 c 0
 354 564 354 562 354 560 c 2
 303 240 l 2
 302 234 301 227 301 222 c 0
 301 186 324 170 362 170 c 0
 406 170 435 192 443 240 c 2
 494 560 l 2
 497 582 518 600 540 600 c 2
 740 600 l 2
 760 600 774 585 774 566 c 0
 774 564 774 562 774 560 c 2
 721 230 l 2
 695 64 546 -20 332 -20 c 0
 137 -20 18 50 18 188 c 0
 18 201 19 215 21 230 c 2
EndSplineSet
Colour: ffff00
EndChar

StartChar: uni0E1B
Encoding: 3611 3611 6
Width: 820
VWidth: 0
Flags: HMW
LayerCount: 4
Layer: 2
SplineSet
21 230 m 2
 80 600 l 1
 360 600 l 1
 303 240 l 2
 302 235 302 230 302 225 c 0
 302 188 329 170 372 170 c 0
 421 170 455 192 463 240 c 2
 558 840 l 1
 838 840 l 1
 741 230 l 2
 715 64 561 -20 342 -20 c 0
 142 -20 18 50 18 189 c 0
 18 202 19 216 21 230 c 2
EndSplineSet
Layer: 3
SplineSet
21 230 m 2
 74 560 l 2
 77 582 98 600 120 600 c 2
 320 600 l 2
 340 600 354 585 354 566 c 0
 354 564 354 562 354 560 c 2
 303 240 l 2
 302 235 302 230 302 225 c 0
 302 188 329 170 372 170 c 0
 421 170 455 192 463 240 c 2
 552 800 l 2
 555 822 576 840 598 840 c 2
 798 840 l 2
 818 840 832 825 832 806 c 0
 832 804 832 802 832 800 c 2
 741 230 l 2
 715 64 561 -20 342 -20 c 0
 142 -20 18 50 18 189 c 0
 18 202 19 216 21 230 c 2
EndSplineSet
Colour: ffff00
EndChar

StartChar: uni0E04
Encoding: 3588 3588 7
Width: 780
VWidth: 0
Flags: HMW
LayerCount: 4
Layer: 2
SplineSet
-20 0 m 1
 39 370 l 2
 65 536 214 620 428 620 c 0
 623 620 742 550 742 412 c 0
 742 399 741 385 739 370 c 2
 680 0 l 1
 410 0 l 1
 467 360 l 2
 468 365 468 370 468 374 c 0
 468 412 438 430 398 430 c 0
 354 430 315 408 307 360 c 2
 296 290 l 1
 318 317 345 340 374 340 c 0
 396 340 403 335 412 330 c 1
 385 160 l 1
 377 162 367 165 351 165 c 0
 317 165 287 145 270 124 c 1
 250 0 l 1
 -20 0 l 1
EndSplineSet
Layer: 3
SplineSet
-14 40 m 2
 39 370 l 2
 65 536 214 620 428 620 c 0
 623 620 742 550 742 412 c 0
 742 399 741 385 739 370 c 2
 686 40 l 2
 683 18 662 0 640 0 c 2
 450 0 l 2
 430 0 416 15 416 34 c 0
 416 36 416 38 416 40 c 2
 467 360 l 2
 468 365 468 370 468 374 c 0
 468 412 438 430 398 430 c 0
 354 430 315 408 307 360 c 2
 296 290 l 1
 318 317 345 340 374 340 c 0
 385 340 392 338 398 335 c 0
 407 330 410 319 409 310 c 2
 388 175 l 2
 387 167 378 162 371 163 c 0
 365 164 359 165 346 165 c 0
 315 165 286 146 270 125 c 1
 256 40 l 2
 253 18 232 0 210 0 c 2
 20 0 l 2
 0 0 -14 15 -14 34 c 0
 -14 36 -14 38 -14 40 c 2
EndSplineSet
Colour: ffff00
EndChar

StartChar: uni0E05
Encoding: 3589 3589 8
Width: 780
VWidth: 0
Flags: HMW
LayerCount: 4
Layer: 2
SplineSet
-20 0 m 1
 42 390 l 2
 65 536 193 620 278 620 c 0
 295 620 414 530 414 530 c 1
 414 530 561 620 578 620 c 0
 655 620 745 552 745 431 c 0
 745 418 744 404 742 390 c 2
 680 0 l 1
 410 0 l 1
 469 370 l 2
 470 375 470 380 470 384 c 0
 470 410 457 420 457 420 c 1
 400 380 l 1
 390 380 l 1
 380 380 l 1
 337 420 l 1
 337 420 315 406 309 370 c 2
 296 290 l 1
 318 317 345 340 374 340 c 0
 396 340 403 335 412 330 c 1
 385 160 l 1
 377 162 367 165 351 165 c 0
 317 165 287 145 270 124 c 1
 250 0 l 1
 -20 0 l 1
EndSplineSet
Layer: 3
SplineSet
-14 40 m 2
 42 390 l 2
 65 536 193 620 278 620 c 0
 335 620 414 530 414 530 c 1
 414 530 521 620 578 620 c 0
 655 620 745 552 745 431 c 0
 745 418 744 404 742 390 c 2
 686 40 l 2
 683 18 662 0 640 0 c 2
 450 0 l 2
 430 0 416 15 416 34 c 0
 416 36 416 38 416 40 c 2
 469 370 l 2
 470 375 470 380 470 384 c 0
 470 410 457 420 457 420 c 1
 418 395 l 1
 418 395 401 385 391 385 c 0
 381 385 368 395 368 395 c 1
 337 420 l 1
 337 420 315 406 309 370 c 2
 296 290 l 1
 318 317 345 340 374 340 c 0
 385 340 392 338 398 335 c 0
 407 330 410 319 409 310 c 2
 388 175 l 2
 387 167 378 162 371 163 c 0
 365 164 359 165 346 165 c 0
 315 165 286 146 270 125 c 1
 256 40 l 2
 253 18 232 0 210 0 c 2
 20 0 l 2
 0 0 -14 15 -14 34 c 0
 -14 36 -14 38 -14 40 c 2
EndSplineSet
Colour: ffff00
EndChar

StartChar: uni0E02
Encoding: 3586 3586 9
Width: 755
VWidth: 0
Flags: HMW
LayerCount: 4
Layer: 2
SplineSet
25 220 m 0
 44 338 137 420 137 420 c 1
 57 420 l 1
 85 600 l 1
 295 600 l 2
 369 600 399 567 399 512 c 0
 399 502 398 491 396 480 c 0
 383 397 310 317 295 220 c 0
 294 215 294 210 294 206 c 0
 294 174 315 160 345 160 c 0
 379 160 408 177 415 220 c 2
 475 600 l 1
 745 600 l 1
 685 220 l 2
 659 54 518 -20 317 -20 c 0
 134 -20 22 47 22 179 c 0
 22 192 23 206 25 220 c 0
EndSplineSet
Layer: 3
SplineSet
25 220 m 0
 44 338 137 420 137 420 c 1
 87 420 l 2
 71 420 58 434 61 450 c 2
 80 570 l 2
 83 586 99 599 115 600 c 2
 295 600 l 2
 369 600 399 567 399 512 c 0
 399 502 398 491 396 480 c 0
 383 397 310 317 295 220 c 0
 294 215 294 210 294 206 c 0
 294 174 315 160 345 160 c 0
 379 160 408 177 415 220 c 2
 469 560 l 2
 472 582 493 600 515 600 c 2
 705 600 l 2
 725 600 739 585 739 566 c 0
 739 564 739 562 739 560 c 2
 685 220 l 2
 659 54 518 -20 317 -20 c 0
 134 -20 22 47 22 179 c 0
 22 192 23 206 25 220 c 0
EndSplineSet
Colour: ffff00
EndChar

StartChar: uni0E03
Encoding: 3587 3587 10
Width: 765
VWidth: 0
Flags: HMW
LayerCount: 4
Layer: 2
SplineSet
31 450 m 1
 57 610 l 1
 67 610 l 1
 157 550 l 1
 180 570 233 610 307 610 c 0
 385 610 428 565 428 503 c 0
 428 496 427 488 426 480 c 0
 413 397 320 317 305 220 c 0
 304 215 304 209 304 205 c 0
 304 173 325 160 355 160 c 0
 389 160 418 177 425 220 c 2
 485 600 l 1
 755 600 l 1
 695 220 l 2
 669 54 528 -20 327 -20 c 0
 145 -20 31 41 31 176 c 0
 31 190 33 205 35 220 c 0
 53 333 188 369 197 425 c 0
 199 438 196 450 181 450 c 0
 152 450 124 419 113 400 c 1
 103 400 l 1
 31 450 l 1
EndSplineSet
Layer: 3
SplineSet
33 460 m 2
 53 590 l 2
 54 598 61 607 69 607 c 0
 74 607 77 606 85 600 c 2
 157 550 l 1
 180 570 233 610 307 610 c 0
 385 610 428 565 428 503 c 0
 428 496 427 488 426 480 c 0
 413 397 320 317 305 220 c 0
 304 215 304 209 304 205 c 0
 304 173 325 160 355 160 c 0
 389 160 418 177 425 220 c 2
 479 560 l 2
 482 582 503 600 525 600 c 2
 715 600 l 2
 735 600 749 585 749 566 c 0
 749 564 749 562 749 560 c 2
 695 220 l 2
 669 54 528 -20 327 -20 c 0
 145 -20 31 41 31 176 c 0
 31 190 33 205 35 220 c 0
 53 333 188 369 197 425 c 0
 199 438 196 450 181 450 c 0
 159 450 139 430 126 415 c 0
 121 409 115 400 103 400 c 0
 97 400 85 410 85 410 c 1
 44 435 l 2
 37 440 31 448 33 460 c 2
EndSplineSet
Colour: ffff00
EndChar

StartChar: uni0E06
Encoding: 3590 3590 11
Width: 775
VWidth: -360
Flags: HMW
LayerCount: 4
Layer: 2
SplineSet
31 450 m 1
 57 610 l 1
 67 610 l 1
 157 550 l 1
 180 570 233 610 307 610 c 0
 385 610 428 565 428 503 c 0
 428 496 427 488 426 480 c 0
 415 408 343 338 315 257 c 1
 322 222 340 200 372 200 c 0
 406 200 434 219 444 280 c 2
 495 600 l 1
 765 600 l 1
 705 220 l 2
 682 74 577 -10 448 -10 c 0
 335 -10 287 56 266 102 c 1
 250 0 l 1
 0 0 l 1
 35 220 l 2
 53 333 188 369 197 425 c 0
 199 438 196 450 181 450 c 0
 152 450 124 419 113 400 c 1
 103 400 l 1
 31 450 l 1
EndSplineSet
Layer: 3
SplineSet
33 460 m 2
 53 590 l 2
 54 598 61 607 69 607 c 0
 74 607 77 606 85 600 c 2
 157 550 l 1
 180 570 233 610 307 610 c 0
 385 610 428 565 428 503 c 0
 428 496 427 488 426 480 c 0
 415 408 343 338 315 257 c 1
 322 222 340 200 372 200 c 0
 406 200 434 219 444 280 c 2
 489 560 l 2
 492 582 513 600 535 600 c 2
 725 600 l 2
 745 600 759 585 759 566 c 0
 759 564 759 562 759 560 c 2
 705 220 l 2
 682 74 577 -10 448 -10 c 0
 335 -10 287 56 266 102 c 1
 256 40 l 2
 253 18 232 0 210 0 c 2
 40 0 l 2
 20 0 6 15 6 34 c 0
 6 36 6 38 6 40 c 2
 35 220 l 2
 53 333 188 369 197 425 c 0
 199 438 196 450 181 450 c 0
 159 450 139 430 126 415 c 0
 121 409 115 400 103 400 c 0
 97 400 85 410 85 410 c 1
 44 435 l 2
 37 440 31 448 33 460 c 2
EndSplineSet
Colour: ffff00
EndChar

StartChar: uni0E07
Encoding: 3591 3591 12
Width: 770
VWidth: 0
Flags: HMW
LayerCount: 4
Layer: 2
SplineSet
45 600 m 1
 305 600 l 1
 350 160 l 1
 405 160 454 212 468 300 c 0
 470 313 471 324 471 335 c 0
 471 392 443 420 407 420 c 0
 396 420 385 418 376 415 c 1
 362 580 l 1
 394 599 443 610 497 610 c 0
 652 610 733 504 733 363 c 0
 733 343 731 322 728 300 c 0
 701 129 552 -10 318 -10 c 0
 212 -10 140 0 140 0 c 1
 45 600 l 1
EndSplineSet
Layer: 3
SplineSet
46 575 m 0
 48 590 65 600 90 600 c 2
 265 600 l 2
 294 600 306 587 309 560 c 2
 350 160 l 1
 405 160 454 212 468 300 c 0
 470 313 471 324 471 335 c 0
 471 392 443 420 407 420 c 0
 391 420 376 425 374 440 c 2
 364 545 l 1
 364 545 363 556 364 562 c 0
 366 576 373 585 383 590 c 0
 397 598 443 610 497 610 c 0
 652 610 733 504 733 363 c 0
 733 343 731 322 728 300 c 0
 701 129 552 -10 318 -10 c 0
 237 -10 220 -7 172 -3 c 0
 147 -1 134 27 133 40 c 1
 48 555 l 2
 47 560 45 571 46 575 c 0
EndSplineSet
Colour: ffff00
EndChar

StartChar: uni0E16
Encoding: 3606 3606 13
Width: 770
VWidth: 0
Flags: HMW
LayerCount: 4
Layer: 2
SplineSet
42 520 m 1
 42 520 216 620 418 620 c 0
 613 620 732 550 732 412 c 0
 732 399 731 385 729 370 c 2
 670 0 l 1
 400 0 l 1
 459 370 l 2
 460 377 461 383 461 389 c 0
 461 424 440 440 390 440 c 0
 376 440 353 439 327 436 c 1
 339 422 348 402 348 377 c 0
 348 372 348 366 347 360 c 2
 314 150 l 1
 374 150 l 1
 350 0 l 1
 140 0 l 2
 70 0 43 32 43 73 c 0
 43 79 43 84 44 90 c 2
 89 370 l 2
 92 389 89 396 82 397 c 1
 72 395 61 392 52 390 c 1
 42 520 l 1
EndSplineSet
Layer: 3
SplineSet
40 505 m 0
 42 517 51 527 65 535 c 1
 65 535 230 620 418 620 c 0
 613 620 732 550 732 412 c 0
 732 399 731 385 729 370 c 2
 676 40 l 2
 673 18 652 0 630 0 c 2
 440 0 l 2
 420 0 406 15 406 34 c 0
 406 36 406 38 406 40 c 2
 459 370 l 2
 460 377 461 383 461 389 c 0
 461 424 440 440 390 440 c 0
 374 440 352 439 327 436 c 1
 339 423 348 403 348 377 c 0
 348 371 348 366 347 360 c 2
 314 150 l 1
 344 150 l 2
 360 150 372 136 369 120 c 2
 355 30 l 2
 352 14 336 0 320 0 c 2
 140 0 l 2
 70 0 43 32 43 73 c 0
 43 79 43 84 44 90 c 2
 89 370 l 2
 92 390 89 397 82 397 c 1
 76 396 70 395 68 395 c 0
 57 395 53 403 51 415 c 2
 41 480 l 1
 41 480 39 497 40 505 c 0
EndSplineSet
Colour: ffff00
EndChar

StartChar: uni0E2E
Encoding: 3630 3630 14
Width: 750
VWidth: 0
Flags: HMW
LayerCount: 4
Layer: 2
SplineSet
11 260 m 0
 18 305 46 340 84 340 c 2
 314 340 l 1
 296 230 l 1
 251 230 l 1
 250 225 250 220 250 216 c 0
 250 178 279 160 315 160 c 0
 373 160 404 210 418 300 c 0
 420 312 421 323 421 333 c 0
 421 409 369 440 290 440 c 0
 218 440 150 416 103 400 c 1
 67 550 l 1
 67 550 196 620 398 620 c 0
 483 620 530 596 552 578 c 1
 575 602 591 636 598 680 c 1
 798 680 l 1
 785 599 733 531 657 486 c 1
 677 461 693 422 693 362 c 0
 693 343 692 323 688 300 c 0
 660 123 501 -20 287 -20 c 0
 123 -20 7 53 7 206 c 0
 7 223 8 241 11 260 c 0
EndSplineSet
Layer: 3
SplineSet
11 260 m 0
 18 305 46 340 84 340 c 2
 284 340 l 2
 300 340 312 326 309 310 c 2
 301 260 l 2
 298 244 282 230 266 230 c 2
 251 230 l 1
 250 225 250 220 250 216 c 0
 250 178 279 160 315 160 c 0
 373 160 404 210 418 300 c 0
 420 312 421 323 421 333 c 0
 421 409 369 440 290 440 c 0
 230 440 190 427 167 420 c 0
 153 416 128 405 115 405 c 0
 100 405 98 423 95 435 c 2
 76 510 l 1
 76 510 73 522 75 535 c 0
 77 550 83 558 99 565 c 0
 112 570 222 620 398 620 c 0
 482 620 529 596 551 579 c 1
 575 604 588 634 591 650 c 0
 594 666 610 680 626 680 c 2
 763 680 l 2
 777 680 788 669 788 655 c 0
 788 592 726 526 657 486 c 1
 677 461 693 422 693 362 c 0
 693 343 692 323 688 300 c 0
 660 123 501 -20 287 -20 c 0
 123 -20 7 53 7 206 c 0
 7 223 8 241 11 260 c 0
EndSplineSet
Colour: ffff00
EndChar

StartChar: uni0E20
Encoding: 3616 3616 15
Width: 770
VWidth: 0
Flags: HMW
LayerCount: 4
Layer: 2
SplineSet
42 520 m 1
 42 520 216 620 418 620 c 0
 613 620 732 550 732 412 c 0
 732 399 731 385 729 370 c 2
 670 0 l 1
 400 0 l 1
 459 370 l 2
 460 377 461 383 461 389 c 0
 461 424 440 440 390 440 c 0
 377 440 358 439 336 437 c 1
 349 423 358 403 358 377 c 0
 358 372 358 366 357 360 c 2
 314 90 l 2
 306 42 270 0 190 0 c 2
 -20 0 l 1
 4 150 l 1
 64 150 l 1
 99 370 l 2
 102 391 99 399 90 399 c 1
 77 396 64 393 52 390 c 1
 42 520 l 1
EndSplineSet
Layer: 3
SplineSet
40 505 m 0
 42 517 51 527 65 535 c 1
 65 535 230 620 418 620 c 0
 613 620 732 550 732 412 c 0
 732 399 731 385 729 370 c 2
 676 40 l 2
 673 18 652 0 630 0 c 2
 440 0 l 2
 420 0 406 15 406 34 c 0
 406 36 406 38 406 40 c 2
 459 370 l 2
 460 377 461 383 461 389 c 0
 461 424 440 440 390 440 c 0
 376 440 357 439 336 437 c 1
 349 423 359 404 359 379 c 0
 359 373 358 367 357 360 c 2
 314 90 l 2
 306 42 270 0 190 0 c 2
 10 0 l 2
 -6 0 -18 14 -15 30 c 2
 -1 120 l 2
 2 136 18 150 34 150 c 2
 64 150 l 1
 99 370 l 2
 102 391 98 399 90 399 c 1
 84 398 72 395 68 395 c 0
 57 395 53 403 51 415 c 2
 41 480 l 1
 41 480 39 497 40 505 c 0
EndSplineSet
Colour: ffff00
EndChar

StartChar: uni0E14
Encoding: 3604 3604 16
Width: 790
VWidth: 0
Flags: HMW
LayerCount: 4
Layer: 2
SplineSet
18 300 m 0
 45 471 200 620 448 620 c 0
 649 620 752 524 752 404 c 0
 752 393 751 382 749 370 c 2
 690 0 l 1
 420 0 l 1
 477 360 l 2
 477 362 478 364 478 367 c 0
 478 392 460 420 417 420 c 0
 361 420 311 380 298 300 c 0
 296 289 295 279 295 269 c 0
 295 210 328 180 369 180 c 0
 380 180 390 182 399 185 c 1
 373 20 l 1
 341 1 302 -10 258 -10 c 0
 101 -10 13 98 13 241 c 0
 13 260 15 280 18 300 c 0
EndSplineSet
Layer: 3
SplineSet
18 300 m 4
 45 471 200 620 448 620 c 4
 649 620 752 524 752 404 c 0
 752 393 751 382 749 370 c 6
 696 40 l 6
 693 18 672 0 650 0 c 6
 460 0 l 6
 440 0 426 15 426 34 c 0
 426 36 426 38 426 40 c 6
 477 360 l 6
 477 362 478 364 478 367 c 0
 478 392 460 420 417 420 c 4
 356 420 311 380 298 300 c 4
 296 289 295 279 295 269 c 0
 295 205 333 180 359 180 c 4
 376 180 385 185 389 185 c 4
 395 185 399 182 397 170 c 6
 376 40 l 6
 374 25 357 11 341 5 c 4
 326 0 298 -10 258 -10 c 4
 101 -10 13 98 13 241 c 0
 13 260 15 280 18 300 c 4
EndSplineSet
Colour: ffff00
EndChar

StartChar: uni0E15
Encoding: 3605 3605 17
Width: 810
VWidth: 0
Flags: HMW
LayerCount: 4
Layer: 2
SplineSet
18 300 m 0
 45 471 174 610 347 610 c 0
 423 610 481 553 517 485 c 1
 535 600 l 1
 795 600 l 1
 700 0 l 1
 430 0 l 1
 483 334 l 1
 468 376 420 420 387 420 c 0
 351 420 311 380 298 300 c 0
 296 289 295 279 295 269 c 0
 295 210 328 180 369 180 c 0
 380 180 390 182 399 185 c 1
 373 20 l 1
 341 1 302 -10 258 -10 c 0
 101 -10 13 98 13 241 c 0
 13 260 15 280 18 300 c 0
EndSplineSet
Layer: 3
SplineSet
18 300 m 4
 45 471 174 610 347 610 c 4
 423 610 481 553 517 485 c 5
 529 560 l 6
 532 582 553 600 575 600 c 6
 755 600 l 6
 775 600 789 585 789 566 c 0
 789 564 789 562 789 560 c 6
 706 40 l 6
 703 18 682 0 660 0 c 6
 470 0 l 6
 450 0 436 15 436 34 c 0
 436 36 436 38 436 40 c 6
 483 334 l 5
 468 376 420 420 387 420 c 4
 351 420 311 380 298 300 c 4
 296 289 295 279 295 269 c 0
 295 205 333 180 359 180 c 4
 376 180 385 185 389 185 c 4
 395 185 399 182 397 170 c 6
 376 40 l 6
 374 25 357 11 341 5 c 4
 326 0 298 -10 258 -10 c 4
 101 -10 13 98 13 241 c 0
 13 260 15 280 18 300 c 4
EndSplineSet
Colour: ffff00
EndChar

StartChar: uni0E33
Encoding: 3635 3635 18
Width: 540
VWidth: 0
Flags: HMW
LayerCount: 4
Layer: 2
SplineSet
-323 805 m 0
 -310 884 -240 940 -126 940 c 0
 -23 940 29 895 29 828 c 0
 29 821 28 813 27 805 c 0
 14 726 -55 670 -169 670 c 0
 -272 670 -325 715 -325 782 c 0
 -325 789 -324 797 -323 805 c 0
-188 805 m 0
 -189 801 -189 797 -189 794 c 0
 -189 771 -174 760 -155 760 c 0
 -133 760 -113 775 -108 805 c 0
 -107 809 -107 813 -107 816 c 0
 -107 839 -121 850 -140 850 c 0
 -162 850 -183 835 -188 805 c 0
26 540 m 1
 26 540 121 610 287 610 c 0
 430 610 495 552 495 439 c 0
 495 421 493 401 490 380 c 2
 430 0 l 1
 150 0 l 1
 207 360 l 2
 208 366 208 372 208 377 c 0
 208 402 195 410 165 410 c 0
 129 410 74 394 50 380 c 1
 26 540 l 1
EndSplineSet
Layer: 3
SplineSet
-323 805 m 0
 -310 884 -240 940 -126 940 c 0
 -23 940 29 895 29 828 c 0
 29 821 28 813 27 805 c 0
 14 726 -55 670 -169 670 c 0
 -272 670 -325 715 -325 782 c 0
 -325 789 -324 797 -323 805 c 0
-188 805 m 0
 -189 801 -189 797 -189 794 c 0
 -189 771 -174 760 -155 760 c 0
 -133 760 -113 775 -108 805 c 0
 -107 809 -107 813 -107 816 c 0
 -107 839 -121 850 -140 850 c 0
 -162 850 -183 835 -188 805 c 0
29 530 m 0
 31 542 39 549 59 560 c 1
 59 560 152 610 287 610 c 0
 430 610 495 552 495 439 c 0
 495 421 493 401 490 380 c 2
 436 40 l 2
 433 18 412 0 390 0 c 2
 190 0 l 2
 170 0 156 15 156 34 c 0
 156 36 156 38 156 40 c 2
 207 360 l 2
 208 366 208 372 208 377 c 0
 208 402 195 410 165 410 c 0
 139 410 115 404 93 395 c 0
 83 391 72 385 61 385 c 0
 50 385 46 393 44 405 c 2
 30 505 l 1
 30 505 28 522 29 530 c 0
EndSplineSet
Colour: ffff00
EndChar

StartChar: uni0E08
Encoding: 3592 3592 19
Width: 710
VWidth: -360
Flags: HMW
LayerCount: 4
Layer: 2
SplineSet
47 550 m 1
 47 550 176 620 378 620 c 0
 569 620 676 528 676 377 c 0
 676 359 674 340 671 320 c 0
 644 149 493 -10 308 -10 c 0
 178 -10 130 0 130 0 c 1
 80 190 l 1
 20 190 l 1
 44 340 l 1
 234 340 l 2
 276 340 290 320 296 290 c 2
 320 168 l 1
 356 186 387 233 399 310 c 0
 401 320 401 330 401 339 c 0
 401 405 359 440 280 440 c 0
 208 440 130 416 83 400 c 1
 47 550 l 1
EndSplineSet
Layer: 3
SplineSet
55 535 m 0
 57 550 63 558 79 565 c 0
 92 570 202 620 378 620 c 0
 569 620 676 528 676 377 c 0
 676 359 674 340 671 320 c 0
 644 149 493 -10 308 -10 c 0
 227 -10 206 -7 158 -3 c 0
 133 -1 122 27 119 40 c 2
 80 190 l 1
 50 190 l 2
 34 190 22 204 25 220 c 2
 39 310 l 2
 42 326 58 340 74 340 c 2
 234 340 l 2
 276 340 290 320 296 290 c 2
 320 168 l 1
 356 186 387 233 399 310 c 0
 401 320 401 330 401 339 c 0
 401 405 359 440 280 440 c 0
 224 440 170 427 147 420 c 0
 133 416 108 405 95 405 c 0
 80 405 78 423 75 435 c 2
 56 510 l 1
 56 510 53 522 55 535 c 0
EndSplineSet
Colour: ffff00
EndChar

StartChar: uni0E09
Encoding: 3593 3593 20
Width: 750
VWidth: 0
Flags: HMW
LayerCount: 4
Layer: 2
SplineSet
57 550 m 1
 57 550 206 620 408 620 c 0
 602 620 713 551 713 415 c 0
 713 401 711 386 709 370 c 2
 650 0 l 1
 400 0 l 1
 415 92 l 1
 381 51 296 -10 178 -10 c 0
 115 -10 49 20 49 103 c 0
 49 112 50 120 51 130 c 2
 60 190 l 1
 20 190 l 1
 44 340 l 1
 254 340 l 2
 305 340 316 326 316 303 c 0
 316 296 315 289 314 280 c 2
 303 210 l 2
 302 204 302 199 302 194 c 0
 302 169 314 160 335 160 c 0
 361 160 388 177 412 204 c 1
 434 340 l 2
 435 346 435 351 435 356 c 0
 435 415 377 440 300 440 c 0
 228 440 140 416 93 400 c 1
 57 550 l 1
EndSplineSet
Layer: 3
SplineSet
65 535 m 4
 67 550 73 558 89 565 c 4
 102 570 232 620 408 620 c 4
 602 620 713 551 713 415 c 0
 713 401 711 386 709 370 c 6
 656 40 l 6
 653 18 632 0 610 0 c 6
 440 0 l 6
 420 0 406 15 406 34 c 0
 406 36 406 38 406 40 c 6
 415 92 l 5
 381 51 296 -10 178 -10 c 4
 115 -10 49 20 49 103 c 0
 49 112 50 120 51 130 c 6
 60 190 l 5
 50 190 l 6
 34 190 22 204 25 220 c 6
 39 310 l 6
 42 326 58 340 74 340 c 6
 254 340 l 6
 305 340 316 326 316 303 c 0
 316 296 315 289 314 280 c 6
 303 210 l 6
 302 204 302 199 302 194 c 0
 302 169 314 160 335 160 c 4
 361 160 388 177 412 204 c 5
 434 340 l 6
 435 346 435 351 435 356 c 0
 435 415 377 440 300 440 c 4
 244 440 185 427 162 420 c 4
 148 416 118 405 105 405 c 4
 90 405 88 423 85 435 c 6
 66 510 l 5
 66 510 63 522 65 535 c 4
EndSplineSet
Colour: ffff00
EndChar

StartChar: uni0E0A
Encoding: 3594 3594 21
Width: 770
VWidth: -360
Flags: HMW
LayerCount: 4
Layer: 2
SplineSet
25 220 m 0
 44 338 137 420 137 420 c 1
 57 420 l 1
 85 600 l 1
 295 600 l 2
 369 600 399 567 399 512 c 0
 399 502 398 491 396 480 c 0
 383 397 310 317 295 220 c 0
 294 215 294 210 294 206 c 0
 294 174 315 160 345 160 c 0
 379 160 408 177 415 220 c 2
 439 370 l 2
 441 382 442 392 442 400 c 0
 442 420 436 430 418 430 c 2
 408 430 l 1
 424 530 l 1
 513 530 581 575 598 680 c 1
 798 680 l 1
 782 582 709 503 607 462 c 1
 665 441 705 388 705 355 c 0
 705 353 705 352 705 350 c 2
 685 220 l 2
 659 54 518 -20 317 -20 c 0
 134 -20 22 47 22 179 c 0
 22 192 23 206 25 220 c 0
EndSplineSet
Layer: 3
SplineSet
25 220 m 0
 44 338 137 420 137 420 c 1
 87 420 l 2
 71 420 58 434 61 450 c 2
 80 570 l 2
 83 586 99 599 115 600 c 1
 295 600 l 2
 369 600 399 567 399 512 c 0
 399 502 398 491 396 480 c 0
 383 397 310 317 295 220 c 0
 294 215 294 210 294 206 c 0
 294 174 315 160 345 160 c 0
 379 160 408 177 415 220 c 2
 439 370 l 2
 441 382 442 392 442 400 c 0
 442 418 437 427 428 430 c 0
 418 433 409 439 411 450 c 2
 421 510 l 2
 423 521 433 530 444 530 c 0
 536 530 586 618 591 650 c 0
 594 666 610 680 626 680 c 2
 763 680 l 2
 777 680 788 669 788 655 c 0
 788 579 701 501 608 462 c 1
 663 444 703 396 703 345 c 0
 703 340 703 335 702 330 c 2
 685 220 l 2
 659 54 518 -20 317 -20 c 0
 134 -20 22 47 22 179 c 0
 22 192 23 206 25 220 c 0
EndSplineSet
Colour: ffff00
EndChar

StartChar: uni0E0B
Encoding: 3595 3595 22
Width: 780
VWidth: -360
Flags: HMW
LayerCount: 4
Layer: 2
SplineSet
31 450 m 1
 57 610 l 1
 67 610 l 1
 157 550 l 1
 180 570 233 610 307 610 c 0
 385 610 428 565 428 503 c 0
 428 496 427 488 426 480 c 0
 413 397 320 317 305 220 c 0
 304 215 304 209 304 205 c 0
 304 173 325 160 355 160 c 0
 389 160 418 177 425 220 c 2
 449 370 l 2
 451 382 452 392 452 400 c 0
 452 420 446 430 428 430 c 2
 423 430 l 1
 439 530 l 1
 528 530 591 575 608 680 c 1
 808 680 l 1
 792 582 719 503 617 462 c 1
 675 441 715 388 715 355 c 0
 715 353 715 352 715 350 c 2
 695 220 l 2
 669 54 528 -20 327 -20 c 0
 145 -20 31 41 31 176 c 0
 31 190 33 205 35 220 c 0
 53 333 188 369 197 425 c 0
 199 438 196 450 181 450 c 0
 152 450 124 419 113 400 c 1
 103 400 l 1
 31 450 l 1
EndSplineSet
Layer: 3
SplineSet
33 460 m 2
 53 590 l 2
 54 598 61 607 69 607 c 0
 74 607 77 606 85 600 c 2
 157 550 l 1
 180 570 233 610 307 610 c 0
 385 610 428 565 428 503 c 0
 428 496 427 488 426 480 c 0
 413 397 320 317 305 220 c 0
 304 215 304 209 304 205 c 0
 304 173 325 160 355 160 c 0
 389 160 418 177 425 220 c 2
 449 370 l 2
 451 382 452 392 452 400 c 0
 452 418 447 427 438 430 c 0
 428 433 424 439 426 450 c 2
 436 510 l 2
 438 521 443 530 454 530 c 0
 546 530 596 618 601 650 c 0
 604 666 620 680 636 680 c 2
 773 680 l 2
 787 680 798 669 798 655 c 0
 798 579 711 501 618 462 c 1
 673 444 713 396 713 345 c 0
 713 340 713 335 712 330 c 2
 695 220 l 2
 669 54 528 -20 327 -20 c 0
 145 -20 31 41 31 176 c 0
 31 190 33 205 35 220 c 0
 53 333 188 369 197 425 c 0
 199 438 196 450 181 450 c 0
 159 450 139 430 126 415 c 0
 121 409 115 400 103 400 c 0
 97 400 85 410 85 410 c 1
 44 435 l 2
 37 440 31 448 33 460 c 2
EndSplineSet
Colour: ffff00
EndChar

StartChar: uni0E0C
Encoding: 3596 3596 23
Width: 1150
VWidth: 0
Flags: HMW
LayerCount: 4
Layer: 2
SplineSet
42 520 m 1
 42 520 216 620 418 620 c 0
 613 620 732 550 732 412 c 0
 732 399 731 385 729 370 c 2
 706 230 l 1
 719 205 736 190 760 190 c 0
 786 190 803 209 813 270 c 2
 865 600 l 1
 1135 600 l 1
 1073 210 l 2
 1050 64 956 -10 838 -10 c 0
 734 -10 686 48 665 92 c 1
 650 0 l 1
 400 0 l 1
 459 370 l 2
 460 377 461 383 461 389 c 0
 461 424 440 440 390 440 c 0
 376 440 353 439 327 436 c 1
 339 422 348 402 348 377 c 0
 348 372 348 366 347 360 c 2
 314 150 l 1
 374 150 l 1
 350 0 l 1
 140 0 l 2
 70 0 43 32 43 73 c 0
 43 79 43 84 44 90 c 2
 89 370 l 2
 92 389 89 396 82 397 c 1
 72 395 61 392 52 390 c 1
 42 520 l 1
EndSplineSet
Layer: 3
SplineSet
40 505 m 0
 42 517 51 527 65 535 c 1
 65 535 230 620 418 620 c 0
 613 620 732 550 732 412 c 0
 732 399 731 385 729 370 c 2
 706 230 l 1
 719 205 736 190 760 190 c 0
 786 190 803 209 813 270 c 2
 859 560 l 2
 862 582 883 600 905 600 c 2
 1095 600 l 2
 1115 600 1129 585 1129 566 c 0
 1129 564 1129 562 1129 560 c 2
 1073 210 l 2
 1050 64 956 -10 838 -10 c 0
 734 -10 686 48 665 92 c 1
 656 40 l 2
 653 18 632 0 610 0 c 2
 440 0 l 2
 420 0 406 15 406 34 c 0
 406 36 406 38 406 40 c 2
 459 370 l 2
 460 377 461 383 461 389 c 0
 461 424 440 440 390 440 c 0
 374 440 352 439 327 436 c 1
 339 423 348 403 348 377 c 0
 348 371 348 366 347 360 c 2
 314 150 l 1
 344 150 l 2
 360 150 372 136 369 120 c 2
 355 30 l 2
 352 14 336 0 320 0 c 2
 140 0 l 2
 70 0 43 32 43 73 c 0
 43 79 43 84 44 90 c 2
 89 370 l 2
 92 390 89 397 82 397 c 1
 76 396 70 395 68 395 c 0
 57 395 53 403 51 415 c 2
 41 480 l 1
 41 480 39 497 40 505 c 0
EndSplineSet
Colour: ffff00
EndChar

StartChar: uni0E0D
Encoding: 3597 3597 24
Width: 1150
VWidth: 0
Flags: HMW
LayerCount: 4
Layer: 2
SplineSet
42 520 m 1
 42 520 216 620 418 620 c 0
 613 620 732 550 732 412 c 0
 732 399 731 385 729 370 c 2
 705 220 l 2
 704 213 703 207 703 201 c 0
 703 173 716 160 745 160 c 0
 780 160 799 179 805 220 c 2
 865 600 l 1
 1135 600 l 1
 1073 210 l 2
 1053 83 949 -20 717 -20 c 0
 509 -20 430 63 430 171 c 0
 430 184 431 197 433 210 c 2
 459 370 l 2
 460 377 461 383 461 389 c 0
 461 424 440 440 390 440 c 0
 376 440 353 439 327 436 c 1
 339 422 348 402 348 377 c 0
 348 372 348 366 347 360 c 2
 314 150 l 1
 374 150 l 1
 350 0 l 1
 140 0 l 2
 70 0 43 32 43 73 c 0
 43 79 43 84 44 90 c 2
 89 370 l 2
 92 389 89 396 82 397 c 1
 72 395 61 392 52 390 c 1
 42 520 l 1
416 -180 m 1
 498 -45 l 1
 498 -45 581 -100 704 -100 c 0
 826 -100 928 -45 928 -45 c 1
 966 -180 l 1
 966 -180 862 -250 680 -250 c 0
 497 -250 416 -180 416 -180 c 1
EndSplineSet
Layer: 3
SplineSet
40 505 m 0
 42 517 51 527 65 535 c 1
 65 535 230 620 418 620 c 0
 613 620 732 550 732 412 c 0
 732 399 731 385 729 370 c 2
 705 220 l 2
 704 213 703 207 703 201 c 0
 703 173 716 160 745 160 c 0
 780 160 799 179 805 220 c 2
 859 560 l 2
 862 582 883 600 905 600 c 2
 1095 600 l 2
 1115 600 1129 585 1129 566 c 0
 1129 564 1129 562 1129 560 c 2
 1073 210 l 2
 1053 83 949 -20 717 -20 c 0
 509 -20 430 63 430 171 c 0
 430 184 431 197 433 210 c 2
 459 370 l 2
 460 377 461 383 461 389 c 0
 461 424 440 440 390 440 c 0
 374 440 352 439 327 436 c 1
 339 423 348 403 348 377 c 0
 348 371 348 366 347 360 c 2
 314 150 l 1
 344 150 l 2
 360 150 372 136 369 120 c 2
 355 30 l 2
 352 14 336 0 320 0 c 2
 140 0 l 2
 70 0 43 32 43 73 c 0
 43 79 43 84 44 90 c 2
 89 370 l 2
 92 390 89 397 81 397 c 1
 76 396 70 395 68 395 c 0
 57 395 53 403 51 415 c 2
 41 480 l 1
 41 480 39 497 40 505 c 0
423 -170 m 0
 424 -163 428 -154 431 -150 c 2
 479 -70 l 2
 485 -59 496 -55 506 -55 c 0
 513 -55 520 -58 525 -60 c 0
 531 -63 601 -100 704 -100 c 0
 807 -100 889 -63 895 -60 c 0
 900 -58 909 -55 916 -55 c 0
 926 -55 937 -59 939 -70 c 2
 961 -150 l 2
 962 -154 964 -163 963 -170 c 0
 961 -180 950 -192 939 -196 c 0
 895 -214 817 -250 680 -250 c 0
 543 -250 477 -214 439 -196 c 0
 430 -192 421 -180 423 -170 c 0
EndSplineSet
Colour: ffff00
EndChar

StartChar: uni0E13
Encoding: 3603 3603 25
Width: 1150
VWidth: -360
Flags: HMW
LayerCount: 4
Layer: 2
SplineSet
42 520 m 1
 42 520 216 620 418 620 c 0
 613 620 732 550 732 412 c 0
 732 399 731 385 729 370 c 2
 713 270 l 2
 711 255 709 242 709 232 c 0
 709 201 720 190 740 190 c 0
 764 190 785 205 806 230 c 1
 865 600 l 1
 1135 600 l 1
 1040 0 l 1
 790 0 l 1
 805 92 l 1
 770 48 702 -10 598 -10 c 0
 495 -10 429 47 429 158 c 0
 429 174 430 191 433 210 c 2
 459 370 l 2
 460 377 461 383 461 389 c 0
 461 424 440 440 390 440 c 0
 376 440 353 439 327 436 c 1
 339 422 348 402 348 377 c 0
 348 372 348 366 347 360 c 2
 314 150 l 1
 374 150 l 1
 350 0 l 1
 140 0 l 2
 70 0 43 32 43 73 c 0
 43 79 43 84 44 90 c 2
 89 370 l 2
 92 389 89 396 82 397 c 1
 72 395 61 392 52 390 c 1
 42 520 l 1
EndSplineSet
Layer: 3
SplineSet
40 505 m 0
 42 517 51 527 65 535 c 1
 65 535 230 620 418 620 c 0
 613 620 732 550 732 412 c 0
 732 399 731 385 729 370 c 2
 713 270 l 2
 711 255 709 242 709 232 c 0
 709 201 720 190 740 190 c 0
 764 190 785 205 806 230 c 1
 859 560 l 2
 862 582 883 600 905 600 c 2
 1095 600 l 2
 1115 600 1129 585 1129 566 c 0
 1129 564 1129 562 1129 560 c 2
 1046 40 l 2
 1043 18 1022 0 1000 0 c 2
 830 0 l 2
 810 0 796 15 796 34 c 0
 796 36 796 38 796 40 c 2
 805 92 l 1
 770 48 702 -10 598 -10 c 0
 495 -10 429 47 429 158 c 0
 429 174 430 191 433 210 c 2
 459 370 l 2
 460 377 461 383 461 389 c 0
 461 424 440 440 390 440 c 0
 374 440 352 439 327 436 c 1
 339 423 348 403 348 377 c 0
 348 371 348 366 347 360 c 2
 314 150 l 1
 344 150 l 2
 360 150 372 136 369 120 c 2
 355 30 l 2
 352 14 336 0 320 0 c 2
 140 0 l 2
 70 0 43 32 43 73 c 0
 43 79 43 84 44 90 c 2
 89 370 l 2
 92 390 89 397 82 397 c 1
 76 396 70 395 68 395 c 0
 57 395 53 403 51 415 c 2
 41 480 l 1
 41 480 39 497 40 505 c 0
EndSplineSet
Colour: ffff00
EndChar

StartChar: uni0E12
Encoding: 3602 3602 26
Width: 1180
VWidth: -360
Flags: HMW
LayerCount: 4
Layer: 2
SplineSet
18 300 m 0
 45 471 174 610 347 610 c 0
 423 610 481 553 517 485 c 1
 535 600 l 1
 795 600 l 1
 736 230 l 1
 749 205 766 190 790 190 c 0
 816 190 833 209 843 270 c 2
 895 600 l 1
 1165 600 l 1
 1103 210 l 2
 1080 64 986 -10 868 -10 c 0
 764 -10 716 48 695 92 c 1
 680 0 l 1
 430 0 l 1
 483 334 l 1
 468 376 420 420 387 420 c 0
 351 420 311 380 298 300 c 0
 296 289 295 279 295 269 c 0
 295 210 328 180 369 180 c 0
 380 180 390 182 399 185 c 1
 373 20 l 1
 341 1 302 -10 258 -10 c 0
 101 -10 13 98 13 241 c 0
 13 260 15 280 18 300 c 0
EndSplineSet
Layer: 3
SplineSet
18 300 m 4
 45 471 174 610 347 610 c 4
 423 610 481 553 517 485 c 5
 529 560 l 6
 532 582 553 600 575 600 c 6
 755 600 l 6
 775 600 789 585 789 566 c 0
 789 564 789 562 789 560 c 6
 736 230 l 5
 749 205 766 190 790 190 c 4
 816 190 833 209 843 270 c 6
 889 560 l 6
 892 582 913 600 935 600 c 6
 1125 600 l 6
 1145 600 1159 585 1159 566 c 0
 1159 564 1159 562 1159 560 c 6
 1103 210 l 6
 1080 64 986 -10 868 -10 c 4
 764 -10 716 48 695 92 c 5
 686 40 l 6
 683 18 662 0 640 0 c 6
 470 0 l 6
 450 0 436 15 436 34 c 0
 436 36 436 38 436 40 c 6
 483 334 l 5
 468 376 420 420 387 420 c 4
 351 420 311 380 298 300 c 4
 296 289 295 279 295 269 c 0
 295 205 333 180 359 180 c 4
 376 180 385 185 389 185 c 4
 395 185 399 182 397 170 c 6
 376 40 l 6
 374 25 357 11 341 5 c 4
 326 0 298 -10 258 -10 c 4
 101 -10 13 98 13 241 c 0
 13 260 15 280 18 300 c 4
EndSplineSet
Colour: ffff00
EndChar

StartChar: uni0E11
Encoding: 3601 3601 27
Width: 785
VWidth: 0
Flags: HMW
LayerCount: 4
Layer: 2
SplineSet
31 450 m 1
 57 610 l 1
 67 610 l 1
 157 550 l 1
 180 570 233 610 307 610 c 0
 385 610 428 564 428 501 c 0
 428 498 428 494 428 491 c 1
 476 553 541 610 617 610 c 0
 711 610 747 558 747 464 c 0
 747 439 745 411 740 380 c 2
 680 0 l 1
 400 0 l 1
 452 330 l 2
 453 337 454 344 454 349 c 0
 454 363 449 370 434 370 c 0
 394 370 351 291 325 220 c 1
 290 0 l 1
 10 0 l 1
 45 220 l 2
 63 333 188 369 197 425 c 0
 199 438 196 450 181 450 c 0
 152 450 124 419 113 400 c 1
 103 400 l 1
 31 450 l 1
EndSplineSet
Layer: 3
SplineSet
33 460 m 2
 53 590 l 2
 54 598 61 607 69 607 c 0
 74 607 77 606 85 600 c 2
 157 550 l 1
 180 570 233 610 307 610 c 0
 385 610 428 564 428 501 c 0
 428 498 428 494 428 491 c 1
 476 553 541 610 617 610 c 0
 711 610 747 558 747 464 c 0
 747 439 745 411 740 380 c 2
 686 40 l 2
 683 18 662 0 640 0 c 2
 440 0 l 2
 420 0 406 15 406 34 c 0
 406 36 406 38 406 40 c 2
 452 330 l 2
 453 337 454 344 454 349 c 0
 454 363 449 370 434 370 c 0
 394 370 351 291 325 220 c 1
 296 40 l 2
 293 18 272 0 250 0 c 2
 50 0 l 2
 30 0 16 15 16 34 c 0
 16 36 16 38 16 40 c 2
 45 220 l 2
 63 333 188 369 197 425 c 0
 199 438 196 450 181 450 c 0
 159 450 139 430 126 415 c 0
 121 409 115 400 103 400 c 0
 97 400 85 410 85 410 c 1
 44 435 l 2
 37 440 31 448 33 460 c 2
EndSplineSet
Colour: ffff00
EndChar

StartChar: uni0E24
Encoding: 3620 3620 28
Width: 775
VWidth: 0
Flags: HMW
LayerCount: 4
Layer: 2
SplineSet
42 520 m 1
 42 520 216 620 418 620 c 0
 613 620 732 550 732 412 c 0
 732 399 731 385 729 370 c 2
 632 -240 l 1
 362 -240 l 1
 459 370 l 2
 460 377 461 383 461 389 c 0
 461 424 440 440 390 440 c 0
 376 440 353 439 327 436 c 1
 339 422 348 402 348 377 c 0
 348 372 348 366 347 360 c 2
 314 150 l 1
 374 150 l 1
 350 0 l 1
 140 0 l 2
 70 0 43 32 43 73 c 0
 43 79 43 84 44 90 c 2
 89 370 l 2
 92 389 89 396 82 397 c 1
 72 395 61 392 52 390 c 1
 42 520 l 1
EndSplineSet
Layer: 3
SplineSet
40 505 m 0
 42 517 51 527 65 535 c 1
 65 535 230 620 418 620 c 0
 613 620 732 550 732 412 c 0
 732 399 731 385 729 370 c 2
 638 -200 l 2
 635 -222 614 -240 592 -240 c 2
 402 -240 l 2
 382 -240 368 -225 368 -206 c 0
 368 -204 368 -202 368 -200 c 2
 459 370 l 2
 460 377 461 383 461 389 c 0
 461 424 440 440 390 440 c 0
 374 440 352 439 327 436 c 1
 339 423 348 403 348 377 c 0
 348 371 348 366 347 360 c 2
 314 150 l 1
 344 150 l 2
 360 150 372 136 369 120 c 2
 355 30 l 2
 352 14 336 0 320 0 c 2
 140 0 l 2
 70 0 43 32 43 73 c 0
 43 79 43 84 44 90 c 2
 89 370 l 2
 92 390 89 397 82 397 c 1
 76 396 70 395 68 395 c 0
 57 395 53 403 51 415 c 2
 41 480 l 1
 41 480 39 497 40 505 c 0
EndSplineSet
Colour: ffff00
EndChar

StartChar: uni0E26
Encoding: 3622 3622 29
Width: 775
VWidth: 0
Flags: HMW
LayerCount: 4
Layer: 2
SplineSet
42 520 m 1
 42 520 216 620 418 620 c 0
 613 620 732 550 732 412 c 0
 732 399 731 385 729 370 c 2
 632 -240 l 1
 362 -240 l 1
 459 370 l 2
 460 377 461 383 461 389 c 0
 461 424 440 440 390 440 c 0
 377 440 358 439 336 437 c 1
 349 423 358 403 358 377 c 0
 358 372 358 366 357 360 c 2
 314 90 l 2
 306 42 270 0 190 0 c 2
 -20 0 l 1
 4 150 l 1
 64 150 l 1
 99 370 l 2
 102 391 99 399 90 399 c 1
 77 396 64 393 52 390 c 1
 42 520 l 1
EndSplineSet
Layer: 3
SplineSet
40 505 m 0
 42 517 51 527 65 535 c 1
 65 535 230 620 418 620 c 0
 613 620 732 550 732 412 c 0
 732 399 731 385 729 370 c 2
 638 -200 l 2
 635 -222 614 -240 592 -240 c 2
 402 -240 l 2
 382 -240 368 -225 368 -206 c 0
 368 -204 368 -202 368 -200 c 2
 459 370 l 2
 460 377 461 383 461 389 c 0
 461 424 440 440 390 440 c 0
 376 440 357 439 336 437 c 1
 349 423 359 404 359 379 c 0
 359 373 358 367 357 360 c 2
 314 90 l 2
 306 42 270 0 190 0 c 2
 10 0 l 2
 -6 0 -18 14 -15 30 c 2
 -1 120 l 2
 2 136 18 150 34 150 c 2
 64 150 l 1
 99 370 l 2
 102 391 98 399 90 399 c 1
 84 398 72 395 68 395 c 0
 57 395 53 403 51 415 c 2
 41 480 l 1
 41 480 39 497 40 505 c 0
EndSplineSet
Colour: ffff00
EndChar

StartChar: uni0E27
Encoding: 3623 3623 30
Width: 650
VWidth: 0
Flags: HMW
LayerCount: 4
Layer: 2
SplineSet
608 300 m 0
 580 123 421 -20 207 -20 c 0
 38 -20 -32 50 -32 50 c 1
 73 210 l 1
 93 196 120 180 189 180 c 0
 258 180 316 227 328 300 c 0
 329 308 330 316 330 323 c 0
 330 383 288 420 227 420 c 0
 158 420 126 404 102 390 c 1
 47 550 l 1
 47 550 139 620 308 620 c 0
 501 620 612 504 612 352 c 0
 612 335 611 318 608 300 c 0
EndSplineSet
Layer: 3
SplineSet
608 300 m 0
 580 123 421 -20 207 -20 c 0
 84 -20 29 13 13 20 c 0
 -4 27 -20 40 -20 56 c 0
 -20 70 -11 81 -6 90 c 2
 49 180 l 2
 56 192 63 205 77 205 c 0
 93 205 102 193 134 185 c 0
 147 182 165 180 189 180 c 0
 258 180 316 227 328 300 c 0
 329 308 330 316 330 323 c 0
 330 383 288 420 227 420 c 0
 203 420 184 418 171 415 c 0
 137 407 124 395 108 395 c 0
 94 395 90 408 87 420 c 2
 61 510 l 2
 58 519 54 528 56 540 c 0
 59 558 82 572 102 580 c 0
 120 587 185 620 308 620 c 0
 501 620 612 504 612 352 c 0
 612 335 611 318 608 300 c 0
EndSplineSet
Colour: ffff00
EndChar

StartChar: uni0E28
Encoding: 3624 3624 31
Width: 800
VWidth: 0
Flags: HMW
LayerCount: 4
Layer: 2
SplineSet
-20 0 m 1
 39 370 l 2
 65 536 214 620 428 620 c 0
 512 620 569 597 602 578 c 1
 625 602 641 636 648 680 c 1
 848 680 l 1
 835 600 784 532 709 488 c 1
 727 463 741 430 741 393 c 0
 741 385 740 378 739 370 c 2
 680 0 l 1
 410 0 l 1
 467 360 l 2
 468 365 468 370 468 374 c 0
 468 412 438 430 398 430 c 0
 354 430 315 408 307 360 c 2
 296 290 l 1
 318 317 345 340 374 340 c 0
 396 340 403 335 412 330 c 1
 385 160 l 1
 377 162 367 165 351 165 c 0
 317 165 287 145 270 124 c 1
 250 0 l 1
 -20 0 l 1
EndSplineSet
Layer: 3
SplineSet
-14 40 m 2
 39 370 l 2
 65 536 214 620 428 620 c 0
 511 620 568 598 601 578 c 1
 625 604 638 634 641 650 c 0
 644 666 660 680 676 680 c 2
 813 680 l 2
 827 680 838 669 838 655 c 0
 838 593 777 528 709 488 c 1
 727 463 741 430 741 393 c 0
 741 385 740 378 739 370 c 2
 686 40 l 2
 683 18 662 0 640 0 c 2
 450 0 l 2
 430 0 416 15 416 34 c 0
 416 36 416 38 416 40 c 2
 467 360 l 2
 468 365 468 370 468 374 c 0
 468 412 438 430 398 430 c 0
 354 430 315 408 307 360 c 2
 296 290 l 1
 318 317 345 340 374 340 c 0
 385 340 392 338 398 335 c 0
 407 330 410 319 409 310 c 2
 388 175 l 2
 387 167 378 162 371 163 c 0
 365 164 359 165 346 165 c 0
 315 165 286 146 270 125 c 1
 256 40 l 2
 253 18 232 0 210 0 c 2
 20 0 l 2
 0 0 -14 15 -14 34 c 0
 -14 36 -14 38 -14 40 c 2
EndSplineSet
Colour: ffff00
EndChar

StartChar: uni0E29
Encoding: 3625 3625 32
Width: 830
VWidth: -360
Flags: HMW
LayerCount: 4
Layer: 2
SplineSet
21 230 m 2
 80 600 l 1
 350 600 l 1
 293 240 l 2
 292 235 292 230 292 226 c 0
 292 188 322 170 362 170 c 0
 406 170 445 192 453 240 c 2
 461 290 l 1
 361 290 l 1
 383 430 l 1
 483 430 l 1
 510 600 l 1
 770 600 l 1
 743 430 l 1
 823 430 l 1
 801 290 l 1
 731 290 l 1
 721 230 l 2
 695 64 546 -20 332 -20 c 0
 137 -20 18 50 18 188 c 0
 18 201 19 215 21 230 c 2
EndSplineSet
Layer: 3
SplineSet
21 230 m 2
 74 560 l 2
 77 582 98 600 120 600 c 2
 320 600 l 2
 340 600 354 585 354 566 c 0
 354 564 354 562 354 560 c 2
 303 240 l 2
 302 234 301 227 301 222 c 0
 301 186 324 170 362 170 c 0
 406 170 445 192 453 240 c 2
 461 290 l 1
 391 290 l 2
 376 290 366 301 366 315 c 0
 366 317 366 318 366 320 c 2
 378 400 l 2
 381 416 397 429 413 430 c 2
 483 430 l 1
 504 560 l 2
 507 582 528 600 550 600 c 2
 730 600 l 2
 750 600 764 585 764 566 c 0
 764 564 764 562 764 560 c 2
 743 430 l 1
 793 430 l 2
 809 429 821 416 818 400 c 2
 806 320 l 2
 803 304 788 290 771 290 c 2
 731 290 l 1
 721 230 l 2
 695 64 546 -20 332 -20 c 0
 137 -20 18 50 18 188 c 0
 18 201 19 215 21 230 c 2
EndSplineSet
Colour: ffff00
EndChar

StartChar: uni0E2B
Encoding: 3627 3627 33
Width: 740
VWidth: -360
Flags: HMW
LayerCount: 4
Layer: 2
SplineSet
-10 0 m 1
 85 600 l 1
 355 600 l 1
 328 430 l 1
 383 430 l 1
 475 600 l 1
 735 600 l 1
 733 590 l 1
 612 410 l 1
 657 382 660 327 664 280 c 1
 670 0 l 1
 380 0 l 1
 390 190 l 1
 391 199 391 207 391 215 c 0
 391 257 380 280 334 280 c 2
 304 280 l 1
 260 0 l 1
 -10 0 l 1
EndSplineSet
Layer: 3
SplineSet
-4 40 m 2
 79 560 l 2
 82 582 103 600 125 600 c 2
 315 600 l 2
 335 600 349 585 349 566 c 0
 349 564 349 562 349 560 c 2
 328 430 l 1
 383 430 l 1
 454 560 l 2
 469 587 486 600 515 600 c 2
 685 600 l 2
 708 600 721 591 721 578 c 0
 721 572 719 566 714 560 c 2
 612 410 l 1
 657 382 660 327 664 280 c 1
 668 85 l 2
 668 79 671 54 671 39 c 0
 671 35 670 32 670 30 c 0
 668 15 652 0 627 0 c 2
 419 0 l 2
 390 0 380 12 381 40 c 2
 390 190 l 2
 391 199 391 207 391 215 c 0
 391 257 380 280 334 280 c 2
 304 280 l 1
 266 40 l 2
 263 18 242 0 220 0 c 2
 30 0 l 2
 10 0 -4 15 -4 34 c 0
 -4 36 -4 38 -4 40 c 2
EndSplineSet
Colour: ffff00
EndChar

StartChar: uni0E1E
Encoding: 3614 3614 34
Width: 1050
VWidth: 0
UnlinkRmOvrlpSave: 1
Flags: HMW
LayerCount: 4
Layer: 2
SplineSet
45 600 m 1
 330 600 l 1
 333 270 l 1
 331 230 l 1
 341 230 l 1
 353 270 l 1
 485 600 l 1
 560 600 l 1
 635 600 l 1
 663 270 l 1
 661 230 l 1
 671 230 l 1
 683 270 l 1
 790 600 l 1
 1075 600 l 1
 810 0 l 1
 530 0 l 1
 505 250 l 1
 400 0 l 1
 120 0 l 1
 45 600 l 1
EndSplineSet
Layer: 3
SplineSet
47 580 m 0
 49 595 65 600 95 600 c 2
 295 600 l 2
 324 600 333 587 334 560 c 2
 333 270 l 1
 331 230 l 1
 341 230 l 1
 353 270 l 1
 469 560 l 2
 478 584 486 600 515 600 c 2
 560 600 l 1
 605 600 l 2
 634 600 638 584 639 560 c 2
 663 270 l 1
 661 230 l 1
 671 230 l 1
 683 270 l 1
 774 560 l 2
 783 587 796 600 825 600 c 2
 1025 600 l 2
 1053 600 1067 596 1067 583 c 0
 1067 576 1062 566 1059 560 c 2
 826 40 l 2
 817 19 805 0 775 0 c 2
 565 0 l 2
 538 0 530 16 526 40 c 1
 505 250 l 1
 416 40 l 1
 404 16 392 0 365 0 c 2
 155 0 l 2
 125 0 119 19 116 40 c 2
 49 560 l 2
 48 565 46 575 47 580 c 0
EndSplineSet
Colour: ffff00
EndChar

StartChar: uni0E1F
Encoding: 3615 3615 35
Width: 1040
VWidth: -360
Flags: HMW
LayerCount: 4
Layer: 2
SplineSet
45 600 m 1
 330 600 l 1
 333 270 l 1
 331 230 l 1
 341 230 l 1
 353 270 l 1
 485 600 l 1
 560 600 l 1
 635 600 l 1
 663 270 l 1
 661 230 l 1
 671 230 l 1
 683 270 l 1
 843 840 l 1
 1113 840 l 1
 820 0 l 1
 530 0 l 1
 505 250 l 1
 400 0 l 1
 120 0 l 1
 45 600 l 1
EndSplineSet
Layer: 3
SplineSet
47 580 m 0
 49 595 65 600 95 600 c 2
 295 600 l 2
 324 600 333 587 334 560 c 2
 333 270 l 1
 331 230 l 1
 341 230 l 1
 353 270 l 1
 469 560 l 2
 478 584 486 600 515 600 c 2
 560 600 l 1
 605 600 l 2
 634 600 638 584 639 560 c 2
 663 270 l 1
 661 230 l 1
 671 230 l 1
 683 270 l 1
 832 800 l 1
 841 827 854 840 883 840 c 2
 1063 840 l 2
 1091 840 1105 836 1105 823 c 0
 1105 813 1097 796 1095 790 c 2
 836 40 l 2
 828 18 815 0 785 0 c 2
 565 0 l 2
 538 0 530 16 526 40 c 1
 505 250 l 1
 416 40 l 1
 404 16 392 0 365 0 c 2
 155 0 l 2
 125 0 119 19 116 40 c 2
 49 560 l 2
 48 565 46 575 47 580 c 0
EndSplineSet
Colour: ffff00
EndChar

StartChar: uni0E1D
Encoding: 3613 3613 36
Width: 930
VWidth: 0
Flags: HMW
LayerCount: 4
Layer: 2
SplineSet
18 300 m 0
 45 471 169 610 347 610 c 0
 401 610 446 599 472 580 c 1
 406 415 l 1
 397 418 388 420 377 420 c 0
 334 420 301 380 288 300 c 0
 286 288 285 278 285 268 c 0
 285 239 293 217 306 203 c 1
 420 350 l 1
 465 350 l 1
 510 350 l 1
 574 213 l 1
 673 840 l 1
 943 840 l 1
 810 0 l 1
 510 0 l 1
 434 150 l 1
 310 0 l 1
 150 0 l 1
 88 19 13 104 13 238 c 0
 13 257 15 278 18 300 c 0
EndSplineSet
Layer: 3
SplineSet
18 300 m 0
 45 471 169 610 347 610 c 0
 401 610 441 598 453 590 c 0
 461 585 466 576 464 562 c 0
 463 556 458 545 458 545 c 1
 416 440 l 2
 410 425 393 420 377 420 c 0
 334 420 301 380 288 300 c 0
 286 288 285 278 285 268 c 0
 285 239 293 217 306 203 c 1
 389 310 l 2
 412 339 423 350 440 350 c 2
 465 350 l 1
 490 350 l 2
 507 350 516 339 529 310 c 2
 574 213 l 1
 667 800 l 2
 670 822 691 840 713 840 c 2
 903 840 l 2
 923 840 937 825 937 806 c 0
 937 804 937 802 937 800 c 2
 816 40 l 2
 813 18 792 0 770 0 c 2
 540 0 l 2
 514 0 500 16 489 40 c 2
 434 150 l 1
 343 40 l 2
 324 16 306 0 280 0 c 2
 280 0 199 0 170 0 c 0
 98 0 13 102 13 243 c 0
 13 261 15 280 18 300 c 0
EndSplineSet
Colour: ffff00
EndChar

StartChar: uni0E1C
Encoding: 3612 3612 37
Width: 920
VWidth: 0
Flags: HMW
LayerCount: 4
Layer: 2
SplineSet
18 300 m 0
 45 471 169 610 347 610 c 0
 401 610 446 599 472 580 c 1
 406 415 l 1
 397 418 388 420 377 420 c 0
 334 420 301 380 288 300 c 0
 286 288 285 278 285 268 c 0
 285 239 293 217 306 203 c 1
 420 350 l 1
 465 350 l 1
 510 350 l 1
 574 213 l 1
 635 600 l 1
 905 600 l 1
 810 0 l 1
 510 0 l 1
 434 150 l 1
 310 0 l 1
 150 0 l 1
 88 19 13 104 13 238 c 0
 13 257 15 278 18 300 c 0
EndSplineSet
Layer: 3
SplineSet
18 300 m 0
 45 471 169 610 347 610 c 0
 401 610 441 598 453 590 c 0
 461 585 466 576 464 562 c 0
 463 556 458 545 458 545 c 1
 416 440 l 2
 410 425 393 420 377 420 c 0
 334 420 301 380 288 300 c 0
 286 288 285 278 285 268 c 0
 285 239 293 217 306 203 c 1
 389 310 l 2
 412 339 423 350 440 350 c 2
 465 350 l 1
 490 350 l 2
 507 350 516 339 529 310 c 2
 574 213 l 1
 629 560 l 2
 632 582 653 600 675 600 c 2
 865 600 l 2
 885 600 899 585 899 566 c 0
 899 564 899 562 899 560 c 2
 816 40 l 2
 813 18 792 0 770 0 c 2
 540 0 l 2
 514 0 500 16 489 40 c 2
 434 150 l 1
 343 40 l 2
 324 16 306 0 280 0 c 2
 280 0 199 0 170 0 c 0
 98 0 13 102 13 243 c 0
 13 261 15 280 18 300 c 0
EndSplineSet
Colour: ffff00
EndChar

StartChar: uni0E25
Encoding: 3621 3621 38
Width: 740
VWidth: 0
Flags: HMW
LayerCount: 4
Layer: 2
SplineSet
-1 180 m 0
 16 288 103 370 249 370 c 0
 346 370 396 335 419 311 c 1
 427 360 l 2
 428 365 428 370 428 375 c 0
 428 424 381 440 310 440 c 0
 232 440 150 416 103 400 c 1
 67 550 l 1
 67 550 206 620 408 620 c 0
 600 620 703 552 703 418 c 0
 703 403 702 387 699 370 c 2
 640 0 l 1
 370 0 l 1
 403 208 l 1
 387 222 368 230 336 230 c 0
 304 230 275 215 269 180 c 0
 268 177 268 173 268 170 c 0
 268 142 292 130 321 130 c 0
 332 130 342 132 351 135 c 1
 334 25 l 1
 299 6 251 -10 188 -10 c 0
 58 -10 -4 55 -4 145 c 0
 -4 156 -3 168 -1 180 c 0
EndSplineSet
Layer: 3
SplineSet
-1 180 m 4
 16 288 103 370 249 370 c 4
 346 370 396 335 419 311 c 5
 427 360 l 6
 428 365 428 370 428 375 c 0
 428 424 381 440 310 440 c 4
 261 440 199 427 166 415 c 4
 152 410 127 400 114 400 c 4
 99 400 97 418 94 430 c 6
 76 510 l 5
 76 510 73 522 75 535 c 4
 77 550 83 558 99 565 c 4
 112 570 232 620 408 620 c 4
 600 620 703 552 703 418 c 0
 703 403 702 387 699 370 c 6
 646 40 l 6
 643 18 622 0 600 0 c 6
 410 0 l 6
 390 0 376 15 376 34 c 0
 376 36 376 38 376 40 c 6
 403 208 l 5
 387 222 368 230 336 230 c 4
 304 230 275 215 269 180 c 4
 268 176 268 172 268 169 c 0
 268 139 291 130 311 130 c 4
 327 130 335 135 341 135 c 4
 347 135 351 132 349 120 c 6
 336 40 l 6
 334 25 318 16 302 10 c 4
 271 -1 232 -10 188 -10 c 4
 58 -10 -4 55 -4 145 c 0
 -4 156 -3 168 -1 180 c 4
EndSplineSet
Colour: ffff00
EndChar

StartChar: uni0E2A
Encoding: 3626 3626 39
Width: 760
VWidth: 0
Flags: HMW
LayerCount: 4
Layer: 2
SplineSet
-1 180 m 0
 16 288 103 370 249 370 c 0
 346 370 396 335 419 311 c 1
 427 360 l 2
 428 365 428 370 428 375 c 0
 428 424 381 440 310 440 c 0
 232 440 150 416 103 400 c 1
 67 550 l 1
 67 550 206 620 408 620 c 0
 481 620 533 600 565 582 c 1
 586 606 601 638 608 680 c 1
 808 680 l 1
 795 599 743 531 668 487 c 1
 685 466 701 435 701 394 c 0
 701 386 700 379 699 370 c 2
 640 0 l 1
 370 0 l 1
 403 208 l 1
 387 222 368 230 336 230 c 0
 304 230 275 215 269 180 c 0
 268 177 268 173 268 170 c 0
 268 142 292 130 321 130 c 0
 332 130 342 132 351 135 c 1
 334 25 l 1
 299 6 251 -10 188 -10 c 0
 58 -10 -4 55 -4 145 c 0
 -4 156 -3 168 -1 180 c 0
EndSplineSet
Layer: 3
SplineSet
-1 180 m 4
 16 288 103 370 249 370 c 4
 346 370 396 335 419 311 c 5
 427 360 l 6
 428 365 428 370 428 375 c 0
 428 424 381 440 310 440 c 4
 261 440 199 427 166 415 c 4
 152 410 127 400 114 400 c 4
 99 400 97 418 94 430 c 6
 76 510 l 5
 76 510 73 522 75 535 c 4
 77 550 83 558 99 565 c 4
 112 570 232 620 408 620 c 4
 480 620 532 601 564 582 c 5
 586 607 599 635 601 650 c 4
 604 666 620 680 636 680 c 6
 773 680 l 6
 787 680 798 669 798 655 c 0
 798 592 737 527 668 487 c 5
 685 466 701 435 701 394 c 0
 701 386 700 379 699 370 c 6
 646 40 l 6
 643 18 622 0 600 0 c 6
 410 0 l 6
 390 0 376 15 376 34 c 0
 376 36 376 38 376 40 c 6
 403 208 l 5
 387 222 368 230 336 230 c 4
 304 230 275 215 269 180 c 4
 268 176 268 172 268 169 c 0
 268 139 291 130 311 130 c 4
 327 130 335 135 341 135 c 4
 347 135 351 132 349 120 c 6
 336 40 l 6
 334 25 318 16 302 10 c 4
 271 -1 232 -10 188 -10 c 4
 58 -10 -4 55 -4 145 c 0
 -4 156 -3 168 -1 180 c 4
EndSplineSet
Colour: ffff00
EndChar

StartChar: uni0E2C
Encoding: 3628 3628 40
Width: 1040
VWidth: -360
Flags: HMW
LayerCount: 4
Layer: 2
SplineSet
45 600 m 1
 330 600 l 1
 333 270 l 1
 331 230 l 1
 341 230 l 1
 353 270 l 1
 485 600 l 1
 560 600 l 1
 635 600 l 1
 663 270 l 1
 661 230 l 1
 671 230 l 1
 683 270 l 1
 724 400 l 1
 724 400 732 429 735 445 c 0
 736 449 736 453 736 458 c 0
 736 471 733 485 718 490 c 1
 765 600 l 1
 829 600 896 608 912 710 c 1
 1112 710 l 1
 1091 580 979 521 912 500 c 1
 952 489 980 462 980 419 c 0
 980 413 979 406 978 400 c 0
 973 367 943 300 943 300 c 1
 810 0 l 1
 530 0 l 1
 505 250 l 1
 400 0 l 1
 120 0 l 1
 45 600 l 1
EndSplineSet
Layer: 3
SplineSet
47 580 m 0
 49 595 65 600 95 600 c 2
 295 600 l 2
 324 600 333 587 334 560 c 2
 333 270 l 1
 331 230 l 1
 341 230 l 1
 353 270 l 1
 469 560 l 2
 478 584 486 600 515 600 c 2
 560 600 l 1
 605 600 l 2
 634 600 638 584 639 560 c 2
 663 270 l 1
 661 230 l 1
 671 230 l 1
 683 270 l 1
 724 400 l 1
 724 400 732 429 735 445 c 0
 736 450 736 456 736 460 c 0
 736 476 731 485 726 490 c 1
 726 490 721 493 723 503 c 0
 724 508 734 530 734 530 c 1
 760 590 l 2
 764 598 768 600 779 600 c 0
 827 600 882 610 906 680 c 0
 911 694 923 710 942 710 c 2
 1077 710 l 2
 1091 710 1103 699 1103 685 c 0
 1103 588 973 519 913 499 c 1
 952 488 980 462 980 419 c 0
 980 413 979 406 978 400 c 0
 973 367 943 300 943 300 c 1
 826 40 l 2
 817 19 805 0 775 0 c 2
 565 0 l 2
 538 0 530 16 526 40 c 1
 505 250 l 1
 416 40 l 1
 404 16 392 0 365 0 c 2
 155 0 l 2
 125 0 119 19 116 40 c 2
 49 560 l 2
 48 565 46 575 47 580 c 0
EndSplineSet
Colour: ffff00
EndChar

StartChar: uni0E22
Encoding: 3618 3618 41
Width: 775
VWidth: -360
Flags: HMW
LayerCount: 4
Layer: 2
SplineSet
0 190 m 0
 10 250 43 289 90 314 c 1
 56 336 36 367 36 408 c 0
 36 415 37 423 38 430 c 0
 53 525 141 610 287 610 c 0
 352 610 394 593 421 575 c 1
 404 465 l 1
 395 467 375 470 364 470 c 0
 332 470 303 460 297 425 c 0
 296 422 296 419 296 416 c 0
 296 388 321 380 350 380 c 2
 390 380 l 1
 387 360 l 1
 374 280 l 1
 371 260 l 1
 315 260 268 245 262 205 c 0
 262 202 261 199 261 197 c 0
 261 163 299 150 344 150 c 0
 388 150 427 172 435 220 c 2
 495 600 l 1
 765 600 l 1
 706 230 l 2
 680 64 531 -20 317 -20 c 0
 99 -20 -2 71 -2 168 c 0
 -2 175 -1 183 0 190 c 0
EndSplineSet
Layer: 3
SplineSet
0 190 m 0
 10 250 43 289 90 314 c 1
 56 336 36 367 36 408 c 0
 36 415 37 423 38 430 c 0
 53 524 139 610 287 610 c 0
 331 610 366 601 393 590 c 0
 407 584 421 575 419 560 c 2
 406 480 l 2
 404 468 400 465 394 465 c 0
 388 465 380 470 364 470 c 0
 342 470 303 465 297 425 c 0
 296 422 296 419 296 416 c 0
 296 388 321 380 350 380 c 2
 360 380 l 2
 376 380 388 366 385 350 c 2
 376 290 l 2
 373 274 357 261 341 260 c 0
 300 257 267 238 262 205 c 0
 262 203 262 201 262 199 c 0
 262 169 299 150 344 150 c 0
 388 150 427 172 435 220 c 2
 489 560 l 2
 492 582 513 600 535 600 c 2
 725 600 l 2
 745 600 759 585 759 566 c 0
 759 564 759 562 759 560 c 2
 706 230 l 2
 680 64 531 -20 317 -20 c 0
 99 -20 -2 71 -2 168 c 0
 -2 175 -1 183 0 190 c 0
EndSplineSet
Colour: ffff00
EndChar

StartChar: uni0E10
Encoding: 3600 3600 42
Width: 740
VWidth: 0
Flags: HMW
LayerCount: 4
Layer: 2
SplineSet
47 550 m 1
 47 550 176 620 378 620 c 0
 434 620 473 608 500 595 c 1
 570 635 671 680 768 680 c 1
 741 510 l 1
 689 510 649 505 619 498 c 1
 645 467 673 415 673 352 c 0
 673 342 673 331 671 320 c 0
 644 149 493 -10 308 -10 c 0
 178 -10 130 0 130 0 c 1
 80 190 l 1
 20 190 l 1
 44 340 l 1
 234 340 l 2
 276 340 290 320 296 290 c 2
 320 168 l 1
 356 186 387 233 399 310 c 0
 401 320 401 330 401 339 c 0
 401 405 359 440 280 440 c 0
 208 440 130 416 83 400 c 1
 47 550 l 1
-60 -190 m 1
 29 -70 l 1
 29 -70 49 -110 103 -110 c 0
 184 -110 230 -60 230 -60 c 1
 310 -60 l 1
 387 -144 l 1
 400 -60 l 1
 580 -60 l 1
 552 -240 l 1
 402 -240 l 1
 372 -240 l 1
 332 -240 l 1
 271 -181 l 1
 212 -226 144 -250 80 -250 c 0
 -18 -250 -60 -190 -60 -190 c 1
EndSplineSet
Layer: 3
SplineSet
55 535 m 0
 57 550 63 558 79 565 c 0
 92 570 202 620 378 620 c 0
 434 620 474 608 501 595 c 1
 565 633 661 678 737 678 c 0
 753 678 766 664 763 648 c 2
 746 540 l 2
 743 524 727 510 711 510 c 0
 674 510 643 506 618 499 c 1
 644 468 673 416 673 352 c 0
 673 342 673 331 671 320 c 0
 644 149 493 -10 308 -10 c 0
 227 -10 206 -7 158 -3 c 0
 133 -1 122 27 119 40 c 2
 80 190 l 1
 50 190 l 2
 34 190 22 204 25 220 c 2
 39 310 l 2
 42 326 58 340 74 340 c 2
 234 340 l 2
 276 340 290 320 296 290 c 2
 320 168 l 1
 356 186 387 233 399 310 c 0
 401 320 401 330 401 339 c 0
 401 405 359 440 280 440 c 0
 224 440 170 427 147 420 c 0
 133 416 108 405 95 405 c 0
 80 405 78 423 75 435 c 2
 56 510 l 1
 56 510 53 522 55 535 c 0
-55 -190 m 0
 -54 -181 -47 -173 -43 -167 c 2
 6 -101 l 2
 14 -90 22 -80 32 -80 c 0
 41 -80 49 -89 51 -90 c 0
 56 -93 79 -110 108 -110 c 0
 172 -110 208 -79 219 -70 c 0
 226 -65 232 -60 240 -60 c 2
 295 -60 l 2
 304 -60 308 -63 314 -70 c 2
 387 -146 l 1
 396 -90 l 2
 399 -74 414 -60 430 -60 c 2
 550 -60 l 2
 566 -60 579 -74 576 -90 c 2
 557 -210 l 2
 554 -226 538 -240 522 -240 c 2
 402 -240 l 1
 372 -240 l 1
 342 -240 l 2
 331 -240 328 -239 319 -230 c 2
 270 -181 l 1
 211 -226 144 -250 80 -250 c 0
 8 -250 -32 -219 -43 -210 c 0
 -50 -204 -56 -199 -55 -190 c 0
EndSplineSet
Colour: ffff00
EndChar

StartChar: uni0E23
Encoding: 3619 3619 43
Width: 630
VWidth: 0
Flags: HMW
LayerCount: 4
Layer: 2
SplineSet
627 550 m 1
 535 410 l 1
 503 439 420 465 379 465 c 0
 345 465 319 457 319 431 c 0
 319 414 337 405 363 395 c 0
 386 386 421 372 447 360 c 0
 496 337 562 296 562 216 c 0
 562 208 561 199 560 190 c 0
 540 63 414 -20 247 -20 c 0
 110 -20 37 16 -12 50 c 1
 80 190 l 1
 108 162 181 135 221 135 c 0
 257 135 286 143 286 168 c 0
 286 185 265 195 242 205 c 0
 221 214 183 230 158 240 c 0
 106 261 33 299 33 384 c 0
 33 392 34 400 35 409 c 0
 58 555 212 620 358 620 c 0
 474 620 573 584 627 550 c 1
EndSplineSet
Layer: 3
SplineSet
560 190 m 0
 540 63 414 -20 247 -20 c 0
 114 -20 47 17 29 25 c 0
 11 32 0 44 -0 57 c 0
 0 69 8 81 14 90 c 2
 55 155 l 1
 62 167 72 175 83 175 c 0
 94 175 106 167 120 160 c 0
 151 145 184 135 221 135 c 0
 257 135 286 143 286 168 c 0
 286 185 265 195 242 205 c 0
 221 214 183 230 158 240 c 0
 106 261 33 299 33 384 c 0
 33 392 34 400 35 409 c 0
 58 555 212 620 358 620 c 0
 480 620 568 580 586 572 c 0
 602 565 611 556 611 542 c 0
 611 540 610 537 610 535 c 0
 608 523 599 509 594 500 c 2
 555 440 l 2
 548 428 541 417 526 417 c 0
 512 417 496 433 475 442 c 0
 449 454 410 465 379 465 c 0
 345 465 319 457 319 431 c 0
 319 414 337 405 363 395 c 0
 386 386 421 372 447 360 c 0
 496 337 562 296 562 216 c 0
 562 208 561 199 560 190 c 0
EndSplineSet
Colour: ffff00
EndChar

StartChar: uni0E18
Encoding: 3608 3608 44
Width: 720
VWidth: -360
Flags: HMW
LayerCount: 4
Layer: 2
SplineSet
47 420 m 0
 66 540 202 620 378 620 c 0
 554 620 660 570 687 550 c 1
 607 420 l 1
 542 453 443 470 384 470 c 0
 359 470 331 466 331 446 c 0
 331 428 351 426 367 420 c 0
 392 411 509 379 539 370 c 0
 609 347 662 305 662 219 c 0
 662 207 661 194 659 180 c 0
 639 55 496 -20 327 -20 c 0
 158 -20 35 30 8 50 c 1
 40 250 l 1
 221 250 l 1
 194 257 169 265 153 270 c 0
 84 293 45 327 45 391 c 0
 45 400 45 410 47 420 c 0
261 133 m 1
 282 131 301 130 316 130 c 0
 362 130 392 141 396 165 c 0
 396 167 397 170 397 172 c 0
 397 201 366 213 335 220 c 0
 324 223 303 228 277 235 c 1
 261 133 l 1
EndSplineSet
Layer: 3
SplineSet
47 420 m 0
 66 540 202 620 378 620 c 0
 542 620 633 579 641 575 c 0
 663 565 675 555 675 540 c 0
 675 538 675 537 675 535 c 0
 673 523 664 509 659 500 c 2
 626 450 l 2
 619 438 607 425 592 425 c 0
 578 425 562 436 535 445 c 0
 499 457 443 470 384 470 c 0
 359 470 331 466 331 446 c 0
 331 428 351 426 367 420 c 0
 392 411 509 379 539 370 c 0
 609 347 662 305 662 219 c 0
 662 207 661 194 659 180 c 0
 639 55 496 -20 327 -20 c 0
 158 -20 5 30 11 70 c 2
 33 210 l 2
 36 232 58 250 80 250 c 2
 221 250 l 1
 194 257 169 265 153 270 c 0
 84 293 45 327 45 391 c 0
 45 400 45 410 47 420 c 0
261 133 m 1
 282 131 301 130 316 130 c 0
 362 130 392 141 396 165 c 0
 396 167 397 170 397 172 c 0
 397 201 366 213 335 220 c 0
 324 223 303 228 277 235 c 1
 261 133 l 1
EndSplineSet
Colour: ffff00
EndChar

StartChar: uni0E0E
Encoding: 3598 3598 45
Width: 775
VWidth: 0
Flags: HMW
LayerCount: 4
Layer: 2
SplineSet
42 520 m 1
 42 520 216 620 418 620 c 0
 613 620 732 550 732 412 c 0
 732 399 731 385 729 370 c 2
 632 -240 l 1
 392 -240 l 1
 392 -240 291 -190 150 -190 c 0
 52 -190 -18 -240 -18 -240 c 1
 -37 -110 l 1
 -37 -110 22 -50 162 -50 c 0
 264 -50 338 -79 384 -104 c 1
 459 370 l 2
 460 377 461 383 461 389 c 0
 461 424 440 440 390 440 c 0
 377 440 358 439 336 437 c 1
 349 423 358 403 358 377 c 0
 358 372 358 366 357 360 c 2
 314 90 l 2
 306 42 270 0 190 0 c 2
 -20 0 l 1
 4 150 l 1
 64 150 l 1
 99 370 l 2
 102 391 99 399 90 399 c 1
 77 396 64 393 52 390 c 1
 42 520 l 1
EndSplineSet
Layer: 3
SplineSet
40 505 m 0
 42 517 51 527 65 535 c 1
 65 535 230 620 418 620 c 0
 613 620 732 550 732 412 c 0
 732 399 731 385 729 370 c 2
 638 -200 l 2
 635 -222 614 -240 592 -240 c 2
 392 -240 l 1
 392 -240 291 -190 150 -190 c 0
 83 -190 31 -214 18 -220 c 0
 15 -222 0 -230 -6 -230 c 0
 -16 -230 -23 -225 -24 -215 c 2
 -36 -135 l 2
 -37 -129 -39 -120 -38 -114 c 0
 -36 -103 -26 -96 -14 -90 c 0
 -1 -83 55 -50 162 -50 c 0
 264 -50 338 -79 384 -104 c 1
 459 370 l 2
 460 377 461 383 461 389 c 0
 461 424 440 440 390 440 c 0
 376 440 357 439 336 437 c 1
 349 423 359 404 359 379 c 0
 359 373 358 367 357 360 c 2
 314 90 l 2
 306 42 270 0 190 0 c 2
 10 0 l 2
 -6 0 -18 14 -15 30 c 2
 -1 120 l 2
 2 136 18 150 34 150 c 2
 64 150 l 1
 99 370 l 2
 102 391 98 399 90 399 c 1
 84 398 72 395 68 395 c 0
 57 395 53 403 51 415 c 2
 41 480 l 1
 41 480 39 497 40 505 c 0
EndSplineSet
Colour: ffff00
EndChar

StartChar: uni0E0F
Encoding: 3599 3599 46
Width: 775
VWidth: 0
Flags: HMW
LayerCount: 4
Layer: 2
SplineSet
42 520 m 1
 42 520 216 620 418 620 c 0
 613 620 732 550 732 412 c 0
 732 399 731 385 729 370 c 2
 632 -240 l 1
 412 -240 l 1
 362 -240 l 1
 342 -240 l 1
 281 -181 l 1
 222 -226 154 -250 90 -250 c 0
 -8 -250 -50 -190 -50 -190 c 1
 39 -70 l 1
 39 -70 59 -110 113 -110 c 0
 194 -110 240 -60 240 -60 c 1
 320 -60 l 1
 380 -125 l 1
 459 370 l 2
 460 377 461 383 461 389 c 0
 461 424 440 440 390 440 c 0
 377 440 358 439 336 437 c 1
 349 423 358 403 358 377 c 0
 358 372 358 366 357 360 c 2
 314 90 l 2
 306 42 270 0 190 0 c 2
 -20 0 l 1
 4 150 l 1
 64 150 l 1
 99 370 l 2
 102 391 99 399 90 399 c 1
 77 396 64 393 52 390 c 1
 42 520 l 1
EndSplineSet
Layer: 3
SplineSet
40 505 m 0
 42 517 51 527 65 535 c 1
 65 535 230 620 418 620 c 0
 613 620 732 550 732 412 c 0
 732 399 731 385 729 370 c 2
 638 -200 l 2
 635 -222 614 -240 592 -240 c 2
 412 -240 l 1
 352 -240 l 2
 341 -240 338 -239 329 -230 c 2
 280 -181 l 1
 221 -226 154 -250 90 -250 c 0
 18 -250 -22 -219 -33 -210 c 0
 -40 -204 -46 -199 -45 -190 c 0
 -44 -181 -37 -173 -33 -167 c 2
 16 -101 l 2
 24 -90 32 -80 42 -80 c 0
 51 -80 59 -89 61 -90 c 0
 66 -93 89 -110 118 -110 c 0
 182 -110 218 -79 229 -70 c 0
 236 -65 242 -60 250 -60 c 2
 305 -60 l 2
 314 -60 318 -63 324 -70 c 2
 380 -128 l 1
 459 370 l 2
 460 377 461 383 461 389 c 0
 461 424 440 440 390 440 c 0
 376 440 357 439 336 437 c 1
 349 423 359 404 359 379 c 0
 359 373 358 367 357 360 c 2
 314 90 l 2
 306 42 270 0 190 0 c 2
 10 0 l 2
 -6 0 -18 14 -15 30 c 2
 -1 120 l 2
 2 136 18 150 34 150 c 2
 64 150 l 1
 99 370 l 2
 102 391 98 399 90 399 c 1
 84 398 72 395 68 395 c 0
 57 395 53 403 51 415 c 2
 41 480 l 1
 41 480 39 497 40 505 c 0
EndSplineSet
Colour: ffff00
EndChar

StartChar: uni0E31
Encoding: 3633 3633 47
Width: 0
VWidth: 0
Flags: HMW
LayerCount: 4
Layer: 2
SplineSet
-446 780 m 0
 -437 836 -392 900 -392 900 c 1
 -202 900 l 1
 -232 840 l 1
 43 840 l 1
 19 690 l 1
 -351 690 l 2
 -407 690 -447 716 -447 765 c 0
 -447 770 -447 775 -446 780 c 0
EndSplineSet
Layer: 3
SplineSet
-446 780 m 0
 -440 821 -411 870 -411 870 c 1
 -402 886 -386 900 -366 900 c 2
 -232 900 l 2
 -221 900 -213 893 -213 883 c 0
 -213 879 -214 875 -217 870 c 2
 -232 840 l 1
 13 840 l 2
 29 840 41 826 38 810 c 2
 24 720 l 2
 21 704 5 690 -11 690 c 2
 -351 690 l 2
 -407 690 -447 716 -447 765 c 0
 -447 770 -447 775 -446 780 c 0
EndSplineSet
Colour: ffff00
EndChar

StartChar: uni0E34
Encoding: 3636 3636 48
Width: 0
VWidth: 0
Flags: HMW
LayerCount: 4
Layer: 2
SplineSet
-541 690 m 1
 -517 840 l 1
 -17 840 l 1
 -41 690 l 1
 -541 690 l 1
EndSplineSet
Layer: 3
SplineSet
-536 720 m 2
 -522 810 l 2
 -519 826 -503 840 -487 840 c 2
 -47 840 l 2
 -31 840 -19 826 -22 810 c 2
 -36 720 l 2
 -39 704 -55 690 -71 690 c 2
 -511 690 l 2
 -527 690 -539 704 -536 720 c 2
EndSplineSet
Colour: ffff00
EndChar

StartChar: uni0E35
Encoding: 3637 3637 49
Width: 0
VWidth: 0
Flags: HMW
LayerCount: 4
Layer: 2
SplineSet
-551 690 m 1
 -527 840 l 1
 -297 840 l 2
 -241 840 -223 800 -223 800 c 1
 -204 920 l 1
 -4 920 l 1
 -41 690 l 1
 -551 690 l 1
EndSplineSet
Layer: 3
SplineSet
-546 720 m 2
 -532 810 l 2
 -529 826 -513 840 -497 840 c 2
 -297 840 l 2
 -241 840 -223 800 -223 800 c 1
 -209 890 l 2
 -206 906 -190 920 -174 920 c 2
 -34 920 l 2
 -18 920 -6 906 -9 890 c 2
 -36 720 l 2
 -39 704 -55 690 -71 690 c 2
 -521 690 l 2
 -537 690 -549 704 -546 720 c 2
EndSplineSet
Colour: ffff00
EndChar

StartChar: uni0E36
Encoding: 3638 3638 50
Width: 0
VWidth: 0
Flags: HMW
LayerCount: 4
Layer: 2
SplineSet
-561 690 m 1
 -537 840 l 1
 -337 840 l 2
 -311 840 -294 819 -283 798 c 1
 -283 802 -283 806 -282 810 c 0
 -271 882 -209 930 -123 930 c 0
 -45 930 0 891 -0 830 c 0
 0 823 -1 817 -2 810 c 0
 -13 738 -75 690 -161 690 c 2
 -561 690 l 1
-182 810 m 0
 -182 807 -183 805 -183 802 c 0
 -183 781 -169 770 -148 770 c 0
 -125 770 -106 784 -102 810 c 0
 -102 813 -101 815 -101 818 c 0
 -101 839 -115 850 -135 850 c 0
 -158 850 -178 836 -182 810 c 0
EndSplineSet
Layer: 3
SplineSet
-556 720 m 2
 -542 810 l 2
 -539 826 -523 840 -507 840 c 2
 -337 840 l 2
 -311 840 -294 819 -283 798 c 1
 -283 802 -283 806 -282 810 c 0
 -271 882 -209 930 -123 930 c 0
 -45 930 0 891 -0 830 c 0
 0 823 -1 817 -2 810 c 0
 -13 738 -75 690 -161 690 c 2
 -531 690 l 2
 -547 690 -559 704 -556 720 c 2
-182 810 m 0
 -182 807 -183 805 -183 802 c 0
 -183 781 -169 770 -148 770 c 0
 -125 770 -106 784 -102 810 c 0
 -102 813 -101 815 -101 818 c 0
 -101 839 -115 850 -135 850 c 0
 -158 850 -178 836 -182 810 c 0
EndSplineSet
Colour: ffff00
EndChar

StartChar: uni0E37
Encoding: 3639 3639 51
Width: 0
VWidth: 0
Flags: HMW
LayerCount: 4
Layer: 2
SplineSet
-561 690 m 1
 -537 840 l 1
 -427 840 l 2
 -376 840 -363 800 -363 800 c 1
 -344 920 l 1
 -194 920 l 1
 -215 790 l 1
 -165 790 l 1
 -144 920 l 1
 6 920 l 1
 -31 690 l 1
 -561 690 l 1
EndSplineSet
Layer: 3
SplineSet
-556 720 m 2
 -542 810 l 2
 -539 826 -523 840 -507 840 c 2
 -427 840 l 2
 -376 840 -363 800 -363 800 c 1
 -349 890 l 2
 -346 906 -330 920 -314 920 c 2
 -224 920 l 2
 -208 920 -196 906 -199 890 c 2
 -215 790 l 1
 -165 790 l 1
 -149 890 l 2
 -146 906 -130 920 -114 920 c 2
 -24 920 l 2
 -8 920 4 906 1 890 c 2
 -26 720 l 2
 -29 704 -45 690 -61 690 c 2
 -531 690 l 2
 -547 690 -559 704 -556 720 c 2
EndSplineSet
Colour: ffff00
EndChar

StartChar: uni0E4D
Encoding: 3661 3661 52
Width: 0
VWidth: 0
Flags: HMW
LayerCount: 4
Layer: 2
SplineSet
-323 805 m 0
 -310 884 -240 940 -126 940 c 0
 -23 940 29 895 29 828 c 0
 29 821 28 813 27 805 c 0
 14 726 -55 670 -169 670 c 0
 -272 670 -325 715 -325 782 c 0
 -325 789 -324 797 -323 805 c 0
-188 805 m 0
 -189 801 -189 797 -189 794 c 0
 -189 771 -174 760 -155 760 c 0
 -133 760 -113 775 -108 805 c 0
 -107 809 -107 813 -107 816 c 0
 -107 839 -121 850 -140 850 c 0
 -162 850 -183 835 -188 805 c 0
EndSplineSet
Layer: 3
SplineSet
-323 805 m 0
 -310 884 -240 940 -126 940 c 0
 -23 940 29 895 29 828 c 0
 29 821 28 813 27 805 c 0
 14 726 -55 670 -169 670 c 0
 -272 670 -325 715 -325 782 c 0
 -325 789 -324 797 -323 805 c 0
-188 805 m 0
 -189 801 -189 797 -189 794 c 0
 -189 771 -174 760 -155 760 c 0
 -133 760 -113 775 -108 805 c 0
 -107 809 -107 813 -107 816 c 0
 -107 839 -121 850 -140 850 c 0
 -162 850 -183 835 -188 805 c 0
EndSplineSet
Colour: ffff00
EndChar

StartChar: uni0E32
Encoding: 3634 3634 53
Width: 540
VWidth: 0
Flags: HMW
LayerCount: 4
Layer: 2
SplineSet
26 540 m 1
 26 540 121 610 287 610 c 0
 430 610 495 552 495 439 c 0
 495 421 493 401 490 380 c 2
 430 0 l 1
 150 0 l 1
 207 360 l 2
 208 366 208 372 208 377 c 0
 208 402 195 410 165 410 c 0
 129 410 74 394 50 380 c 1
 26 540 l 1
EndSplineSet
Layer: 3
SplineSet
29 530 m 0
 31 542 39 549 59 560 c 1
 59 560 152 610 287 610 c 0
 430 610 495 552 495 439 c 0
 495 421 493 401 490 380 c 2
 436 40 l 2
 433 18 412 0 390 0 c 2
 190 0 l 2
 170 0 156 15 156 34 c 0
 156 36 156 38 156 40 c 2
 207 360 l 2
 208 366 208 372 208 377 c 0
 208 402 195 410 165 410 c 0
 139 410 115 404 93 395 c 0
 83 391 72 385 61 385 c 0
 50 385 46 393 44 405 c 2
 30 505 l 1
 30 505 28 522 29 530 c 0
EndSplineSet
Colour: ffff00
EndChar

StartChar: uni0E38
Encoding: 3640 3640 54
Width: 0
VWidth: 0
Flags: HMW
LayerCount: 4
Layer: 2
SplineSet
-400 -60 m 1
 -210 -60 l 2
 -178 -60 -158 -79 -158 -108 c 0
 -158 -112 -158 -116 -159 -120 c 2
 -184 -280 l 1
 -384 -280 l 1
 -369 -180 l 1
 -419 -180 l 1
 -400 -60 l 1
EndSplineSet
Layer: 3
SplineSet
-404 -90 m 2
 -401 -74 -386 -60 -370 -60 c 2
 -210 -60 l 2
 -178 -60 -158 -79 -158 -108 c 0
 -158 -112 -158 -116 -159 -120 c 2
 -180 -250 l 2
 -183 -266 -198 -280 -214 -280 c 2
 -354 -280 l 2
 -370 -280 -383 -266 -380 -250 c 2
 -369 -180 l 1
 -389 -180 l 2
 -405 -180 -417 -166 -414 -150 c 2
 -404 -90 l 2
EndSplineSet
Colour: ffff00
EndChar

StartChar: uni0E3A
Encoding: 3642 3642 55
Width: 0
VWidth: 0
Flags: HMW
LayerCount: 4
Layer: 2
SplineSet
-350 -60 m 1
 -150 -60 l 1
 -175 -220 l 1
 -375 -220 l 1
 -350 -60 l 1
EndSplineSet
Layer: 3
SplineSet
-354 -90 m 2
 -351 -74 -336 -60 -320 -60 c 2
 -180 -60 l 2
 -164 -60 -151 -74 -154 -90 c 2
 -170 -190 l 2
 -173 -206 -189 -220 -205 -220 c 2
 -345 -220 l 2
 -361 -220 -373 -206 -370 -190 c 2
 -354 -90 l 2
EndSplineSet
Colour: ffff00
EndChar

StartChar: uni0E39
Encoding: 3641 3641 56
Width: 0
VWidth: 0
Flags: HMW
LayerCount: 4
Layer: 2
SplineSet
-620 -60 m 1
 -450 -60 l 2
 -418 -60 -398 -79 -398 -108 c 0
 -398 -112 -398 -116 -399 -120 c 2
 -410 -190 l 1
 -340 -190 l 1
 -320 -60 l 1
 -140 -60 l 1
 -165 -220 l 2
 -171 -255 -204 -280 -264 -280 c 2
 -514 -280 l 2
 -569 -280 -596 -259 -596 -229 c 0
 -596 -226 -596 -223 -595 -220 c 2
 -589 -180 l 1
 -639 -180 l 1
 -620 -60 l 1
EndSplineSet
Layer: 3
SplineSet
-624 -90 m 2
 -621 -74 -606 -60 -590 -60 c 2
 -450 -60 l 2
 -418 -60 -398 -79 -398 -108 c 0
 -398 -112 -398 -116 -399 -120 c 2
 -410 -190 l 1
 -340 -190 l 1
 -324 -90 l 2
 -321 -74 -306 -60 -290 -60 c 2
 -170 -60 l 2
 -154 -60 -141 -74 -144 -90 c 2
 -165 -220 l 2
 -171 -255 -204 -280 -264 -280 c 2
 -514 -280 l 2
 -569 -280 -596 -259 -596 -229 c 0
 -596 -226 -596 -223 -595 -220 c 2
 -589 -180 l 1
 -609 -180 l 2
 -625 -180 -637 -166 -634 -150 c 2
 -624 -90 l 2
EndSplineSet
Colour: ffff00
EndChar

StartChar: uni0E49
Encoding: 3657 3657 57
Width: 0
VWidth: 0
Flags: HMW
LayerCount: 4
Layer: 2
SplineSet
-292 1000 m 0
 -289 1017 -280 1029 -265 1040 c 2
 -209 1080 l 1
 -269 1080 l 1
 -255 1170 l 1
 -55 1170 l 2
 -32 1170 -20 1156 -20 1140 c 0
 -20 1138 -20 1137 -20 1135 c 0
 -22 1121 -29 1113 -40 1105 c 2
 -86 1070 l 1
 79 1070 l 1
 62 960 l 1
 -258 960 l 2
 -280 960 -292 976 -292 994 c 0
 -292 996 -292 998 -292 1000 c 0
EndSplineSet
Layer: 3
SplineSet
-292 1000 m 0
 -289 1017 -280 1029 -265 1040 c 2
 -209 1080 l 1
 -249 1080 l 2
 -260 1080 -268 1089 -266 1100 c 2
 -258 1150 l 2
 -256 1161 -246 1170 -235 1170 c 2
 -55 1170 l 2
 -32 1170 -20 1156 -20 1140 c 0
 -20 1138 -20 1137 -20 1135 c 0
 -22 1121 -29 1113 -40 1105 c 2
 -86 1070 l 1
 49 1070 l 2
 65 1070 78 1056 75 1040 c 2
 67 990 l 2
 64 974 48 960 32 960 c 2
 -258 960 l 2
 -280 960 -292 976 -292 994 c 0
 -292 996 -292 998 -292 1000 c 0
EndSplineSet
Colour: ffff00
EndChar

StartChar: uni0E48
Encoding: 3656 3656 58
Width: 0
VWidth: 0
Flags: HMW
LayerCount: 4
Layer: 2
SplineSet
-188 960 m 1
 -155 1170 l 1
 25 1170 l 1
 -8 960 l 1
 -188 960 l 1
EndSplineSet
Layer: 3
SplineSet
-183 990 m 2
 -159 1140 l 2
 -156 1156 -141 1170 -125 1170 c 2
 -5 1170 l 2
 11 1170 24 1156 21 1140 c 2
 -3 990 l 2
 -6 974 -22 960 -38 960 c 2
 -158 960 l 2
 -174 960 -186 974 -183 990 c 2
EndSplineSet
Colour: ffff00
EndChar

StartChar: uni0E4B
Encoding: 3659 3659 59
Width: 0
VWidth: 0
Flags: HMW
LayerCount: 4
Layer: 2
SplineSet
-248 1020 m 1
 -234 1110 l 1
 -154 1110 l 1
 -145 1170 l 1
 15 1170 l 1
 6 1110 l 1
 86 1110 l 1
 72 1020 l 1
 -8 1020 l 1
 -18 960 l 1
 -178 960 l 1
 -168 1020 l 1
 -248 1020 l 1
EndSplineSet
Layer: 3
SplineSet
-245 1040 m 2
 -237 1090 l 2
 -235 1101 -225 1110 -214 1110 c 2
 -154 1110 l 1
 -149 1140 l 2
 -146 1156 -131 1170 -115 1170 c 2
 -15 1170 l 2
 1 1170 14 1156 11 1140 c 2
 6 1110 l 1
 66 1110 l 2
 77 1110 85 1101 83 1090 c 2
 75 1040 l 2
 73 1029 63 1020 52 1020 c 2
 -8 1020 l 1
 -13 990 l 2
 -16 974 -32 960 -48 960 c 2
 -148 960 l 2
 -164 960 -176 974 -173 990 c 2
 -168 1020 l 1
 -228 1020 l 2
 -239 1020 -247 1029 -245 1040 c 2
EndSplineSet
Colour: ffff00
EndChar

StartChar: uni0E40
Encoding: 3648 3648 60
Width: 390
VWidth: 0
Flags: HMW
LayerCount: 4
Layer: 2
SplineSet
16 100 m 2
 95 600 l 1
 365 600 l 1
 270 0 l 1
 270 0 206 -10 138 -10 c 0
 42 -10 14 23 14 73 c 0
 14 81 15 91 16 100 c 2
EndSplineSet
Layer: 3
SplineSet
16 100 m 2
 89 560 l 2
 92 582 113 600 135 600 c 2
 325 600 l 2
 345 600 359 585 359 566 c 0
 359 564 359 562 359 560 c 2
 273 20 l 2
 271 7 266 2 255 0 c 1
 255 0 195 -10 138 -10 c 0
 42 -10 14 23 14 73 c 0
 14 81 15 91 16 100 c 2
EndSplineSet
Colour: ffff00
EndChar

StartChar: uni0E41
Encoding: 3649 3649 61
Width: 750
VWidth: 0
Flags: HMW
LayerCount: 4
Layer: 2
SplineSet
16 100 m 2
 95 600 l 1
 365 600 l 1
 270 0 l 1
 270 0 206 -10 138 -10 c 0
 42 -10 14 23 14 73 c 0
 14 81 15 91 16 100 c 2
376 100 m 2
 455 600 l 1
 725 600 l 1
 630 0 l 1
 630 0 566 -10 498 -10 c 0
 402 -10 374 23 374 73 c 0
 374 81 375 91 376 100 c 2
EndSplineSet
Layer: 3
SplineSet
16 100 m 2
 89 560 l 2
 92 582 113 600 135 600 c 2
 325 600 l 2
 345 600 359 585 359 566 c 0
 359 564 359 562 359 560 c 2
 273 20 l 2
 271 7 266 2 255 0 c 1
 255 0 195 -10 138 -10 c 0
 42 -10 14 23 14 73 c 0
 14 81 15 91 16 100 c 2
376 100 m 2
 449 560 l 2
 452 582 473 600 495 600 c 2
 685 600 l 2
 705 600 719 585 719 566 c 0
 719 564 719 562 719 560 c 2
 633 20 l 2
 631 7 626 2 615 0 c 1
 615 0 555 -10 498 -10 c 0
 402 -10 374 23 374 73 c 0
 374 81 375 91 376 100 c 2
EndSplineSet
Colour: ffff00
EndChar

StartChar: uni0E2F
Encoding: 3631 3631 62
Width: 700
VWidth: 0
Flags: HMW
LayerCount: 4
Layer: 2
SplineSet
38 490 m 2
 55 600 l 1
 265 600 l 1
 256 540 l 2
 255 531 254 523 254 516 c 0
 254 474 277 460 303 460 c 0
 342 460 380 490 405 535 c 1
 415 600 l 1
 675 600 l 1
 580 0 l 1
 300 0 l 1
 355 349 l 1
 319 317 266 290 196 290 c 0
 87 290 35 366 35 455 c 0
 35 467 36 478 38 490 c 2
EndSplineSet
Layer: 3
SplineSet
38 490 m 2
 49 560 l 2
 52 582 73 600 95 600 c 2
 225 600 l 2
 245 600 259 585 259 566 c 0
 259 564 259 562 259 560 c 2
 256 540 l 2
 255 531 254 523 254 516 c 0
 254 474 277 460 303 460 c 0
 342 460 380 490 405 535 c 1
 409 560 l 2
 412 582 433 600 455 600 c 2
 635 600 l 2
 655 600 669 585 669 566 c 0
 669 564 669 562 669 560 c 2
 586 40 l 2
 583 18 562 0 540 0 c 2
 340 0 l 2
 320 0 306 15 306 34 c 0
 306 36 306 38 306 40 c 2
 355 349 l 1
 319 317 266 290 196 290 c 0
 87 290 35 366 35 455 c 0
 35 467 36 478 38 490 c 2
EndSplineSet
Colour: ffff00
EndChar

StartChar: uni0E30
Encoding: 3632 3632 63
Width: 520
VWidth: 0
Flags: HMW
LayerCount: 4
Layer: 2
SplineSet
2 140 m 0
 11 196 56 260 56 260 c 1
 271 260 l 1
 243 210 l 1
 453 210 l 1
 426 40 l 1
 96 40 l 2
 41 40 1 75 1 125 c 0
 1 130 1 135 2 140 c 0
51 450 m 0
 60 506 105 570 105 570 c 1
 320 570 l 1
 292 520 l 1
 502 520 l 1
 475 350 l 1
 145 350 l 2
 90 350 50 385 50 435 c 0
 50 440 50 445 51 450 c 0
EndSplineSet
Layer: 3
SplineSet
2 140 m 0
 9 183 37 230 37 230 c 1
 46 246 62 260 82 260 c 2
 239 260 l 2
 250 260 258 253 258 243 c 0
 258 239 257 235 254 230 c 2
 243 210 l 1
 423 210 l 2
 439 210 452 196 449 180 c 2
 431 70 l 2
 428 54 412 40 396 40 c 2
 96 40 l 2
 41 40 1 75 1 125 c 0
 1 130 1 135 2 140 c 0
51 450 m 0
 58 493 87 540 87 540 c 1
 96 556 111 570 131 570 c 2
 288 570 l 2
 300 570 308 563 308 553 c 0
 308 549 306 545 304 540 c 2
 292 520 l 1
 472 520 l 2
 488 520 501 506 498 490 c 2
 480 380 l 2
 477 364 461 350 445 350 c 2
 145 350 l 2
 90 350 50 385 50 435 c 0
 50 440 50 445 51 450 c 0
EndSplineSet
Colour: ffff00
EndChar

StartChar: uni0E4A
Encoding: 3658 3658 64
Width: 0
VWidth: 0
Flags: HMW
LayerCount: 4
Layer: 2
SplineSet
-347 1030 m 0
 -333 1119 -274 1180 -203 1180 c 0
 -160 1180 -134 1146 -115 1108 c 1
 -105 1170 l 1
 45 1170 l 1
 26 1050 l 1
 106 1050 l 1
 92 960 l 1
 -138 960 l 1
 -127 1026 l 1
 -137 1051 -148 1070 -161 1070 c 0
 -181 1070 -190 1036 -193 1020 c 0
 -194 1014 -194 1008 -194 1002 c 0
 -194 984 -190 968 -188 960 c 1
 -348 960 l 1
 -349 968 -350 977 -350 988 c 0
 -350 1001 -349 1015 -347 1030 c 0
EndSplineSet
Layer: 3
SplineSet
-347 1030 m 0
 -333 1119 -274 1180 -203 1180 c 0
 -160 1180 -134 1146 -115 1108 c 1
 -109 1140 l 2
 -106 1156 -91 1170 -75 1170 c 2
 15 1170 l 2
 31 1170 44 1156 41 1140 c 2
 26 1050 l 1
 86 1050 l 2
 97 1050 105 1041 103 1030 c 2
 95 980 l 2
 93 969 83 960 72 960 c 2
 -108 960 l 2
 -124 960 -136 974 -133 990 c 2
 -127 1026 l 1
 -137 1051 -148 1070 -161 1070 c 0
 -181 1070 -190 1036 -193 1020 c 0
 -195 1010 -196 998 -194 990 c 0
 -193 985 -192 979 -193 975 c 0
 -195 965 -208 960 -219 960 c 2
 -323 960 l 2
 -339 960 -350 974 -350 990 c 0
 -350 1002 -349 1017 -347 1030 c 0
EndSplineSet
Colour: ffff00
EndChar

StartChar: uni0E47
Encoding: 3655 3655 65
Width: 0
VWidth: 0
Flags: HMW
LayerCount: 4
Layer: 2
SplineSet
-489 825 m 0
 -476 907 -408 980 -290 980 c 2
 -5 980 l 1
 -23 865 l 1
 -268 865 l 2
 -295 865 -320 852 -324 825 c 0
 -324 823 -325 820 -325 818 c 0
 -325 796 -306 785 -281 785 c 0
 -246 785 -232 804 -225 820 c 1
 -80 820 l 1
 -41 690 l 1
 -42 680 l 1
 -192 680 l 1
 -207 741 l 1
 -229 705 -269 670 -339 670 c 0
 -444 670 -491 728 -491 798 c 0
 -491 807 -490 816 -489 825 c 0
EndSplineSet
Layer: 3
SplineSet
-489 825 m 0
 -476 907 -408 980 -290 980 c 2
 -35 980 l 2
 -19 980 -7 966 -10 950 c 2
 -18 895 l 2
 -21 879 -37 865 -53 865 c 2
 -268 865 l 2
 -295 865 -320 852 -324 825 c 0
 -324 823 -325 820 -325 818 c 0
 -325 796 -306 785 -281 785 c 0
 -257 785 -243 794 -234 805 c 0
 -228 813 -221 820 -210 820 c 2
 -98 820 l 2
 -82 820 -75 806 -71 790 c 2
 -49 710 l 1
 -49 710 -44 699 -45 695 c 0
 -47 685 -59 680 -70 680 c 2
 -172 680 l 2
 -188 680 -196 694 -200 710 c 2
 -205 742 l 1
 -228 706 -269 670 -339 670 c 0
 -444 670 -491 728 -491 798 c 0
 -491 807 -490 816 -489 825 c 0
EndSplineSet
Colour: ffff00
EndChar

StartChar: uni0E4C
Encoding: 3660 3660 66
Width: 0
VWidth: 0
Flags: HMW
LayerCount: 4
Layer: 2
SplineSet
-257 1030 m 0
 -248 1088 -205 1110 -144 1110 c 2
 56 1110 l 1
 37 990 l 1
 -98 990 l 1
 -78 930 l 1
 -228 930 l 1
 -228 930 -258 966 -258 1013 c 0
 -258 1019 -258 1024 -257 1030 c 0
EndSplineSet
Layer: 3
SplineSet
-257 1030 m 0
 -248 1088 -205 1110 -144 1110 c 2
 26 1110 l 2
 42 1110 54 1096 51 1080 c 2
 42 1020 l 2
 39 1004 23 990 7 990 c 2
 -98 990 l 1
 -88 960 l 1
 -88 960 -82 949 -83 945 c 0
 -85 935 -99 930 -110 930 c 2
 -214 930 l 2
 -230 930 -240 944 -246 960 c 0
 -249 969 -259 985 -259 1011 c 0
 -259 1017 -258 1023 -257 1030 c 0
EndSplineSet
Colour: ffff00
EndChar

StartChar: uni0E43
Encoding: 3651 3651 67
Width: 440
VWidth: 0
Flags: HMW
LayerCount: 4
Layer: 2
SplineSet
42 770 m 1
 80 857 170 930 307 930 c 0
 425 930 502 868 502 783 c 0
 502 776 501 768 500 760 c 0
 482 646 400 628 381 510 c 2
 300 0 l 1
 300 0 236 -10 168 -10 c 0
 72 -10 44 23 44 73 c 0
 44 81 45 91 46 100 c 2
 111 510 l 2
 128 615 289 690 297 740 c 0
 298 744 298 747 298 750 c 0
 298 769 287 780 264 780 c 0
 223 780 176 735 161 700 c 1
 42 770 l 1
EndSplineSet
Layer: 3
SplineSet
53 777 m 0
 54 785 58 793 61 800 c 0
 93 863 182 930 307 930 c 0
 425 930 502 868 502 783 c 0
 502 776 501 768 500 760 c 0
 482 646 400 628 381 510 c 2
 303 20 l 2
 301 7 296 2 285 0 c 1
 285 0 225 -10 168 -10 c 0
 72 -10 44 23 44 73 c 0
 44 81 45 91 46 100 c 2
 111 510 l 2
 128 615 289 690 297 740 c 0
 298 744 298 747 298 750 c 0
 298 769 287 780 264 780 c 0
 229 780 190 748 170 717 c 0
 166 711 160 705 152 705 c 0
 145 705 130 715 124 718 c 2
 65 755 l 2
 58 759 51 766 53 777 c 0
EndSplineSet
Colour: ffff00
EndChar

StartChar: uni0E44
Encoding: 3652 3652 68
Width: 440
VWidth: 0
Flags: HMW
LayerCount: 4
Layer: 2
SplineSet
62 770 m 1
 86 920 l 1
 96 920 l 1
 201 842 l 1
 230 876 298 930 387 930 c 0
 479 930 526 878 526 807 c 0
 526 798 525 789 524 780 c 0
 508 677 400 628 381 510 c 2
 300 0 l 1
 300 0 236 -10 168 -10 c 0
 72 -10 44 23 44 73 c 0
 44 81 45 91 46 100 c 2
 111 510 l 2
 130 629 312 704 319 750 c 0
 319 752 320 755 320 757 c 0
 320 770 312 780 294 780 c 0
 251 780 204 730 181 700 c 1
 171 700 l 1
 62 770 l 1
EndSplineSet
Layer: 3
SplineSet
64 785 m 2
 83 900 l 2
 84 908 88 914 97 915 c 0
 101 915 108 912 114 907 c 2
 202 842 l 1
 231 876 299 930 387 930 c 0
 479 930 526 878 526 807 c 0
 526 798 525 789 524 780 c 0
 508 677 400 628 381 510 c 2
 303 20 l 2
 301 7 296 2 285 0 c 1
 285 0 225 -10 168 -10 c 0
 72 -10 44 23 44 73 c 0
 44 81 45 91 46 100 c 2
 111 510 l 2
 130 629 312 704 319 750 c 0
 319 752 320 755 320 757 c 0
 320 770 312 780 294 780 c 0
 260 780 222 748 197 720 c 0
 192 714 185 700 173 700 c 0
 167 700 152 710 152 710 c 1
 75 760 l 2
 68 765 62 773 64 785 c 2
EndSplineSet
Colour: ffff00
EndChar

StartChar: uni0E42
Encoding: 3650 3650 69
Width: 440
VWidth: 0
Flags: HMW
LayerCount: 4
Layer: 2
SplineSet
60 760 m 0
 75 856 168 930 297 930 c 0
 447 930 533 861 545 850 c 1
 456 730 l 1
 432 744 370 780 334 780 c 0
 301 780 279 773 279 747 c 0
 279 706 391 677 391 581 c 0
 391 574 390 567 389 560 c 2
 300 0 l 1
 300 0 236 -10 168 -10 c 0
 72 -10 44 23 44 73 c 0
 44 81 45 91 46 100 c 2
 111 510 l 2
 113 522 114 533 114 543 c 0
 114 626 58 661 58 735 c 0
 58 743 59 751 60 760 c 0
EndSplineSet
Layer: 3
SplineSet
60 760 m 0
 75 856 168 930 297 930 c 0
 426 930 506 877 518 870 c 0
 529 863 533 854 533 843 c 0
 533 841 533 839 533 837 c 0
 532 828 524 820 524 820 c 1
 472 752 l 2
 463 741 459 735 451 735 c 0
 444 735 432 742 424 747 c 0
 415 753 366 780 334 780 c 0
 301 780 279 773 279 747 c 0
 279 706 391 677 391 581 c 0
 391 574 390 567 389 560 c 2
 303 20 l 2
 301 7 296 2 285 0 c 1
 285 0 225 -10 168 -10 c 0
 72 -10 44 23 44 73 c 0
 44 81 45 91 46 100 c 2
 111 510 l 2
 113 522 114 533 114 543 c 0
 114 626 58 661 58 735 c 0
 58 743 59 751 60 760 c 0
EndSplineSet
Colour: ffff00
EndChar

StartChar: uni0E45
Encoding: 3653 3653 70
Width: 540
VWidth: 0
Flags: HMW
LayerCount: 4
Layer: 2
SplineSet
26 540 m 1
 26 540 121 610 287 610 c 0
 430 610 495 552 495 439 c 0
 495 421 493 401 490 380 c 2
 392 -240 l 1
 112 -240 l 1
 207 360 l 2
 208 366 208 372 208 377 c 0
 208 402 195 410 165 410 c 0
 129 410 74 394 50 380 c 1
 26 540 l 1
EndSplineSet
Layer: 3
SplineSet
29 530 m 0
 31 542 39 549 59 560 c 1
 59 560 152 610 287 610 c 0
 430 610 495 552 495 439 c 0
 495 421 493 401 490 380 c 2
 398 -200 l 2
 395 -222 374 -240 352 -240 c 2
 152 -240 l 2
 132 -240 118 -225 118 -206 c 0
 118 -204 118 -202 118 -200 c 2
 207 360 l 2
 208 366 208 372 208 377 c 0
 208 402 195 410 165 410 c 0
 139 410 115 404 93 395 c 0
 83 391 72 385 61 385 c 0
 50 385 46 393 44 405 c 2
 30 505 l 1
 30 505 28 522 29 530 c 0
EndSplineSet
Colour: ffff00
EndChar

StartChar: uni0E46
Encoding: 3654 3654 71
Width: 600
VWidth: 0
Flags: HMW
LayerCount: 4
Layer: 2
SplineSet
37 420 m 1
 65 600 l 1
 75 600 l 1
 180 515 l 1
 203 543 279 610 392 610 c 0
 493 610 552 543 552 465 c 0
 552 457 551 449 550 440 c 0
 474 -40 l 2
 454 -169 353 -250 70 -250 c 1
 77 -80 l 1
 135 -80 199 -69 208 -10 c 2
 248 240 l 2
 257 298 283 333 290 380 c 0
 291 386 291 391 291 396 c 0
 291 417 282 430 258 430 c 0
 215 430 178 375 155 345 c 1
 145 345 l 1
 37 420 l 1
EndSplineSet
Layer: 3
SplineSet
39 435 m 2
 62 580 l 2
 63 588 67 594 76 595 c 0
 80 595 87 592 93 587 c 2
 181 516 l 1
 204 544 280 610 392 610 c 0
 493 610 552 543 552 465 c 0
 552 457 551 449 550 440 c 2
 474 -40 l 2
 444 -232 220 -250 95 -250 c 0
 75 -250 71 -243 71 -226 c 0
 71 -224 71 -222 71 -220 c 2
 78 -105 l 0
 81 -87 93 -81 113 -77 c 0
 134 -73 199 -69 208 -10 c 2
 248 240 l 2
 257 298 283 333 290 380 c 0
 291 386 291 391 291 396 c 0
 291 417 282 430 258 430 c 0
 226 430 193 394 171 366 c 0
 166 360 159 345 147 345 c 0
 141 345 126 355 126 355 c 1
 50 410 l 2
 43 415 37 423 39 435 c 2
EndSplineSet
Colour: ffff00
EndChar

StartChar: uni0E3F
Encoding: 3647 3647 74
Width: 820
VWidth: 0
Flags: HMW
LayerCount: 4
Layer: 2
SplineSet
0 0 m 1
 133 840 l 1
 353 840 l 1
 372 960 l 1
 582 960 l 1
 563 837 l 1
 718 820 790 748 790 647 c 0
 790 635 789 623 787 610 c 0
 775 533 729 472 646 434 c 1
 729 400 769 342 769 263 c 0
 769 249 767 235 765 220 c 0
 740 60 577 3 430 0 c 1
 411 -120 l 1
 201 -120 l 1
 220 0 l 1
 0 0 l 1
294 180 m 1
 374 180 l 2
 426 180 479 214 486 260 c 0
 487 265 487 270 487 275 c 0
 487 315 462 350 400 350 c 2
 320 350 l 1
 294 180 l 1
344 500 m 1
 424 500 l 2
 468 500 501 542 507 580 c 0
 508 584 508 587 508 591 c 0
 508 626 483 660 440 660 c 2
 370 660 l 1
 344 500 l 1
EndSplineSet
Layer: 3
SplineSet
6 40 m 6
 127 800 l 6
 130 822 151 840 173 840 c 6
 353 840 l 5
 367 930 l 6
 370 946 386 960 402 960 c 6
 552 960 l 6
 568 960 580 946 577 930 c 6
 563 837 l 5
 718 820 790 748 790 647 c 0
 790 635 789 623 787 610 c 4
 775 533 729 472 646 434 c 5
 729 400 769 342 769 263 c 0
 769 249 767 235 765 220 c 4
 740 60 577 3 430 0 c 5
 416 -90 l 6
 413 -106 397 -120 381 -120 c 6
 231 -120 l 6
 215 -120 203 -106 206 -90 c 6
 220 0 l 5
 40 0 l 6
 20 0 6 15 6 34 c 0
 6 36 6 38 6 40 c 6
294 180 m 5
 374 180 l 6
 426 180 479 214 486 260 c 4
 487 265 487 270 487 275 c 0
 487 315 462 350 400 350 c 6
 320 350 l 5
 294 180 l 5
344 500 m 5
 424 500 l 6
 468 500 501 542 507 580 c 4
 508 584 508 587 508 591 c 0
 508 626 483 660 440 660 c 6
 370 660 l 5
 344 500 l 5
EndSplineSet
Colour: ffff00
EndChar

StartChar: uni0E4E
Encoding: 3662 3662 75
Width: 0
VWidth: 0
Flags: HMW
LayerCount: 4
Layer: 2
SplineSet
-387 775 m 0
 -380 818 -356 847 -315 865 c 1
 -332 879 -343 896 -343 921 c 0
 -343 925 -343 930 -342 935 c 0
 -331 1005 -267 1050 -174 1050 c 0
 -107 1050 -69 1018 -53 990 c 1
 -108 930 l 1
 -115 942 -128 960 -159 960 c 0
 -193 960 -213 941 -213 920 c 0
 -213 898 -187 890 -149 890 c 1
 -169 830 l 1
 -215 830 -251 817 -256 785 c 0
 -256 783 -257 780 -257 778 c 0
 -257 756 -238 745 -212 745 c 0
 -185 745 -168 752 -160 755 c 1
 -152 680 l 1
 -172 671 -207 660 -265 660 c 0
 -331 660 -388 693 -388 757 c 0
 -388 763 -388 769 -387 775 c 0
EndSplineSet
Layer: 3
SplineSet
-387 775 m 4
 -380 818 -356 847 -316 864 c 5
 -333 877 -343 896 -343 920 c 0
 -343 925 -343 930 -342 935 c 4
 -331 1005 -267 1050 -174 1050 c 4
 -117 1050 -79 1026 -61 1002 c 4
 -59 998 -57 994 -58 990 c 4
 -59 985 -62 980 -65 977 c 6
 -96 943 l 6
 -100 939 -104 935 -107 935 c 4
 -110 935 -112 938 -117 944 c 4
 -126 952 -138 960 -159 960 c 4
 -193 960 -213 941 -213 920 c 0
 -213 900 -189 890 -161 890 c 4
 -153 890 -151 885 -152 881 c 4
 -152 880 -153 880 -153 879 c 6
 -166 839 l 6
 -168 833 -173 830 -184 830 c 4
 -208 830 -250 820 -256 785 c 4
 -256 783 -257 780 -257 778 c 0
 -257 756 -238 745 -212 745 c 4
 -196 745 -188 746 -182 748 c 4
 -177 750 -172 752 -166 752 c 4
 -160 752 -159 745 -159 741 c 6
 -154 698 l 6
 -153 695 -154 691 -155 685 c 4
 -156 680 -162 675 -170 673 c 4
 -192 667 -218 660 -265 660 c 4
 -331 660 -388 693 -388 757 c 0
 -388 763 -388 769 -387 775 c 4
EndSplineSet
Colour: ffff00
EndChar

StartChar: uni0E4F
Encoding: 3663 3663 76
Width: 760
VWidth: 0
Flags: HMW
LayerCount: 4
Layer: 2
SplineSet
48 300 m 0
 76 477 229 620 418 620 c 0
 587 620 692 505 692 354 c 0
 692 336 691 318 688 300 c 0
 660 123 506 -20 317 -20 c 0
 148 -20 44 94 44 245 c 0
 44 263 45 281 48 300 c 0
138 300 m 0
 136 285 135 271 135 257 c 0
 135 145 208 60 330 60 c 0
 467 60 577 167 598 300 c 0
 600 315 601 329 601 343 c 0
 601 455 528 540 406 540 c 0
 269 540 159 433 138 300 c 0
218 300 m 0
 231 383 308 450 391 450 c 0
 466 450 520 395 520 323 c 0
 520 315 519 308 518 300 c 0
 505 217 427 150 344 150 c 0
 269 150 216 204 216 276 c 0
 216 284 217 292 218 300 c 0
EndSplineSet
Layer: 3
SplineSet
48 300 m 0
 76 477 229 620 418 620 c 0
 587 620 692 505 692 354 c 0
 692 336 691 318 688 300 c 0
 660 123 506 -20 317 -20 c 0
 148 -20 44 94 44 245 c 0
 44 263 45 281 48 300 c 0
138 300 m 0
 136 285 135 271 135 257 c 0
 135 145 208 60 330 60 c 0
 467 60 577 167 598 300 c 0
 600 315 601 329 601 343 c 0
 601 455 528 540 406 540 c 0
 269 540 159 433 138 300 c 0
218 300 m 0
 231 383 308 450 391 450 c 0
 466 450 520 395 520 323 c 0
 520 315 519 308 518 300 c 0
 505 217 427 150 344 150 c 0
 269 150 216 204 216 276 c 0
 216 284 217 292 218 300 c 0
EndSplineSet
Colour: ffff00
EndChar

StartChar: uni0E50
Encoding: 3664 3664 77
Width: 780
VWidth: 0
Flags: HMW
LayerCount: 4
Layer: 2
SplineSet
18 300 m 0
 46 477 208 620 428 620 c 0
 627 620 742 504 742 351 c 0
 742 335 741 317 738 300 c 0
 710 123 547 -20 327 -20 c 0
 129 -20 14 96 14 249 c 0
 14 266 15 283 18 300 c 0
278 300 m 0
 277 291 276 283 276 275 c 0
 276 225 303 190 360 190 c 0
 426 190 468 237 478 300 c 0
 479 308 480 317 480 325 c 0
 480 375 452 410 395 410 c 0
 329 410 288 363 278 300 c 0
EndSplineSet
Layer: 3
SplineSet
18 300 m 0
 46 477 208 620 428 620 c 0
 627 620 742 504 742 351 c 0
 742 335 741 317 738 300 c 0
 710 123 547 -20 327 -20 c 0
 129 -20 14 96 14 249 c 0
 14 266 15 283 18 300 c 0
278 300 m 0
 277 291 276 283 276 275 c 0
 276 225 303 190 360 190 c 0
 426 190 468 237 478 300 c 0
 479 308 480 317 480 325 c 0
 480 375 452 410 395 410 c 0
 329 410 288 363 278 300 c 0
EndSplineSet
Colour: ffff00
EndChar

StartChar: uni0E51
Encoding: 3665 3665 78
Width: 780
VWidth: 0
Flags: HMW
LayerCount: 4
Layer: 2
SplineSet
18 300 m 0
 46 477 208 620 428 620 c 0
 627 620 742 504 742 351 c 0
 742 335 741 317 738 300 c 0
 704 88 557 -20 406 -90 c 1
 311 70 l 1
 374 105 456 159 478 300 c 0
 479 308 480 317 480 325 c 0
 480 375 452 410 395 410 c 0
 329 410 288 367 281 320 c 0
 280 316 280 312 280 309 c 0
 280 283 296 270 323 270 c 0
 349 270 364 280 364 280 c 1
 361 130 l 1
 315 106 268 90 204 90 c 0
 101 90 15 140 15 257 c 0
 15 270 16 285 18 300 c 0
EndSplineSet
Layer: 3
SplineSet
18 300 m 0
 46 477 208 620 428 620 c 0
 627 620 742 504 742 351 c 0
 742 335 741 317 738 300 c 0
 707 107 585 2 444 -71 c 0
 436 -75 428 -80 418 -80 c 0
 406 -80 396 -73 390 -63 c 2
 331 37 l 2
 327 44 324 52 325 60 c 0
 327 72 334 83 346 91 c 0
 400 127 459 179 478 300 c 0
 479 308 480 317 480 325 c 0
 480 375 452 410 395 410 c 0
 329 410 288 367 281 320 c 0
 280 316 280 312 280 309 c 0
 280 283 296 270 323 270 c 0
 335 270 344 275 352 275 c 0
 362 275 366 268 365 250 c 2
 361 151 l 0
 359 136 347 123 331 116 c 0
 301 102 257 90 204 90 c 0
 101 90 15 140 15 257 c 0
 15 270 16 285 18 300 c 0
EndSplineSet
Colour: ffff00
EndChar

StartChar: uni0E52
Encoding: 3666 3666 79
Width: 870
VWidth: 0
Flags: HMW
LayerCount: 4
Layer: 2
SplineSet
0 0 m 1
 119 750 l 1
 379 750 l 1
 289 180 l 1
 559 180 l 1
 574 275 583 330 589 370 c 0
 590 377 591 383 591 389 c 0
 591 413 582 430 558 430 c 0
 515 430 478 380 455 350 c 1
 445 350 l 1
 367 420 l 1
 395 600 l 1
 405 600 l 1
 481 522 l 1
 510 556 574 610 687 610 c 0
 790 610 840 543 840 457 c 0
 840 445 839 433 837 420 c 2
 770 0 l 1
 0 0 l 1
EndSplineSet
Layer: 3
SplineSet
6 40 m 2
 112 710 l 2
 115 732 137 750 159 750 c 2
 339 750 l 2
 359 750 372 735 372 716 c 0
 372 714 372 712 372 710 c 2
 289 180 l 1
 559 180 l 1
 589 370 l 2
 590 377 591 383 591 389 c 0
 591 413 582 430 558 430 c 0
 524 430 493 398 471 370 c 0
 466 364 460 355 448 355 c 0
 442 355 430 365 430 365 c 1
 378 410 l 2
 371 415 365 423 367 435 c 2
 390 579 l 2
 391 587 396 594 405 595 c 0
 409 595 414 590 420 584 c 2
 480 520 l 1
 510 554 577 610 687 610 c 0
 790 610 840 543 840 457 c 0
 840 445 839 433 837 420 c 2
 776 40 l 2
 773 18 752 0 730 0 c 2
 40 0 l 2
 20 0 6 15 6 34 c 0
 6 36 6 38 6 40 c 2
EndSplineSet
Colour: ffff00
EndChar

StartChar: uni0E53
Encoding: 3667 3667 80
Width: 840
VWidth: 0
Flags: HMW
LayerCount: 4
Layer: 2
SplineSet
18 300 m 0
 45 470 164 610 317 610 c 0
 365 610 375 600 375 600 c 1
 441 450 l 1
 565 600 l 1
 825 600 l 1
 730 0 l 1
 470 0 l 1
 530 380 l 1
 454 280 l 1
 414 280 l 1
 374 280 l 1
 323 380 l 1
 300 361 281 324 274 280 c 0
 273 275 273 269 273 264 c 0
 273 221 301 180 339 180 c 0
 350 180 360 182 369 185 c 1
 383 20 l 1
 351 1 302 -10 248 -10 c 0
 93 -10 13 96 13 236 c 0
 13 257 15 278 18 300 c 0
EndSplineSet
Layer: 3
SplineSet
18 300 m 0
 45 470 164 610 317 610 c 0
 374 610 387 570 387 570 c 1
 442 452 l 1
 441 450 l 1
 532 560 l 2
 551 584 569 600 595 600 c 2
 785 600 l 2
 805 600 819 585 819 566 c 0
 819 564 819 562 819 560 c 2
 736 40 l 2
 733 18 712 0 690 0 c 2
 510 0 l 2
 490 0 476 15 476 34 c 0
 476 36 476 38 476 40 c 2
 530 380 l 1
 486 320 l 2
 463 291 451 280 434 280 c 2
 414 280 l 1
 391 280 l 2
 374 280 366 291 353 320 c 2
 323 380 l 1
 300 361 281 324 274 280 c 0
 273 275 273 269 273 264 c 0
 273 221 301 180 339 180 c 0
 355 180 369 175 371 160 c 2
 381 55 l 1
 381 55 382 44 381 38 c 0
 379 24 372 15 362 10 c 0
 348 2 302 -10 248 -10 c 0
 93 -10 13 96 13 236 c 0
 13 257 15 278 18 300 c 0
EndSplineSet
Colour: ffff00
EndChar

StartChar: uni0E54
Encoding: 3668 3668 81
Width: 760
VWidth: 0
Flags: HMW
LayerCount: 4
Layer: 2
SplineSet
18 300 m 0
 46 477 188 620 408 620 c 0
 516 620 566 666 579 750 c 1
 809 750 l 1
 781 573 640 440 420 440 c 0
 335 440 291 380 278 300 c 0
 276 287 275 274 275 263 c 0
 275 205 304 180 359 180 c 2
 389 180 l 1
 401 257 468 300 468 300 c 1
 648 300 l 1
 648 300 579 241 569 180 c 1
 659 180 l 1
 630 0 l 1
 330 0 l 2
 131 0 14 101 14 251 c 0
 14 267 15 283 18 300 c 0
EndSplineSet
Layer: 3
SplineSet
18 300 m 0
 46 477 188 620 408 620 c 0
 496 620 549 652 568 710 c 0
 575 732 593 750 615 750 c 2
 764 750 l 2
 784 750 797 735 797 716 c 0
 797 714 797 712 797 710 c 0
 772 550 609 440 420 440 c 0
 335 440 291 380 278 300 c 0
 276 287 275 274 275 263 c 0
 275 205 304 180 359 180 c 2
 389 180 l 1
 395 218 414 250 433 270 c 0
 449 286 468 300 488 300 c 2
 613 300 l 2
 629 300 631 294 630 287 c 0
 629 280 622 274 618 270 c 0
 598 247 574 213 569 180 c 1
 619 180 l 2
 639 180 652 165 652 146 c 0
 652 144 652 142 652 140 c 2
 636 40 l 2
 633 18 612 0 590 0 c 2
 330 0 l 2
 131 0 14 101 14 251 c 0
 14 267 15 283 18 300 c 0
EndSplineSet
Colour: ffff00
EndChar

StartChar: uni0E55
Encoding: 3669 3669 82
Width: 760
VWidth: 0
Flags: HMW
LayerCount: 4
Layer: 2
SplineSet
18 300 m 0
 39 432 123 523 245 561 c 1
 240 573 237 588 237 604 c 0
 237 611 238 618 239 625 c 0
 251 702 322 760 410 760 c 0
 490 760 541 712 541 646 c 0
 541 639 540 632 539 625 c 0
 538 621 538 617 536 613 c 1
 580 640 599 686 609 750 c 1
 809 750 l 1
 781 573 640 440 420 440 c 0
 335 440 291 380 278 300 c 0
 276 287 275 274 275 263 c 0
 275 205 304 180 359 180 c 2
 389 180 l 1
 401 257 468 300 468 300 c 1
 648 300 l 1
 648 300 579 241 569 180 c 1
 659 180 l 1
 630 0 l 1
 330 0 l 2
 131 0 14 101 14 251 c 0
 14 267 15 283 18 300 c 0
344 625 m 0
 344 623 343 620 343 618 c 0
 343 596 359 580 382 580 c 0
 407 580 430 600 434 625 c 0
 434 627 435 630 435 632 c 0
 435 654 419 670 396 670 c 0
 371 670 348 650 344 625 c 0
EndSplineSet
Layer: 3
SplineSet
18 300 m 0
 39 432 123 523 245 561 c 1
 240 573 237 588 237 604 c 0
 237 611 238 618 239 625 c 0
 251 702 322 760 410 760 c 0
 490 760 541 712 541 646 c 0
 541 639 540 632 539 625 c 0
 538 621 538 617 537 613 c 1
 569 635 588 667 600 710 c 0
 606 732 625 750 647 750 c 2
 764 750 l 2
 784 750 797 735 797 716 c 0
 797 714 797 712 797 710 c 1
 754 554 622 440 420 440 c 0
 335 440 291 380 278 300 c 0
 276 287 275 274 275 263 c 0
 275 205 304 180 359 180 c 2
 389 180 l 1
 395 218 414 250 433 270 c 0
 449 286 468 300 488 300 c 2
 613 300 l 2
 629 300 631 294 630 287 c 0
 629 280 622 274 618 270 c 0
 598 247 574 213 569 180 c 1
 619 180 l 2
 639 180 652 165 652 146 c 0
 652 144 652 142 652 140 c 2
 636 40 l 2
 633 18 612 0 590 0 c 2
 330 0 l 2
 131 0 14 101 14 251 c 0
 14 267 15 283 18 300 c 0
344 625 m 0
 344 623 343 620 343 618 c 0
 343 596 359 580 382 580 c 0
 407 580 430 600 434 625 c 0
 434 627 435 630 435 632 c 0
 435 654 419 670 396 670 c 0
 371 670 348 650 344 625 c 0
EndSplineSet
Colour: ffff00
EndChar

StartChar: uni0E56
Encoding: 3670 3670 83
Width: 760
VWidth: 0
Flags: HMW
LayerCount: 4
Layer: 2
SplineSet
69 750 m 1
 299 750 l 1
 297 736 295 723 295 711 c 0
 295 643 336 620 428 620 c 0
 624 620 723 507 723 358 c 0
 723 339 721 320 718 300 c 0
 690 123 527 -20 307 -20 c 0
 129 -20 7 53 7 158 c 0
 7 165 8 173 9 180 c 0
 20 250 65 300 148 300 c 2
 298 300 l 1
 287 284 281 258 279 244 c 0
 278 237 277 230 277 224 c 0
 277 187 295 160 335 160 c 0
 401 160 445 217 458 300 c 0
 460 313 461 325 461 337 c 0
 461 398 431 440 360 440 c 0
 168 440 62 503 62 670 c 0
 62 694 64 721 69 750 c 1
EndSplineSet
Layer: 3
SplineSet
67 710 m 0
 70 732 92 750 114 750 c 2
 262 750 l 2
 284 750 294 732 295 710 c 0
 296 652 323 620 428 620 c 0
 624 620 723 507 723 358 c 0
 723 339 721 320 718 300 c 0
 690 123 527 -20 307 -20 c 0
 129 -20 7 53 7 158 c 0
 7 165 8 173 9 180 c 0
 20 250 65 300 148 300 c 2
 258 300 l 2
 271 300 287 295 287 276 c 0
 287 274 286 272 286 270 c 0
 285 266 280 249 279 244 c 0
 278 237 277 230 277 224 c 0
 277 187 295 160 335 160 c 0
 401 160 445 217 458 300 c 0
 460 313 461 325 461 337 c 0
 461 398 431 440 360 440 c 0
 153 440 62 519 62 653 c 0
 62 671 64 690 67 710 c 0
EndSplineSet
Colour: ffff00
EndChar

StartChar: uni0E57
Encoding: 3671 3671 84
Width: 1105
VWidth: 0
Flags: HMW
LayerCount: 4
Layer: 2
SplineSet
18 300 m 0
 45 470 164 610 317 610 c 0
 365 610 375 600 375 600 c 1
 442 452 l 1
 565 600 l 1
 795 600 l 1
 729 183 l 1
 777 193 807 230 818 300 c 2
 865 600 l 1
 1095 600 l 1
 1048 300 l 2
 1020 123 890 0 670 0 c 2
 470 0 l 1
 530 380 l 1
 454 280 l 1
 414 280 l 1
 374 280 l 1
 323 380 l 1
 300 361 281 324 274 280 c 0
 273 275 273 269 273 264 c 0
 273 221 301 180 339 180 c 0
 350 180 360 182 369 185 c 1
 383 20 l 1
 351 1 302 -10 248 -10 c 0
 93 -10 13 96 13 236 c 0
 13 257 15 278 18 300 c 0
EndSplineSet
Layer: 3
SplineSet
18 300 m 0
 45 470 164 610 317 610 c 0
 374 610 387 570 387 570 c 1
 442 452 l 1
 441 450 l 1
 532 560 l 2
 551 584 569 600 595 600 c 2
 755 600 l 2
 775 600 789 585 789 566 c 0
 789 564 789 562 789 560 c 2
 729 183 l 1
 777 193 807 230 818 300 c 2
 859 560 l 2
 862 582 883 600 905 600 c 2
 1055 600 l 2
 1075 600 1089 585 1089 566 c 0
 1089 564 1089 562 1089 560 c 2
 1048 300 l 2
 1020 123 890 0 670 0 c 2
 510 0 l 2
 490 0 476 15 476 34 c 0
 476 36 476 38 476 40 c 2
 530 380 l 1
 486 320 l 2
 463 291 451 280 434 280 c 2
 414 280 l 1
 391 280 l 2
 374 280 366 291 353 320 c 2
 323 380 l 1
 300 361 281 324 274 280 c 0
 273 275 273 269 273 264 c 0
 273 221 301 180 339 180 c 0
 355 180 369 175 371 160 c 2
 381 55 l 1
 381 55 382 44 381 38 c 0
 379 24 372 15 362 10 c 0
 348 2 302 -10 248 -10 c 0
 93 -10 13 96 13 236 c 0
 13 257 15 278 18 300 c 0
EndSplineSet
Colour: ffff00
EndChar

StartChar: uni0E58
Encoding: 3672 3672 85
Width: 820
VWidth: 0
Flags: HMW
LayerCount: 4
Layer: 2
SplineSet
18 300 m 0
 46 477 188 620 408 620 c 0
 547 620 593 652 609 750 c 1
 859 750 l 1
 823 522 697 440 420 440 c 0
 335 440 271 380 258 300 c 0
 256 286 254 272 254 259 c 0
 254 224 263 197 281 180 c 1
 388 300 l 1
 418 300 l 1
 448 300 l 1
 512 186 l 1
 525 201 535 221 539 244 c 0
 540 251 541 262 541 273 c 0
 541 283 540 293 538 300 c 1
 668 300 l 2
 740 300 771 262 771 207 c 0
 771 198 770 189 769 180 c 0
 751 64 607 -20 467 -20 c 1
 389 120 l 1
 267 -20 l 1
 123 -20 14 96 14 248 c 0
 14 265 15 282 18 300 c 0
EndSplineSet
Layer: 3
SplineSet
18 300 m 0
 46 477 188 620 408 620 c 0
 548 620 578 652 597 710 c 0
 604 732 622 750 644 750 c 2
 814 750 l 2
 834 750 847 735 847 716 c 0
 847 714 847 712 847 710 c 0
 818 529 693 440 420 440 c 0
 335 440 271 380 258 300 c 0
 256 286 254 273 254 260 c 0
 254 225 264 197 282 180 c 1
 370 280 l 1
 370 280 385 300 403 300 c 2
 418 300 l 1
 433 300 l 2
 451 300 458 280 458 280 c 1
 512 185 l 1
 526 201 535 221 539 244 c 0
 540 249 539 266 540 270 c 0
 544 294 564 300 578 300 c 2
 668 300 l 2
 740 300 771 262 771 207 c 0
 771 198 770 189 769 180 c 0
 750 58 592 -20 487 -20 c 0
 469 -20 458 0 458 0 c 1
 389 120 l 1
 282 0 l 1
 282 0 265 -20 247 -20 c 0
 149 -20 14 78 14 247 c 0
 14 264 15 281 18 300 c 0
EndSplineSet
Colour: ffff00
EndChar

StartChar: uni0E59
Encoding: 3673 3673 86
Width: 880
VWidth: 0
Flags: HMW
LayerCount: 4
Layer: 2
SplineSet
14 280 m 0
 43 464 192 610 407 610 c 0
 495 610 565 600 565 600 c 1
 585 482 l 1
 638 501 666 541 675 600 c 2
 699 750 l 1
 929 750 l 1
 905 600 l 2
 882 452 780 335 618 300 c 1
 670 0 l 1
 450 0 l 1
 388 430 l 1
 340 430 289 370 276 290 c 0
 273 273 272 258 272 245 c 0
 272 195 290 170 317 170 c 0
 328 170 339 172 348 175 c 1
 363 20 l 1
 331 1 282 -10 228 -10 c 0
 97 -10 10 87 10 225 c 0
 10 243 11 261 14 280 c 0
EndSplineSet
Layer: 3
SplineSet
14 280 m 0
 43 464 192 610 407 610 c 0
 495 610 535 600 535 600 c 1
 563 600 572 570 573 557 c 1
 586 482 l 1
 638 501 666 541 675 600 c 2
 692 710 l 2
 695 732 717 750 739 750 c 2
 889 750 l 2
 909 750 922 735 922 716 c 0
 922 714 922 712 922 710 c 2
 905 600 l 2
 882 452 780 335 618 300 c 1
 662 45 l 2
 663 40 665 29 664 25 c 0
 662 10 645 0 620 0 c 2
 485 0 l 2
 456 0 444 13 441 40 c 2
 388 430 l 1
 340 430 289 370 276 290 c 0
 273 273 272 258 272 245 c 0
 272 195 290 170 317 170 c 0
 333 170 348 165 350 150 c 2
 361 55 l 1
 361 55 362 44 361 38 c 0
 359 24 352 15 342 10 c 0
 328 2 282 -10 228 -10 c 0
 97 -10 10 87 10 225 c 0
 10 243 11 261 14 280 c 0
EndSplineSet
Colour: ffff00
EndChar

StartChar: uni0E5A
Encoding: 3674 3674 87
Width: 900
VWidth: 0
Flags: HMW
LayerCount: 4
Layer: 2
SplineSet
38 490 m 2
 55 600 l 1
 265 600 l 1
 256 540 l 2
 255 531 254 523 254 516 c 0
 254 474 277 460 303 460 c 0
 342 460 380 490 405 535 c 1
 415 600 l 1
 605 600 l 1
 510 0 l 1
 300 0 l 1
 355 349 l 1
 319 317 266 290 196 290 c 0
 87 290 35 366 35 455 c 0
 35 467 36 478 38 490 c 2
570 0 m 1
 665 600 l 1
 875 600 l 1
 780 0 l 1
 570 0 l 1
EndSplineSet
Layer: 3
SplineSet
38 490 m 2
 49 560 l 2
 52 582 73 600 95 600 c 2
 225 600 l 2
 245 600 259 585 259 566 c 0
 259 564 259 562 259 560 c 2
 256 540 l 2
 255 531 254 523 254 516 c 0
 254 474 277 460 303 460 c 0
 342 460 380 490 405 535 c 1
 410 570 l 2
 413 586 429 600 445 600 c 2
 575 600 l 2
 591 600 603 586 600 570 c 2
 515 30 l 2
 512 14 496 0 480 0 c 2
 330 0 l 2
 314 0 302 14 305 30 c 2
 355 349 l 1
 319 317 266 290 196 290 c 0
 87 290 35 366 35 455 c 0
 35 467 36 478 38 490 c 2
575 30 m 2
 660 570 l 2
 663 586 679 600 695 600 c 2
 845 600 l 2
 861 600 873 586 870 570 c 2
 785 30 l 2
 782 14 766 0 750 0 c 2
 600 0 l 2
 584 0 572 14 575 30 c 2
EndSplineSet
Colour: ffff00
EndChar

StartChar: uni0E5B
Encoding: 3675 3675 88
Width: 1110
VWidth: 0
Flags: HMW
LayerCount: 4
Layer: 2
SplineSet
18 300 m 0
 46 477 199 620 388 620 c 0
 485 620 545 588 594 530 c 1
 534 470 l 1
 499 513 448 540 376 540 c 0
 239 540 129 433 108 300 c 0
 106 285 105 271 105 257 c 0
 105 145 178 60 300 60 c 0
 451 60 541 158 588 300 c 0
 612 372 634 464 646 540 c 1
 726 540 l 1
 767 222 l 1
 876 450 l 1
 946 450 l 1
 972 340 l 1
 1074 340 l 1
 1061 260 l 1
 991 260 l 1
 921 260 l 1
 900 348 l 1
 784 90 l 1
 704 90 l 1
 674 322 l 1
 672 314 670 307 668 300 c 0
 610 108 488 -20 287 -20 c 0
 118 -20 14 94 14 245 c 0
 14 263 15 281 18 300 c 0
188 300 m 0
 201 383 278 450 361 450 c 0
 436 450 490 395 490 323 c 0
 490 315 489 308 488 300 c 0
 475 217 397 150 314 150 c 0
 239 150 186 204 186 276 c 0
 186 284 187 292 188 300 c 0
EndSplineSet
Layer: 3
SplineSet
18 300 m 0
 46 477 199 620 388 620 c 0
 476 620 534 592 581 545 c 0
 584 541 587 536 586 530 c 0
 585 525 584 519 580 515 c 2
 549 485 l 2
 544 480 541 480 536 480 c 0
 531 480 526 482 522 485 c 0
 487 519 439 540 376 540 c 0
 239 540 129 433 108 300 c 0
 106 285 105 271 105 257 c 0
 105 145 178 60 300 60 c 0
 451 60 541 158 588 300 c 0
 610 366 630 448 642 520 c 0
 644 531 655 540 666 540 c 2
 711 540 l 2
 722 540 726 532 728 520 c 2
 766 217 l 1
 867 430 l 2
 873 442 880 450 891 450 c 2
 933 450 l 2
 944 450 949 442 951 430 c 1
 972 340 l 1
 1054 340 l 2
 1065 340 1073 331 1071 320 c 2
 1064 280 l 2
 1062 269 1052 260 1041 260 c 2
 934 260 l 2
 923 260 918 268 916 280 c 1
 900 349 l 1
 793 110 l 2
 787 98 780 90 769 90 c 2
 719 90 l 2
 708 90 703 98 701 110 c 2
 674 322 l 1
 672 314 670 307 668 300 c 0
 610 108 488 -20 287 -20 c 0
 118 -20 14 94 14 245 c 0
 14 263 15 281 18 300 c 0
188 300 m 0
 201 383 278 450 361 450 c 0
 436 450 490 395 490 323 c 0
 490 315 489 308 488 300 c 0
 475 217 397 150 314 150 c 0
 239 150 186 204 186 276 c 0
 186 284 187 292 188 300 c 0
EndSplineSet
Colour: ffff00
EndChar

StartChar: o
Encoding: 111 111 91
Width: 760
VWidth: 0
Flags: HMW
LayerCount: 4
Layer: 2
SplineSet
18 300 m 0
 46 477 204 620 418 620 c 0
 611 620 722 504 722 352 c 0
 722 335 721 318 718 300 c 0
 690 123 531 -20 317 -20 c 0
 125 -20 14 96 14 248 c 0
 14 265 15 282 18 300 c 0
278 300 m 0
 277 291 276 282 276 274 c 0
 276 225 301 190 350 190 c 0
 407 190 448 237 458 300 c 0
 459 309 460 317 460 325 c 0
 460 375 434 410 385 410 c 0
 328 410 288 363 278 300 c 0
EndSplineSet
Layer: 3
SplineSet
18 300 m 0
 46 477 204 620 418 620 c 0
 611 620 722 504 722 352 c 0
 722 335 721 318 718 300 c 0
 690 123 531 -20 317 -20 c 0
 125 -20 14 96 14 248 c 0
 14 265 15 282 18 300 c 0
278 300 m 0
 277 291 276 282 276 274 c 0
 276 225 301 190 350 190 c 0
 407 190 448 237 458 300 c 0
 459 309 460 317 460 325 c 0
 460 375 434 410 385 410 c 0
 328 410 288 363 278 300 c 0
EndSplineSet
Colour: ffff00
EndChar

StartChar: c
Encoding: 99 99 92
Width: 650
VWidth: 0
Flags: HMW
LayerCount: 4
Layer: 2
SplineSet
18 300 m 0
 46 477 204 620 418 620 c 0
 587 620 657 550 657 550 c 1
 552 390 l 1
 532 404 506 420 437 420 c 0
 368 420 310 373 298 300 c 0
 297 292 296 284 296 277 c 0
 296 217 338 180 399 180 c 0
 468 180 499 196 523 210 c 1
 578 50 l 1
 578 50 486 -20 317 -20 c 0
 125 -20 14 96 14 248 c 0
 14 265 15 282 18 300 c 0
EndSplineSet
Layer: 3
SplineSet
18 300 m 0
 46 477 204 620 418 620 c 0
 541 620 596 587 612 580 c 0
 629 573 646 560 646 544 c 0
 646 530 636 520 631 510 c 2
 577 420 l 2
 570 408 562 395 548 395 c 0
 532 395 523 407 491 415 c 0
 478 418 461 420 437 420 c 0
 368 420 310 373 298 300 c 0
 297 292 296 284 296 277 c 0
 296 217 338 180 399 180 c 0
 423 180 441 182 454 185 c 0
 488 193 501 205 517 205 c 0
 531 205 536 192 539 180 c 2
 564 90 l 2
 567 81 572 72 570 60 c 0
 567 42 543 28 523 20 c 0
 505 13 440 -20 317 -20 c 0
 125 -20 14 96 14 248 c 0
 14 265 15 282 18 300 c 0
EndSplineSet
Colour: ffff00
EndChar

StartChar: l
Encoding: 108 108 93
Width: 400
VWidth: 0
Flags: HMW
LayerCount: 4
Layer: 2
SplineSet
16 100 m 2
 133 840 l 1
 413 840 l 1
 280 0 l 1
 280 0 206 -10 138 -10 c 0
 42 -10 14 23 14 73 c 0
 14 81 15 91 16 100 c 2
EndSplineSet
Layer: 3
SplineSet
16 100 m 2
 127 800 l 2
 130 822 151 840 173 840 c 2
 373 840 l 2
 393 840 407 825 407 806 c 0
 407 804 407 802 407 800 c 2
 283 20 l 2
 281 7 276 2 265 0 c 1
 265 0 200 -10 138 -10 c 0
 42 -10 14 23 14 73 c 0
 14 81 15 91 16 100 c 2
EndSplineSet
Colour: ffff00
EndChar

StartChar: u
Encoding: 117 117 94
Width: 775
VWidth: 0
UnlinkRmOvrlpSave: 1
Flags: HMW
LayerCount: 4
Layer: 2
SplineSet
760 600 m 1
 665 0 l 1
 405 0 l 1
 421 102 l 1
 386 56 316 -10 203 -10 c 0
 89 -10 16 55 16 171 c 0
 16 187 17 203 20 220 c 2
 80 600 l 1
 360 600 l 1
 309 280 l 2
 307 267 306 256 306 247 c 0
 306 212 320 200 347 200 c 0
 382 200 408 226 427 267 c 1
 480 600 l 1
 760 600 l 1
EndSplineSet
Layer: 3
SplineSet
754 560 m 2
 671 40 l 2
 668 18 647 0 625 0 c 2
 445 0 l 2
 425 0 411 15 411 34 c 0
 411 36 411 38 411 40 c 2
 421 102 l 1
 386 56 316 -10 203 -10 c 0
 89 -10 16 55 16 171 c 0
 16 187 17 203 20 220 c 2
 74 560 l 2
 77 582 98 600 120 600 c 2
 320 600 l 2
 340 600 354 585 354 566 c 0
 354 564 354 562 354 560 c 2
 309 280 l 2
 307 267 306 256 306 247 c 0
 306 212 320 200 347 200 c 0
 382 200 408 226 427 267 c 1
 474 560 l 2
 477 582 498 600 520 600 c 2
 720 600 l 2
 740 600 754 585 754 566 c 0
 754 564 754 562 754 560 c 2
EndSplineSet
Colour: ffff00
EndChar

StartChar: a
Encoding: 97 97 95
Width: 710
VWidth: 0
Flags: HMW
LayerCount: 4
Layer: 2
SplineSet
269 180 m 0
 268 176 268 172 268 168 c 0
 268 141 287 130 306 130 c 0
 329 130 346 138 364 152 c 1
 373 208 l 1
 359 222 344 230 321 230 c 0
 299 230 275 215 269 180 c 0
-1 180 m 0
 16 288 98 370 234 370 c 0
 322 370 369 337 390 313 c 1
 397 360 l 2
 398 367 399 373 399 379 c 0
 399 425 364 440 295 440 c 0
 217 440 150 416 103 400 c 1
 67 550 l 1
 67 550 191 620 393 620 c 0
 583 620 673 554 673 423 c 0
 673 406 672 389 669 370 c 2
 610 0 l 1
 360 0 l 1
 371 70 l 1
 371 70 309 -10 173 -10 c 0
 53 -10 -4 54 -4 143 c 0
 -4 155 -3 167 -1 180 c 0
EndSplineSet
Layer: 3
SplineSet
269 180 m 4
 268 176 268 172 268 168 c 0
 268 141 287 130 306 130 c 4
 329 130 346 138 364 152 c 5
 373 208 l 5
 359 222 344 230 321 230 c 4
 299 230 275 215 269 180 c 4
-1 180 m 4
 16 288 98 370 234 370 c 4
 322 370 369 337 390 313 c 5
 397 360 l 6
 398 367 399 373 399 379 c 0
 399 425 364 440 295 440 c 4
 246 440 199 427 166 415 c 4
 152 410 127 400 114 400 c 4
 99 400 97 418 94 430 c 6
 76 510 l 5
 76 510 73 522 75 535 c 4
 77 550 83 558 99 565 c 4
 112 570 217 620 393 620 c 4
 583 620 673 554 673 423 c 0
 673 406 672 389 669 370 c 6
 616 40 l 6
 613 18 592 0 570 0 c 6
 400 0 l 6
 380 0 366 15 366 34 c 0
 366 36 366 38 366 40 c 6
 371 70 l 5
 371 70 309 -10 173 -10 c 4
 53 -10 -4 54 -4 143 c 0
 -4 155 -3 167 -1 180 c 4
EndSplineSet
Colour: ffff00
EndChar

StartChar: d
Encoding: 100 100 96
Width: 800
VWidth: 0
Flags: HMW
LayerCount: 4
Layer: 2
SplineSet
18 300 m 0
 45 471 179 610 357 610 c 0
 424 610 467 583 496 544 c 1
 543 840 l 1
 813 840 l 1
 680 0 l 1
 430 0 l 1
 443 82 l 1
 400 29 339 -10 258 -10 c 0
 101 -10 13 98 13 241 c 0
 13 260 15 280 18 300 c 0
298 300 m 0
 296 289 295 279 295 269 c 0
 295 210 328 180 369 180 c 0
 407 180 430 198 446 228 c 1
 469 372 l 1
 463 402 445 420 407 420 c 0
 359 420 311 380 298 300 c 0
EndSplineSet
Layer: 3
SplineSet
18 300 m 0
 45 471 179 610 357 610 c 0
 424 610 467 583 496 544 c 1
 537 800 l 2
 540 822 561 840 583 840 c 2
 773 840 l 2
 793 840 807 825 807 806 c 0
 807 804 807 802 807 800 c 2
 686 40 l 2
 683 18 662 0 640 0 c 2
 470 0 l 2
 450 0 436 15 436 34 c 0
 436 36 436 38 436 40 c 2
 443 82 l 1
 400 29 339 -10 258 -10 c 0
 101 -10 13 98 13 241 c 0
 13 260 15 280 18 300 c 0
298 300 m 0
 296 289 295 279 295 269 c 0
 295 210 328 180 369 180 c 0
 407 180 430 198 446 228 c 1
 469 372 l 1
 463 402 445 420 407 420 c 0
 359 420 311 380 298 300 c 0
EndSplineSet
Colour: ffff00
EndChar

StartChar: b
Encoding: 98 98 97
Width: 800
VWidth: 0
Flags: HMW
LayerCount: 4
Layer: 2
SplineSet
0 0 m 1
 133 840 l 1
 403 840 l 1
 356 544 l 1
 397 583 450 610 517 610 c 0
 674 610 763 502 763 359 c 0
 763 340 761 320 758 300 c 0
 731 129 596 -10 418 -10 c 0
 337 -10 290 29 263 82 c 1
 250 0 l 1
 0 0 l 1
306 228 m 1
 312 198 331 180 369 180 c 0
 417 180 465 220 478 300 c 0
 480 311 481 321 481 331 c 0
 481 390 448 420 407 420 c 0
 369 420 345 402 329 372 c 1
 306 228 l 1
EndSplineSet
Layer: 3
SplineSet
6 40 m 2
 127 800 l 2
 130 822 151 840 173 840 c 2
 363 840 l 2
 383 840 397 825 397 806 c 0
 397 804 397 802 397 800 c 2
 356 544 l 1
 397 583 450 610 517 610 c 0
 674 610 763 502 763 359 c 0
 763 340 761 320 758 300 c 0
 731 129 596 -10 418 -10 c 0
 337 -10 290 29 263 82 c 1
 256 40 l 2
 253 18 232 0 210 0 c 2
 40 0 l 2
 20 0 6 15 6 34 c 0
 6 36 6 38 6 40 c 2
306 228 m 1
 312 198 331 180 369 180 c 0
 417 180 465 220 478 300 c 0
 480 311 481 321 481 331 c 0
 481 390 448 420 407 420 c 0
 369 420 345 402 329 372 c 1
 306 228 l 1
EndSplineSet
Colour: ffff00
EndChar

StartChar: e
Encoding: 101 101 98
Width: 730
VWidth: 0
Flags: HMW
LayerCount: 4
Layer: 2
SplineSet
18 300 m 0
 46 477 204 620 418 620 c 0
 574 620 696 537 696 376 c 0
 696 358 694 340 691 320 c 0
 684 275 668 240 668 240 c 1
 268 240 l 1
 278 189 317 160 385 160 c 0
 476 160 528 186 552 200 c 1
 590 60 l 1
 590 60 497 -20 317 -20 c 0
 125 -20 14 96 14 248 c 0
 14 265 15 282 18 300 c 0
279 350 m 1
 455 350 l 1
 456 357 457 364 457 371 c 0
 457 412 435 440 390 440 c 0
 339 440 300 409 279 350 c 1
EndSplineSet
Layer: 3
SplineSet
18 300 m 0
 46 477 204 620 418 620 c 0
 574 620 696 537 696 376 c 0
 696 358 694 340 691 320 c 0
 684 275 669 240 638 240 c 2
 268 240 l 1
 278 189 317 160 385 160 c 0
 434 160 464 167 477 170 c 0
 511 178 524 190 540 190 c 0
 554 190 558 177 561 165 c 2
 581 100 l 2
 584 91 588 82 586 70 c 0
 583 52 560 41 540 30 c 0
 521 20 447 -20 317 -20 c 0
 125 -20 14 96 14 248 c 0
 14 265 15 282 18 300 c 0
279 350 m 1
 455 350 l 1
 456 357 457 364 457 371 c 0
 457 412 435 440 390 440 c 0
 339 440 300 409 279 350 c 1
EndSplineSet
Colour: ffff00
EndChar

StartChar: q
Encoding: 113 113 99
Width: 800
VWidth: 0
Flags: HMW
LayerCount: 4
Layer: 2
SplineSet
18 300 m 0
 45 471 179 610 357 610 c 0
 438 610 485 571 512 518 c 1
 525 600 l 1
 775 600 l 1
 642 -240 l 1
 372 -240 l 1
 419 56 l 1
 378 17 325 -10 258 -10 c 0
 101 -10 13 98 13 241 c 0
 13 260 15 280 18 300 c 0
298 300 m 0
 296 289 295 279 295 269 c 0
 295 210 328 180 369 180 c 0
 407 180 430 198 446 228 c 1
 469 372 l 1
 463 402 445 420 407 420 c 0
 359 420 311 380 298 300 c 0
EndSplineSet
Layer: 3
SplineSet
18 300 m 0
 45 471 179 610 357 610 c 0
 438 610 485 571 512 518 c 1
 519 560 l 2
 522 582 543 600 565 600 c 2
 735 600 l 2
 755 600 769 585 769 566 c 0
 769 564 769 562 769 560 c 2
 648 -200 l 2
 645 -222 624 -240 602 -240 c 2
 412 -240 l 2
 392 -240 378 -225 378 -206 c 0
 378 -204 378 -202 378 -200 c 2
 419 56 l 1
 378 17 325 -10 258 -10 c 0
 101 -10 13 98 13 241 c 0
 13 260 15 280 18 300 c 0
298 300 m 0
 296 289 295 279 295 269 c 0
 295 210 328 180 369 180 c 0
 407 180 430 198 446 228 c 1
 469 372 l 1
 463 402 445 420 407 420 c 0
 359 420 311 380 298 300 c 0
EndSplineSet
Colour: ffff00
EndChar

StartChar: p
Encoding: 112 112 100
Width: 800
VWidth: 0
Flags: HMW
LayerCount: 4
Layer: 2
SplineSet
-38 -240 m 1
 95 600 l 1
 345 600 l 1
 332 518 l 1
 375 571 436 610 517 610 c 0
 674 610 763 502 763 359 c 0
 763 340 761 320 758 300 c 0
 731 129 596 -10 418 -10 c 0
 351 -10 308 17 279 56 c 1
 232 -240 l 1
 -38 -240 l 1
306 228 m 1
 312 198 331 180 369 180 c 0
 417 180 465 220 478 300 c 0
 480 311 481 321 481 331 c 0
 481 390 448 420 407 420 c 0
 369 420 345 402 329 372 c 1
 306 228 l 1
EndSplineSet
Layer: 3
SplineSet
-32 -200 m 2
 89 560 l 2
 92 582 113 600 135 600 c 2
 305 600 l 2
 325 600 339 585 339 566 c 0
 339 564 339 562 339 560 c 2
 332 518 l 1
 375 571 436 610 517 610 c 0
 674 610 763 502 763 359 c 0
 763 340 761 320 758 300 c 0
 731 129 596 -10 418 -10 c 0
 351 -10 308 17 279 56 c 1
 238 -200 l 2
 235 -222 214 -240 192 -240 c 2
 2 -240 l 2
 -18 -240 -32 -225 -32 -206 c 0
 -32 -204 -32 -202 -32 -200 c 2
306 228 m 1
 312 198 331 180 369 180 c 0
 417 180 465 220 478 300 c 0
 480 311 481 321 481 331 c 0
 481 390 448 420 407 420 c 0
 369 420 345 402 329 372 c 1
 306 228 l 1
EndSplineSet
Colour: ffff00
EndChar

StartChar: n
Encoding: 110 110 101
Width: 775
VWidth: 0
Flags: HMW
LayerCount: 4
Layer: 2
SplineSet
-10 0 m 1
 85 600 l 1
 345 600 l 1
 329 498 l 1
 364 544 434 610 547 610 c 0
 661 610 734 545 734 429 c 0
 734 413 733 397 730 380 c 2
 670 0 l 1
 390 0 l 1
 441 320 l 2
 443 333 444 344 444 353 c 0
 444 388 430 400 403 400 c 0
 368 400 342 374 323 333 c 1
 270 0 l 1
 -10 0 l 1
EndSplineSet
Layer: 3
SplineSet
-4 40 m 2
 79 560 l 2
 82 582 103 600 125 600 c 2
 305 600 l 2
 325 600 339 585 339 566 c 0
 339 564 339 562 339 560 c 2
 329 498 l 1
 364 544 434 610 547 610 c 0
 661 610 734 545 734 429 c 0
 734 413 733 397 730 380 c 2
 676 40 l 2
 673 18 652 0 630 0 c 2
 430 0 l 2
 410 0 396 15 396 34 c 0
 396 36 396 38 396 40 c 2
 441 320 l 2
 443 333 444 344 444 353 c 0
 444 388 430 400 403 400 c 0
 368 400 342 374 323 333 c 1
 276 40 l 2
 273 18 252 0 230 0 c 2
 30 0 l 2
 10 0 -4 15 -4 34 c 0
 -4 36 -4 38 -4 40 c 2
EndSplineSet
Colour: ffff00
EndChar

StartChar: h
Encoding: 104 104 102
Width: 785
VWidth: 0
Flags: HMW
LayerCount: 4
Layer: 2
SplineSet
0 0 m 1
 133 840 l 1
 403 840 l 1
 351 513 l 1
 389 558 456 610 557 610 c 0
 671 610 744 545 744 429 c 0
 744 413 743 397 740 380 c 2
 680 0 l 1
 400 0 l 1
 451 320 l 2
 453 333 454 344 454 353 c 0
 454 388 440 400 413 400 c 0
 378 400 352 374 333 333 c 1
 280 0 l 1
 0 0 l 1
EndSplineSet
Layer: 3
SplineSet
6 40 m 6
 127 800 l 6
 130 822 151 840 173 840 c 6
 363 840 l 6
 383 840 397 825 397 806 c 0
 397 804 397 802 397 800 c 6
 351 513 l 5
 389 558 456 610 557 610 c 4
 671 610 744 545 744 429 c 0
 744 413 743 397 740 380 c 6
 686 40 l 6
 683 18 662 0 640 0 c 6
 440 0 l 6
 420 0 406 15 406 34 c 0
 406 36 406 38 406 40 c 6
 451 320 l 6
 453 333 454 344 454 353 c 0
 454 388 440 400 413 400 c 4
 378 400 352 374 333 333 c 5
 286 40 l 6
 283 18 262 0 240 0 c 6
 40 0 l 6
 20 0 6 15 6 34 c 0
 6 36 6 38 6 40 c 6
EndSplineSet
Colour: ffff00
EndChar

StartChar: s
Encoding: 115 115 103
Width: 630
VWidth: 0
Flags: HMW
LayerCount: 4
Layer: 2
SplineSet
-22 50 m 1
 70 190 l 1
 102 161 185 135 226 135 c 0
 260 135 286 143 286 169 c 0
 286 186 268 195 242 205 c 0
 219 214 184 228 158 240 c 0
 109 263 43 304 43 384 c 0
 43 392 44 401 45 410 c 0
 65 537 191 620 358 620 c 0
 495 620 568 584 617 550 c 1
 525 410 l 1
 497 438 424 465 384 465 c 0
 348 465 319 457 319 432 c 0
 319 415 340 405 363 395 c 0
 384 386 422 370 447 360 c 0
 499 339 572 301 572 216 c 0
 572 208 571 200 570 191 c 0
 547 45 393 -20 247 -20 c 0
 131 -20 32 16 -22 50 c 1
EndSplineSet
Layer: 3
SplineSet
45 410 m 0
 65 537 191 620 358 620 c 0
 491 620 558 583 576 575 c 0
 594 568 606 557 606 543 c 0
 606 531 597 519 591 510 c 2
 550 445 l 1
 543 433 533 425 522 425 c 0
 511 425 499 433 485 440 c 0
 454 455 421 465 384 465 c 0
 348 465 319 457 319 432 c 0
 319 415 340 405 363 395 c 0
 384 386 422 370 447 360 c 0
 499 339 572 301 572 216 c 0
 572 208 571 200 570 191 c 0
 547 45 393 -20 247 -20 c 0
 125 -20 37 20 19 28 c 0
 3 35 -6 44 -6 58 c 0
 -6 60 -5 63 -5 65 c 0
 -3 77 6 91 11 100 c 2
 50 160 l 2
 57 172 64 183 79 183 c 0
 93 183 109 167 130 158 c 0
 156 146 195 135 226 135 c 0
 260 135 286 143 286 169 c 0
 286 186 268 195 242 205 c 0
 219 214 184 228 158 240 c 0
 109 263 43 304 43 384 c 0
 43 392 44 401 45 410 c 0
EndSplineSet
Colour: ffff00
EndChar

StartChar: i
Encoding: 105 105 104
Width: 400
VWidth: 0
Flags: HMW
LayerCount: 4
Layer: 2
SplineSet
0 0 m 1
 95 600 l 1
 375 600 l 1
 280 0 l 1
 0 0 l 1
125 660 m 1
 153 840 l 1
 393 840 l 1
 365 660 l 1
 125 660 l 1
EndSplineSet
Layer: 3
SplineSet
6 40 m 2
 89 560 l 2
 92 582 113 600 135 600 c 2
 335 600 l 2
 355 600 369 585 369 566 c 0
 369 564 369 562 369 560 c 2
 286 40 l 2
 283 18 262 0 240 0 c 2
 40 0 l 2
 20 0 6 15 6 34 c 0
 6 36 6 38 6 40 c 2
129 690 m 2
 148 810 l 2
 151 826 167 840 183 840 c 2
 363 840 l 2
 379 840 391 826 388 810 c 2
 369 690 l 2
 366 674 351 660 335 660 c 2
 155 660 l 2
 139 660 126 674 129 690 c 2
EndSplineSet
Colour: ffff00
EndChar

StartChar: z
Encoding: 122 122 105
Width: 680
VWidth: 0
Flags: HMW
LayerCount: 4
Layer: 2
SplineSet
-30 0 m 1
 -8 140 l 1
 320 440 l 1
 60 440 l 1
 85 600 l 1
 665 600 l 1
 643 460 l 1
 335 160 l 1
 615 160 l 1
 590 0 l 1
 -30 0 l 1
EndSplineSet
Layer: 3
SplineSet
-25 30 m 2
 -12 115 l 2
 -8 142 17 161 27 170 c 2
 320 440 l 1
 90 440 l 2
 74 440 61 454 64 470 c 2
 80 570 l 2
 83 586 99 600 115 600 c 2
 635 600 l 2
 649 600 660 592 660 576 c 0
 660 574 660 572 660 570 c 2
 646 480 l 2
 642 453 617 434 607 425 c 2
 335 160 l 1
 585 160 l 2
 601 160 614 146 611 130 c 2
 595 30 l 2
 592 14 576 0 560 0 c 2
 0 0 l 2
 -14 0 -25 8 -25 24 c 0
 -25 26 -25 28 -25 30 c 2
EndSplineSet
Colour: ffff00
EndChar

StartChar: g
Encoding: 103 103 106
Width: 680
VWidth: 0
Flags: HMW
LayerCount: 4
Layer: 2
SplineSet
32 390 m 0
 54 528 178 620 358 620 c 0
 439 620 504 601 548 568 c 1
 585 600 l 1
 725 600 l 1
 701 450 l 1
 613 450 l 1
 614 441 614 433 614 424 c 0
 614 413 614 402 612 390 c 0
 590 252 465 160 285 160 c 0
 256 160 230 162 206 167 c 1
 198 158 193 152 193 141 c 0
 193 124 211 120 249 120 c 2
 349 120 l 2
 491 120 562 55 562 -32 c 0
 562 -41 561 -51 560 -60 c 0
 537 -203 412 -280 216 -280 c 0
 41 -280 -25 -253 -58 -240 c 1
 5 -95 l 1
 39 -111 102 -130 169 -130 c 0
 234 -130 263 -123 263 -100 c 0
 263 -87 251 -80 227 -80 c 2
 162 -80 l 2
 83 -80 8 -46 8 36 c 0
 8 44 9 52 10 60 c 0
 20 120 59 168 112 202 c 1
 57 235 29 287 29 352 c 0
 29 364 30 377 32 390 c 0
272 390 m 0
 270 380 269 371 269 362 c 0
 269 332 280 310 309 310 c 0
 347 310 365 348 372 390 c 0
 374 399 374 408 374 417 c 0
 374 447 364 470 334 470 c 0
 296 470 279 432 272 390 c 0
EndSplineSet
Layer: 3
SplineSet
32 390 m 4
 54 528 178 620 358 620 c 4
 439 620 504 601 548 568 c 5
 573 590 l 6
 579 595 586 600 595 600 c 6
 695 600 l 6
 711 600 723 586 720 570 c 6
 706 480 l 6
 703 464 687 450 671 450 c 6
 613 450 l 5
 614 441 614 433 614 424 c 0
 614 413 614 402 612 390 c 4
 590 252 465 160 285 160 c 4
 256 160 230 162 206 167 c 5
 198 158 193 152 193 141 c 0
 193 124 211 120 249 120 c 6
 349 120 l 6
 491 120 562 55 562 -32 c 0
 562 -41 561 -51 560 -60 c 4
 537 -203 412 -280 216 -280 c 4
 67 -280 26 -267 -15 -255 c 4
 -32 -250 -50 -240 -50 -224 c 0
 -50 -211 -41 -195 -41 -195 c 5
 -1 -120 l 6
 3 -111 10 -100 24 -100 c 4
 44 -100 50 -110 86 -120 c 4
 107 -126 146 -130 169 -130 c 4
 234 -130 263 -123 263 -100 c 0
 263 -87 251 -80 227 -80 c 6
 162 -80 l 6
 83 -80 8 -46 8 36 c 0
 8 44 9 52 10 60 c 4
 20 120 59 168 112 202 c 5
 57 235 29 287 29 352 c 0
 29 364 30 377 32 390 c 4
272 390 m 4
 270 380 269 371 269 362 c 0
 269 332 280 310 309 310 c 4
 347 310 365 348 372 390 c 4
 374 399 374 408 374 417 c 0
 374 447 364 470 334 470 c 4
 296 470 279 432 272 390 c 4
EndSplineSet
Colour: ffff00
EndChar

StartChar: f
Encoding: 102 102 107
Width: 540
VWidth: 0
Flags: HMW
LayerCount: 4
Layer: 2
SplineSet
40 440 m 1
 65 600 l 1
 145 600 l 1
 153 650 l 2
 177 803 299 870 428 870 c 0
 552 870 616 821 628 810 c 1
 536 670 l 1
 528 675 504 690 469 690 c 0
 439 690 407 677 400 630 c 2
 395 600 l 1
 535 600 l 1
 510 440 l 1
 380 440 l 1
 310 0 l 1
 40 0 l 1
 110 440 l 1
 40 440 l 1
EndSplineSet
Layer: 3
SplineSet
44 470 m 6
 60 570 l 6
 63 586 79 600 95 600 c 6
 145 600 l 5
 153 650 l 6
 177 803 299 870 428 870 c 4
 521 870 578 841 604 825 c 4
 616 818 618 810 616 798 c 4
 615 792 612 784 609 780 c 6
 549 690 l 6
 544 683 538 678 529 678 c 4
 526 678 522 678 518 680 c 4
 507 685 488 690 469 690 c 4
 439 690 407 677 400 630 c 6
 395 600 l 5
 505 600 l 6
 521 600 533 586 530 570 c 6
 514 470 l 6
 511 454 496 440 480 440 c 6
 380 440 l 5
 316 40 l 6
 313 18 292 0 270 0 c 6
 80 0 l 6
 60 0 46 15 46 34 c 0
 46 36 46 38 46 40 c 6
 110 440 l 5
 70 440 l 6
 54 440 41 454 44 470 c 6
EndSplineSet
Colour: ffff00
EndChar

StartChar: t
Encoding: 116 116 108
Width: 530
VWidth: 0
Flags: HMW
LayerCount: 4
Layer: 2
SplineSet
30 440 m 1
 55 600 l 1
 135 600 l 1
 164 780 l 1
 414 780 l 1
 385 600 l 1
 525 600 l 1
 500 440 l 1
 370 440 l 1
 338 240 l 2
 337 233 336 226 336 220 c 0
 336 184 356 170 377 170 c 0
 406 170 436 189 452 200 c 1
 480 60 l 1
 453 36 363 -20 237 -20 c 0
 125 -20 57 30 57 144 c 0
 57 161 59 180 62 200 c 2
 100 440 l 1
 30 440 l 1
EndSplineSet
Layer: 3
SplineSet
34 470 m 2
 50 570 l 2
 53 586 69 600 85 600 c 2
 135 600 l 1
 157 740 l 2
 160 762 182 780 204 780 c 2
 374 780 l 2
 394 780 407 765 407 746 c 0
 407 744 407 742 407 740 c 2
 385 600 l 1
 495 600 l 2
 511 600 523 586 520 570 c 2
 504 470 l 2
 501 454 486 440 470 440 c 2
 370 440 l 1
 338 240 l 2
 337 233 336 226 336 220 c 0
 336 184 356 170 377 170 c 0
 394 170 407 174 419 180 c 0
 429 185 439 195 446 195 c 0
 454 195 455 187 457 179 c 2
 474 87 l 2
 475 79 476 71 475 65 c 0
 473 55 461 45 451 39 c 0
 404 9 347 -20 237 -20 c 0
 125 -20 57 30 57 144 c 0
 57 161 59 180 62 200 c 2
 100 440 l 1
 60 440 l 2
 44 440 31 454 34 470 c 2
EndSplineSet
Colour: ffff00
EndChar

StartChar: r
Encoding: 114 114 109
Width: 520
VWidth: 0
Flags: HMW
LayerCount: 4
Layer: 2
SplineSet
0 0 m 1
 95 600 l 1
 355 600 l 1
 340 503 l 1
 384 559 448 610 537 610 c 1
 503 399 l 1
 486 403 469 405 454 405 c 0
 400 405 361 379 333 335 c 1
 280 0 l 1
 0 0 l 1
EndSplineSet
Layer: 3
SplineSet
6 40 m 2
 89 560 l 2
 92 582 113 600 135 600 c 2
 315 600 l 2
 335 600 349 585 349 566 c 0
 349 564 349 562 349 560 c 2
 340 503 l 1
 380 556 439 605 511 605 c 0
 525 605 533 600 533 587 c 0
 533 585 532 583 532 580 c 2
 507 420 l 2
 505 406 501 399 493 399 c 0
 483 399 478 405 454 405 c 0
 400 405 361 379 333 335 c 1
 286 40 l 2
 283 18 262 0 240 0 c 2
 40 0 l 2
 20 0 6 15 6 34 c 0
 6 36 6 38 6 40 c 2
EndSplineSet
Colour: ffff00
EndChar

StartChar: m
Encoding: 109 109 110
Width: 1105
VWidth: 0
Flags: HMW
LayerCount: 4
Layer: 2
SplineSet
-10 0 m 1
 85 600 l 1
 345 600 l 1
 331 513 l 1
 369 558 434 610 527 610 c 0
 611 610 671 573 690 499 c 1
 725 545 794 610 897 610 c 0
 1000 610 1066 553 1066 442 c 0
 1066 426 1065 409 1062 390 c 2
 1000 0 l 1
 730 0 l 1
 782 330 l 2
 784 345 786 358 786 368 c 0
 786 399 775 410 755 410 c 0
 725 410 706 385 685 349 c 1
 630 0 l 1
 360 0 l 1
 412 330 l 2
 414 345 416 358 416 368 c 0
 416 399 405 410 385 410 c 0
 355 410 336 385 315 349 c 1
 260 0 l 1
 -10 0 l 1
EndSplineSet
Layer: 3
SplineSet
-4 40 m 2
 79 560 l 2
 82 582 103 600 125 600 c 2
 305 600 l 2
 325 600 339 585 339 566 c 0
 339 564 339 562 339 560 c 2
 331 513 l 1
 369 558 434 610 527 610 c 0
 611 610 671 573 690 499 c 1
 725 545 794 610 897 610 c 0
 1000 610 1066 553 1066 442 c 0
 1066 426 1065 409 1062 390 c 2
 1006 40 l 2
 1003 18 982 0 960 0 c 2
 770 0 l 2
 750 0 736 15 736 34 c 0
 736 36 736 38 736 40 c 2
 782 330 l 2
 784 345 786 358 786 368 c 0
 786 399 775 410 755 410 c 0
 725 410 706 385 685 349 c 1
 636 40 l 2
 633 18 612 0 590 0 c 2
 400 0 l 2
 380 0 366 15 366 34 c 0
 366 36 366 38 366 40 c 2
 412 330 l 2
 414 345 416 358 416 368 c 0
 416 399 405 410 385 410 c 0
 355 410 336 385 315 349 c 1
 266 40 l 2
 263 18 242 0 220 0 c 2
 30 0 l 2
 10 0 -4 15 -4 34 c 0
 -4 36 -4 38 -4 40 c 2
EndSplineSet
Colour: ffff00
EndChar

StartChar: j
Encoding: 106 106 111
Width: 400
VWidth: 0
Flags: HMW
LayerCount: 4
Layer: 2
SplineSet
-38 -240 m 1
 95 600 l 1
 375 600 l 1
 258 -140 l 2
 248 -204 212 -250 100 -250 c 0
 32 -250 -38 -240 -38 -240 c 1
125 660 m 1
 153 840 l 1
 393 840 l 1
 365 660 l 1
 125 660 l 1
EndSplineSet
Layer: 3
SplineSet
-35 -220 m 2
 89 560 l 2
 92 582 113 600 135 600 c 2
 335 600 l 2
 355 600 369 585 369 566 c 0
 369 564 369 562 369 560 c 2
 258 -140 l 2
 248 -204 212 -250 100 -250 c 0
 38 -250 -23 -240 -23 -240 c 1
 -34 -238 -37 -233 -35 -220 c 2
129 690 m 2
 148 810 l 2
 151 826 167 840 183 840 c 2
 363 840 l 2
 379 840 391 826 388 810 c 2
 369 690 l 2
 366 674 351 660 335 660 c 2
 155 660 l 2
 139 660 126 674 129 690 c 2
EndSplineSet
Colour: ffff00
EndChar

StartChar: k
Encoding: 107 107 112
Width: 770
VWidth: 0
Flags: HMW
LayerCount: 4
Layer: 2
SplineSet
0 0 m 1
 133 840 l 1
 403 840 l 1
 332 390 l 1
 372 390 l 1
 495 600 l 1
 785 600 l 1
 579 310 l 1
 710 0 l 1
 410 0 l 1
 343 210 l 1
 303 210 l 1
 270 0 l 1
 0 0 l 1
EndSplineSet
Layer: 3
SplineSet
6 40 m 6
 127 800 l 6
 130 822 151 840 173 840 c 6
 363 840 l 6
 383 840 397 825 397 806 c 0
 397 804 397 802 397 800 c 6
 332 390 l 5
 372 390 l 5
 472 560 l 6
 487 587 504 600 533 600 c 6
 728 600 l 6
 751 600 764 591 764 578 c 0
 764 572 762 566 757 560 c 6
 579 310 l 5
 696 40 l 6
 698 35 700 29 699 25 c 4
 697 10 680 0 655 0 c 6
 445 0 l 6
 416 0 404 13 396 40 c 6
 343 210 l 5
 303 210 l 5
 276 40 l 6
 273 18 252 0 230 0 c 6
 40 0 l 6
 20 0 6 15 6 34 c 0
 6 36 6 38 6 40 c 6
EndSplineSet
Colour: ffff00
EndChar

StartChar: exclam
Encoding: 33 33 113
Width: 400
VWidth: 0
Flags: HMW
LayerCount: 4
Layer: 2
SplineSet
133 840 m 1
 413 840 l 1
 293 270 l 1
 73 270 l 1
 133 840 l 1
20 0 m 1
 52 200 l 1
 292 200 l 1
 260 0 l 1
 20 0 l 1
EndSplineSet
Layer: 3
SplineSet
129 800 m 5
 132 822 151 840 173 840 c 6
 373 840 l 6
 393 840 405 825 405 806 c 4
 405 804 405 802 405 800 c 5
 301 310 l 5
 298 288 278 270 256 270 c 6
 110 270 l 6
 90 270 77 285 77 304 c 4
 77 306 77 308 77 310 c 5
 129 800 l 5
25 30 m 6
 47 170 l 6
 50 186 66 200 82 200 c 6
 262 200 l 6
 276 200 287 189 287 175 c 4
 287 173 287 172 287 170 c 6
 265 30 l 6
 262 14 246 0 230 0 c 6
 50 0 l 6
 36 0 25 11 25 25 c 4
 25 27 25 28 25 30 c 6
EndSplineSet
Colour: ffff00
EndChar

StartChar: quotedbl
Encoding: 34 34 114
Width: 580
VWidth: 0
Flags: HMW
LayerCount: 4
Layer: 2
SplineSet
113 840 m 1
 343 840 l 1
 236 480 l 1
 106 480 l 1
 113 840 l 1
383 840 m 1
 613 840 l 1
 506 480 l 1
 376 480 l 1
 383 840 l 1
EndSplineSet
Layer: 3
SplineSet
112 810 m 5
 115 826 131 840 147 840 c 6
 309 840 l 6
 325 840 337 826 334 810 c 5
 245 510 l 5
 242 494 226 480 210 480 c 6
 132 480 l 6
 116 480 104 494 107 510 c 5
 112 810 l 5
382 810 m 5
 385 826 401 840 417 840 c 6
 579 840 l 6
 595 840 607 826 604 810 c 5
 515 510 l 5
 512 494 496 480 480 480 c 6
 402 480 l 6
 386 480 374 494 377 510 c 5
 382 810 l 5
EndSplineSet
Colour: ffff00
EndChar

StartChar: numbersign
Encoding: 35 35 115
Width: 960
VWidth: 0
Flags: HMW
LayerCount: 4
Layer: 2
SplineSet
-1 180 m 1
 27 360 l 1
 177 360 l 1
 226 480 l 1
 106 480 l 1
 135 660 l 1
 300 660 l 1
 373 840 l 1
 583 840 l 1
 510 660 l 1
 660 660 l 1
 733 840 l 1
 943 840 l 1
 870 660 l 1
 975 660 l 1
 946 480 l 1
 796 480 l 1
 747 360 l 1
 867 360 l 1
 839 180 l 1
 674 180 l 1
 600 0 l 1
 390 0 l 1
 464 180 l 1
 314 180 l 1
 240 0 l 1
 30 0 l 1
 104 180 l 1
 -1 180 l 1
387 360 m 1
 537 360 l 1
 586 480 l 1
 436 480 l 1
 387 360 l 1
EndSplineSet
Layer: 3
SplineSet
3 210 m 2
 22 330 l 2
 25 346 41 360 57 360 c 2
 177 360 l 1
 226 480 l 1
 136 480 l 2
 120 480 108 494 111 510 c 2
 130 630 l 2
 133 646 149 660 165 660 c 2
 300 660 l 1
 360 810 l 2
 367 826 382 840 403 840 c 2
 553 840 l 2
 567 840 574 828 572 817 c 0
 572 815 571 812 570 810 c 2
 510 660 l 1
 660 660 l 1
 720 810 l 2
 727 826 742 840 763 840 c 2
 913 840 l 2
 927 840 934 828 932 817 c 0
 932 815 931 812 930 810 c 2
 870 660 l 1
 945 660 l 2
 961 660 973 646 970 630 c 2
 951 510 l 2
 948 494 932 480 916 480 c 2
 796 480 l 1
 747 360 l 1
 837 360 l 2
 853 360 865 346 862 330 c 2
 843 210 l 2
 840 194 825 180 809 180 c 2
 674 180 l 1
 613 30 l 2
 606 14 591 0 570 0 c 2
 420 0 l 2
 406 0 399 12 401 23 c 0
 401 25 402 28 403 30 c 2
 464 180 l 1
 314 180 l 1
 253 30 l 2
 246 14 231 0 210 0 c 2
 60 0 l 2
 46 0 39 12 41 23 c 0
 41 25 42 28 43 30 c 2
 104 180 l 1
 29 180 l 2
 13 180 0 194 3 210 c 2
387 360 m 1
 537 360 l 1
 586 480 l 1
 436 480 l 1
 387 360 l 1
EndSplineSet
Colour: ffff00
EndChar

StartChar: dollar
Encoding: 36 36 116
Width: 760
VWidth: 0
Flags: HMW
LayerCount: 4
Layer: 2
SplineSet
-17 80 m 1
 134 280 l 1
 180 245 240 190 310 190 c 0
 354 190 391 197 396 230 c 0
 396 232 397 234 397 236 c 0
 397 260 371 271 354 280 c 0
 319 299 258 328 216 355 c 0
 158 393 80 447 80 552 c 0
 80 564 81 577 83 590 c 0
 106 738 224 814 349 844 c 1
 367 960 l 1
 577 960 l 1
 560 854 l 1
 677 835 748 777 770 760 c 1
 642 580 l 1
 573 625 527 650 473 650 c 0
 435 650 402 644 397 610 c 0
 397 608 397 607 397 605 c 0
 397 583 420 571 439 560 c 0
 489 532 505 524 549 500 c 0
 615 464 712 414 712 286 c 0
 712 272 711 257 708 240 c 0
 685 93 564 19 424 -8 c 1
 406 -120 l 1
 196 -120 l 1
 212 -16 l 1
 73 1 6 62 -17 80 c 1
EndSplineSet
Layer: 3
SplineSet
5 110 m 2
 104 245 l 2
 113 258 126 265 137 265 c 0
 147 265 155 262 165 255 c 0
 212 221 252 190 310 190 c 0
 354 190 391 197 396 230 c 0
 396 232 397 234 397 236 c 0
 397 260 371 271 354 280 c 0
 319 299 258 328 216 355 c 0
 158 393 80 447 80 552 c 0
 80 564 81 577 83 590 c 0
 106 738 224 814 349 844 c 1
 362 930 l 2
 365 946 381 960 397 960 c 2
 547 960 l 2
 563 960 575 946 572 930 c 2
 560 854 l 1
 653 838 720 797 739 785 c 0
 751 778 760 769 760 758 c 0
 760 757 760 756 760 755 c 0
 758 745 754 739 748 730 c 2
 667 615 l 2
 658 602 645 595 634 595 c 0
 627 595 616 597 610 600 c 0
 570 626 527 650 473 650 c 0
 435 650 402 644 397 610 c 0
 397 608 397 607 397 605 c 0
 397 583 420 571 439 560 c 0
 489 532 505 524 549 500 c 0
 615 464 712 414 712 286 c 0
 712 272 711 257 708 240 c 0
 685 93 564 19 424 -8 c 1
 411 -90 l 2
 408 -106 392 -120 376 -120 c 2
 226 -120 l 2
 210 -120 198 -106 201 -90 c 2
 212 -16 l 1
 102 -2 37 39 14 55 c 0
 3 62 -7 71 -7 82 c 0
 -7 93 -1 101 5 110 c 2
EndSplineSet
Colour: ffff00
EndChar

StartChar: percent
Encoding: 37 37 117
Width: 1050
VWidth: 0
Flags: HMW
LayerCount: 4
Layer: 2
SplineSet
60 630 m 0
 79 749 177 850 315 850 c 0
 437 850 503 770 503 669 c 0
 503 656 502 643 500 630 c 0
 481 511 383 410 245 410 c 0
 123 410 57 490 57 591 c 0
 57 604 58 617 60 630 c 0
220 630 m 0
 218 617 217 606 217 595 c 0
 217 554 232 530 264 530 c 0
 304 530 331 569 341 630 c 0
 343 642 344 654 344 664 c 0
 344 705 328 730 296 730 c 0
 256 730 230 691 220 630 c 0
220 0 m 1
 60 0 l 1
 467 420 l 1
 843 840 l 1
 1003 840 l 1
 597 420 l 1
 220 0 l 1
563 210 m 0
 582 329 680 430 818 430 c 0
 940 430 1006 350 1006 249 c 0
 1006 236 1005 223 1003 210 c 0
 984 91 886 -10 748 -10 c 0
 626 -10 560 70 560 171 c 0
 560 184 561 197 563 210 c 0
723 210 m 0
 721 197 720 186 720 175 c 0
 720 134 735 110 767 110 c 0
 807 110 834 149 844 210 c 0
 846 222 847 234 847 244 c 0
 847 285 831 310 799 310 c 0
 759 310 733 271 723 210 c 0
EndSplineSet
Layer: 3
SplineSet
60 630 m 0
 79 749 177 850 315 850 c 0
 437 850 503 770 503 669 c 0
 503 656 502 643 500 630 c 0
 481 511 383 410 245 410 c 0
 123 410 57 490 57 591 c 0
 57 604 58 617 60 630 c 0
220 630 m 0
 218 617 217 606 217 595 c 0
 217 554 232 530 264 530 c 0
 304 530 331 569 341 630 c 0
 343 642 344 654 344 664 c 0
 344 705 328 730 296 730 c 0
 256 730 230 691 220 630 c 0
863 840 m 2
 983 840 l 2
 989 840 992 836 991 831 c 0
 991 828 987 823 985 820 c 2
 597 420 l 1
 233 15 l 2
 223 4 213 0 200 0 c 2
 80 0 l 2
 74 0 71 4 72 9 c 0
 72 12 76 17 78 20 c 2
 467 420 l 1
 830 825 l 2
 840 836 850 840 863 840 c 2
563 210 m 0
 582 329 680 430 818 430 c 0
 940 430 1006 350 1006 249 c 0
 1006 236 1005 223 1003 210 c 0
 984 91 886 -10 748 -10 c 0
 626 -10 560 70 560 171 c 0
 560 184 561 197 563 210 c 0
723 210 m 0
 721 197 720 186 720 175 c 0
 720 134 735 110 767 110 c 0
 807 110 834 149 844 210 c 0
 846 222 847 234 847 244 c 0
 847 285 831 310 799 310 c 0
 759 310 733 271 723 210 c 0
EndSplineSet
EndChar

StartChar: ampersand
Encoding: 38 38 118
Width: 870
VWidth: 0
Flags: HMW
LayerCount: 4
Layer: 2
SplineSet
13 210 m 0
 35 348 139 414 221 452 c 1
 201 483 184 522 184 572 c 0
 184 584 185 597 187 610 c 0
 213 775 354 860 486 860 c 0
 604 860 701 792 701 659 c 0
 701 644 700 627 697 610 c 0
 683 521 609 449 533 402 c 1
 610 323 l 1
 656 371 697 420 697 420 c 1
 832 330 l 1
 832 330 781 267 726 206 c 1
 801 130 l 1
 657 -20 l 1
 573 69 l 1
 491 16 389 -20 287 -20 c 0
 143 -20 10 46 10 177 c 0
 10 188 11 199 13 210 c 0
278 240 m 0
 277 236 277 233 277 230 c 0
 277 195 306 170 357 170 c 0
 386 170 417 181 450 199 c 1
 340 315 l 1
 312 300 284 277 278 240 c 0
387 610 m 0
 386 604 386 598 386 593 c 0
 386 558 402 533 421 514 c 1
 461 536 501 572 507 610 c 0
 508 617 509 624 509 631 c 0
 509 666 493 690 459 690 c 0
 419 690 394 656 387 610 c 0
EndSplineSet
Layer: 3
SplineSet
13 210 m 0
 35 348 139 414 221 452 c 1
 201 483 184 522 184 572 c 0
 184 584 185 597 187 610 c 0
 213 775 354 860 486 860 c 0
 604 860 701 792 701 659 c 0
 701 644 700 627 697 610 c 0
 683 521 609 449 533 402 c 1
 610 323 l 1
 647 361 676 396 676 396 c 1
 682 405 694 410 704 410 c 0
 709 410 714 409 718 406 c 2
 808 347 l 2
 816 342 820 331 818 321 c 0
 817 315 815 310 811 305 c 2
 811 305 773 258 726 207 c 1
 782 150 l 2
 788 144 791 136 790 127 c 0
 789 118 782 111 777 105 c 2
 681 4 l 2
 675 -3 667 -5 659 -5 c 0
 652 -5 640 -2 635 3 c 2
 573 69 l 1
 491 17 389 -20 287 -20 c 0
 143 -20 10 46 10 177 c 0
 10 188 11 199 13 210 c 0
278 240 m 0
 277 236 277 233 277 230 c 0
 277 195 306 170 357 170 c 0
 386 170 417 181 451 199 c 1
 340 315 l 1
 312 300 284 277 278 240 c 0
387 610 m 0
 386 604 386 598 386 593 c 0
 386 558 402 533 421 514 c 1
 461 536 501 572 507 610 c 0
 508 617 509 624 509 631 c 0
 509 666 493 690 459 690 c 0
 419 690 394 656 387 610 c 0
EndSplineSet
Colour: ffff00
EndChar

StartChar: quotesingle
Encoding: 39 39 119
Width: 320
VWidth: 0
Flags: HMW
LayerCount: 4
Layer: 2
SplineSet
113 840 m 1
 353 840 l 1
 246 480 l 1
 106 480 l 1
 113 840 l 1
EndSplineSet
Layer: 3
SplineSet
112 810 m 1
 115 826 131 840 147 840 c 2
 319 840 l 2
 335 840 347 826 344 810 c 1
 255 510 l 1
 252 494 236 480 220 480 c 2
 132 480 l 2
 116 480 104 494 107 510 c 1
 112 810 l 1
EndSplineSet
Colour: ffff00
EndChar

StartChar: parenleft
Encoding: 40 40 120
Width: 480
VWidth: 0
Flags: HMW
LayerCount: 4
Layer: 2
SplineSet
27 360 m 0
 69 625 228 788 421 890 c 1
 517 740 l 1
 411 665 306 545 277 360 c 0
 272 330 270 302 270 275 c 0
 270 137 328 43 397 -20 c 1
 253 -170 l 1
 116 -83 18 48 18 249 c 0
 18 284 21 321 27 360 c 0
EndSplineSet
Layer: 3
SplineSet
27 360 m 0
 70 634 252 800 394 876 c 0
 400 879 407 882 413 882 c 0
 422 882 430 878 435 871 c 2
 503 762 l 2
 506 756 507 750 506 743 c 0
 505 735 499 726 491 720 c 0
 412 664 305 539 277 360 c 0
 272 331 270 304 270 278 c 0
 270 143 326 47 377 0 c 0
 383 -6 385 -15 384 -23 c 0
 383 -30 380 -36 375 -42 c 2
 273 -151 l 2
 266 -158 256 -162 247 -162 c 0
 241 -162 236 -159 230 -156 c 0
 128 -90 18 43 18 255 c 0
 18 288 21 323 27 360 c 0
EndSplineSet
Colour: ffff00
EndChar

StartChar: parenright
Encoding: 41 41 121
Width: 480
VWidth: 0
Flags: HMW
LayerCount: 4
Layer: 2
SplineSet
447 360 m 0
 405 95 246 -68 53 -170 c 1
 -43 -20 l 1
 63 55 168 175 197 360 c 0
 202 390 204 418 204 445 c 0
 204 583 146 677 77 740 c 1
 221 890 l 1
 358 803 456 672 456 471 c 0
 456 436 453 399 447 360 c 0
EndSplineSet
Layer: 3
SplineSet
447 360 m 0
 404 86 222 -80 80 -156 c 0
 74 -159 67 -162 61 -162 c 0
 52 -162 44 -158 39 -151 c 2
 -29 -42 l 2
 -32 -36 -33 -30 -32 -23 c 0
 -31 -15 -25 -6 -17 0 c 0
 62 56 169 181 197 360 c 0
 202 389 204 416 204 442 c 0
 204 577 148 673 97 720 c 0
 91 726 89 735 90 743 c 0
 91 750 94 756 99 762 c 2
 201 871 l 2
 208 878 218 882 227 882 c 0
 233 882 238 879 244 876 c 0
 346 810 456 677 456 465 c 0
 456 432 453 397 447 360 c 0
EndSplineSet
Colour: ffff00
EndChar

StartChar: asterisk
Encoding: 42 42 122
Width: 660
VWidth: 0
Flags: HMW
LayerCount: 4
Layer: 2
SplineSet
69 554 m 1
 165 754 l 1
 310 660 l 1
 298 840 l 1
 508 840 l 1
 440 660 l 1
 613 754 l 1
 647 554 l 1
 460 536 l 1
 579 414 l 1
 389 290 l 1
 343 460 l 1
 243 290 l 1
 93 414 l 1
 250 536 l 1
 69 554 l 1
EndSplineSet
Layer: 3
SplineSet
79 570 m 0
 80 574 81 579 83 583 c 2
 152 725 l 2
 157 735 164 743 174 743 c 0
 182 743 186 740 190 738 c 2
 310 660 l 1
 300 810 l 1
 300 810 300 815 301 820 c 0
 303 833 315 840 328 840 c 2
 478 840 l 2
 491 840 501 833 499 820 c 0
 498 815 496 810 496 810 c 1
 440 660 l 1
 584 738 l 2
 588 740 594 743 602 743 c 0
 612 743 617 735 618 725 c 2
 641 583 l 2
 641 579 642 574 641 570 c 0
 639 559 626 554 615 552 c 2
 460 536 l 1
 559 434 l 2
 564 428 567 423 566 415 c 0
 564 405 559 401 552 396 c 2
 416 308 l 2
 410 304 404 302 398 302 c 0
 390 302 385 311 382 319 c 2
 343 460 l 1
 260 319 l 2
 255 311 246 302 238 302 c 0
 232 302 226 304 222 308 c 2
 114 396 l 2
 109 401 104 405 106 415 c 0
 107 423 112 428 119 434 c 2
 250 536 l 1
 99 552 l 2
 88 554 77 559 79 570 c 0
EndSplineSet
Colour: ffff00
EndChar

StartChar: plus
Encoding: 43 43 123
Width: 640
VWidth: 0
Flags: HMW
LayerCount: 4
Layer: 2
SplineSet
33 270 m 1
 61 450 l 1
 211 450 l 1
 235 600 l 1
 475 600 l 1
 451 450 l 1
 601 450 l 1
 573 270 l 1
 423 270 l 1
 399 120 l 1
 159 120 l 1
 183 270 l 1
 33 270 l 1
EndSplineSet
Layer: 3
SplineSet
38 300 m 2
 57 420 l 2
 60 436 75 450 91 450 c 2
 211 450 l 1
 230 570 l 2
 233 586 249 600 265 600 c 2
 445 600 l 2
 461 600 473 586 470 570 c 2
 451 450 l 1
 571 450 l 2
 587 450 600 436 597 420 c 2
 578 300 l 2
 575 284 559 270 543 270 c 2
 423 270 l 1
 404 150 l 2
 401 134 385 120 369 120 c 2
 189 120 l 2
 173 120 161 134 164 150 c 2
 183 270 l 1
 63 270 l 2
 47 270 35 284 38 300 c 2
EndSplineSet
Colour: ffff00
EndChar

StartChar: comma
Encoding: 44 44 124
Width: 360
VWidth: 0
Flags: HMW
LayerCount: 4
Layer: 2
SplineSet
-37 -110 m 1
 10 -110 69 -86 90 0 c 1
 0 0 l 1
 32 200 l 1
 272 200 l 1
 245 30 l 2
 221 -124 96 -200 -32 -200 c 1
 -37 -110 l 1
EndSplineSet
Layer: 3
SplineSet
-36 -125 m 4
 -34 -114 -24 -110 -16 -108 c 4
 15 -102 69 -86 90 0 c 5
 30 0 l 6
 16 0 5 11 5 25 c 4
 5 27 5 28 5 30 c 6
 27 170 l 6
 30 186 46 200 62 200 c 6
 242 200 l 6
 256 200 267 189 267 175 c 4
 267 173 267 172 267 170 c 6
 245 30 l 6
 221 -124 92 -200 -12 -200 c 4
 -23 -200 -33 -194 -34 -180 c 6
 -36 -131 l 5
 -36 -131 -36 -128 -36 -125 c 4
EndSplineSet
Colour: ffff00
EndChar

StartChar: hyphen
Encoding: 45 45 125
Width: 640
VWidth: 0
Flags: HMW
LayerCount: 4
Layer: 2
SplineSet
33 270 m 1
 61 450 l 1
 601 450 l 1
 573 270 l 1
 33 270 l 1
EndSplineSet
Layer: 3
SplineSet
38 300 m 2
 57 420 l 2
 60 436 75 450 91 450 c 2
 571 450 l 2
 587 450 600 436 597 420 c 2
 578 300 l 2
 575 284 559 270 543 270 c 2
 63 270 l 2
 47 270 35 284 38 300 c 2
EndSplineSet
Colour: ffff00
EndChar

StartChar: period
Encoding: 46 46 126
Width: 360
VWidth: 0
Flags: HMW
LayerCount: 4
Layer: 2
SplineSet
0 0 m 1
 32 200 l 1
 272 200 l 1
 240 0 l 1
 0 0 l 1
EndSplineSet
Layer: 3
SplineSet
5 30 m 6
 27 170 l 6
 30 186 46 200 62 200 c 6
 242 200 l 6
 256 200 267 189 267 175 c 4
 267 173 267 172 267 170 c 6
 245 30 l 6
 242 14 226 0 210 0 c 6
 30 0 l 6
 16 0 5 11 5 25 c 4
 5 27 5 28 5 30 c 6
EndSplineSet
Colour: ffff00
EndChar

StartChar: slash
Encoding: 47 47 127
Width: 600
VWidth: 0
Flags: HMW
LayerCount: 4
Layer: 2
SplineSet
-30 0 m 1
 433 840 l 1
 643 840 l 1
 180 0 l 1
 -30 0 l 1
EndSplineSet
Layer: 3
SplineSet
-21 12 m 0
 -20 20 -13 30 -13 30 c 1
 416 810 l 2
 425 826 442 840 465 840 c 2
 614 840 l 2
 628 840 635 836 634 828 c 0
 633 820 626 810 626 810 c 1
 197 30 l 2
 188 14 171 0 148 0 c 2
 -1 0 l 2
 -15 0 -22 4 -21 12 c 0
EndSplineSet
Colour: ffff00
EndChar

StartChar: zero
Encoding: 48 48 128
Width: 860
VWidth: 0
Flags: HMW
LayerCount: 4
Layer: 2
SplineSet
37 420 m 0
 75 658 256 860 506 860 c 0
 725 860 844 704 844 505 c 0
 844 477 842 449 837 420 c 0
 799 182 617 -20 367 -20 c 0
 148 -20 30 135 30 334 c 0
 30 362 32 391 37 420 c 0
327 420 m 0
 323 394 321 370 321 348 c 0
 321 268 348 220 405 220 c 0
 477 220 528 298 547 420 c 0
 551 446 553 470 553 491 c 0
 553 571 525 620 468 620 c 0
 396 620 346 542 327 420 c 0
EndSplineSet
Layer: 3
SplineSet
37 420 m 0
 75 658 256 860 506 860 c 0
 725 860 844 704 844 505 c 0
 844 477 842 449 837 420 c 0
 799 182 617 -20 367 -20 c 0
 148 -20 30 135 30 334 c 0
 30 362 32 391 37 420 c 0
327 420 m 0
 323 394 321 370 321 348 c 0
 321 268 348 220 405 220 c 0
 477 220 528 298 547 420 c 0
 551 446 553 470 553 491 c 0
 553 571 525 620 468 620 c 0
 396 620 346 542 327 420 c 0
EndSplineSet
Colour: ffff00
EndChar

StartChar: one
Encoding: 49 49 129
Width: 600
VWidth: 0
Flags: HMW
LayerCount: 4
Layer: 2
SplineSet
59 690 m 1
 353 840 l 1
 593 840 l 1
 460 0 l 1
 180 0 l 1
 275 600 l 1
 121 510 l 1
 59 690 l 1
EndSplineSet
Layer: 3
SplineSet
67 675 m 0
 70 691 82 703 97 710 c 2
 277 800 l 1
 329 828 350 840 383 840 c 2
 553 840 l 2
 573 840 587 825 587 806 c 0
 587 804 587 802 587 800 c 2
 466 40 l 2
 463 18 442 0 420 0 c 2
 220 0 l 2
 200 0 186 15 186 34 c 0
 186 36 186 38 186 40 c 2
 275 600 l 1
 175 538 l 1
 175 538 147 520 132 520 c 0
 122 520 115 529 111 540 c 2
 72 655 l 2
 70 661 66 669 67 675 c 0
EndSplineSet
Colour: ffff00
EndChar

StartChar: two
Encoding: 50 50 130
Width: 800
VWidth: 0
Flags: HMW
LayerCount: 4
Layer: 2
SplineSet
102 710 m 1
 154 766 293 860 466 860 c 0
 668 860 768 748 768 632 c 0
 768 621 767 611 765 600 c 0
 747 485 678 434 609 370 c 1
 413 210 l 1
 723 210 l 1
 690 0 l 1
 0 0 l 1
 32 200 l 1
 361 450 l 2
 404 482 472 521 480 570 c 0
 481 574 481 578 481 582 c 0
 481 619 450 640 390 640 c 0
 313 640 243 590 209 560 c 1
 102 710 l 1
EndSplineSet
Layer: 3
SplineSet
6 40 m 2
 25 160 l 2
 31 197 53 217 77 235 c 2
 361 450 l 2
 404 482 472 521 480 570 c 0
 481 574 481 578 481 582 c 0
 481 619 450 640 390 640 c 0
 320 640 263 598 237 582 c 0
 229 577 219 575 211 575 c 0
 196 575 185 584 179 595 c 2
 121 690 l 2
 117 697 116 703 118 715 c 0
 120 727 132 742 144 750 c 0
 201 791 308 860 466 860 c 0
 668 860 768 748 768 632 c 0
 768 621 767 611 765 600 c 0
 747 485 678 434 609 370 c 1
 413 210 l 1
 693 210 l 2
 713 210 727 195 727 176 c 0
 727 174 727 172 727 170 c 2
 706 40 l 2
 703 18 682 0 660 0 c 2
 40 0 l 2
 20 0 6 15 6 34 c 0
 6 36 6 38 6 40 c 2
EndSplineSet
Colour: ffff00
EndChar

StartChar: three
Encoding: 51 51 131
Width: 770
VWidth: 0
Flags: HMW
LayerCount: 4
Layer: 2
SplineSet
-26 90 m 1
 131 260 l 1
 155 231 228 190 320 190 c 0
 395 190 425 220 431 260 c 0
 432 263 432 267 432 270 c 0
 432 305 402 330 342 330 c 2
 212 330 l 1
 241 510 l 1
 371 510 l 2
 429 510 456 548 463 590 c 0
 464 594 464 597 464 600 c 0
 464 636 430 660 385 660 c 0
 308 660 237 620 203 590 c 1
 94 720 l 1
 146 776 273 860 446 860 c 0
 648 860 748 756 748 635 c 0
 748 623 747 612 745 600 c 0
 734 531 696 471 631 427 c 1
 689 392 719 338 719 270 c 0
 719 257 718 244 716 230 c 0
 691 73 524 -20 307 -20 c 0
 136 -20 47 20 -26 90 c 1
EndSplineSet
Layer: 3
SplineSet
-5 115 m 2
 96 225 l 2
 106 236 119 245 134 245 c 0
 142 245 152 243 158 238 c 0
 179 223 235 190 320 190 c 0
 395 190 425 220 431 260 c 0
 432 263 432 267 432 270 c 0
 432 305 402 330 342 330 c 2
 252 330 l 2
 232 330 219 345 219 364 c 0
 219 366 219 368 219 370 c 2
 234 470 l 2
 237 492 259 510 281 510 c 2
 371 510 l 2
 429 510 456 548 463 590 c 0
 464 594 464 597 464 600 c 0
 464 636 430 660 385 660 c 0
 315 660 252 623 226 607 c 0
 218 602 213 600 205 600 c 0
 190 600 180 610 173 620 c 2
 115 695 l 2
 110 701 107 708 109 720 c 0
 111 732 123 747 135 755 c 0
 192 796 290 860 446 860 c 0
 648 860 748 756 748 635 c 0
 748 623 747 612 745 600 c 0
 734 531 696 471 631 427 c 1
 689 392 719 338 719 270 c 0
 719 257 718 244 716 230 c 0
 691 73 524 -20 307 -20 c 0
 128 -20 57 25 5 60 c 0
 -8 68 -16 76 -16 86 c 0
 -16 99 -11 108 -5 115 c 2
EndSplineSet
Colour: ffff00
EndChar

StartChar: four
Encoding: 52 52 132
Width: 800
VWidth: 0
Flags: HMW
LayerCount: 4
Layer: 2
SplineSet
-11 120 m 1
 18 300 l 1
 493 840 l 1
 763 840 l 1
 678 300 l 1
 768 300 l 1
 739 120 l 1
 649 120 l 1
 630 0 l 1
 350 0 l 1
 369 120 l 1
 -11 120 l 1
228 300 m 1
 398 300 l 1
 436 540 l 1
 228 300 l 1
EndSplineSet
Layer: 3
SplineSet
-5 160 m 2
 15 285 l 2
 18 307 46 333 66 355 c 1
 457 800 l 2
 478 823 495 840 528 840 c 2
 723 840 l 2
 743 840 757 825 757 806 c 0
 757 804 757 802 757 800 c 2
 678 300 l 1
 728 300 l 2
 748 300 761 285 761 266 c 0
 761 264 761 262 761 260 c 2
 745 160 l 2
 742 138 721 120 699 120 c 2
 649 120 l 1
 636 40 l 2
 633 18 612 0 590 0 c 2
 390 0 l 2
 370 0 356 15 356 34 c 0
 356 36 356 38 356 40 c 2
 369 120 l 1
 29 120 l 2
 9 120 -5 135 -5 154 c 0
 -5 156 -5 158 -5 160 c 2
228 300 m 1
 398 300 l 1
 436 540 l 1
 228 300 l 1
EndSplineSet
Colour: ffff00
EndChar

StartChar: five
Encoding: 53 53 133
Width: 780
VWidth: 0
Flags: HMW
LayerCount: 4
Layer: 2
SplineSet
-16 90 m 1
 141 260 l 1
 165 231 237 190 329 190 c 0
 404 190 435 220 441 260 c 0
 442 263 442 267 442 270 c 0
 442 305 412 330 352 330 c 0
 279 330 238 300 238 300 c 1
 57 360 l 1
 183 840 l 1
 763 840 l 1
 730 630 l 1
 365 630 l 1
 332 506 l 1
 371 526 422 540 486 540 c 0
 639 540 739 456 739 330 c 0
 739 317 738 304 736 290 c 0
 702 78 534 -20 317 -20 c 0
 146 -20 57 20 -16 90 c 1
EndSplineSet
Layer: 3
SplineSet
5 115 m 2
 106 225 l 2
 116 236 129 245 144 245 c 0
 152 245 162 243 168 238 c 0
 189 223 244 190 329 190 c 0
 404 190 435 220 441 260 c 0
 442 263 442 267 442 270 c 0
 442 305 412 330 352 330 c 0
 322 330 299 323 285 317 c 0
 273 312 255 300 238 300 c 0
 221 300 192 312 192 312 c 1
 95 348 l 2
 77 354 66 365 66 383 c 0
 66 386 66 389 67 392 c 0
 69 406 81 445 81 445 c 1
 174 805 l 2
 178 820 196 840 223 840 c 2
 723 840 l 2
 743 840 757 825 757 806 c 0
 757 804 757 802 757 800 c 2
 736 670 l 2
 733 648 712 630 690 630 c 2
 365 630 l 1
 332 506 l 1
 371 526 422 540 486 540 c 0
 639 540 739 456 739 330 c 0
 739 317 738 304 736 290 c 0
 702 78 534 -20 317 -20 c 0
 138 -20 67 25 15 60 c 0
 2 68 -6 76 -6 86 c 0
 -6 99 -1 108 5 115 c 2
EndSplineSet
Colour: ffff00
EndChar

StartChar: six
Encoding: 54 54 134
Width: 810
VWidth: 0
Flags: HMW
LayerCount: 4
Layer: 2
SplineSet
24 280 m 2
 59 500 l 2
 94 719 255 860 496 860 c 0
 637 860 729 815 780 760 c 1
 655 600 l 1
 632 622 569 660 495 660 c 0
 426 660 349 619 336 540 c 2
 327 486 l 1
 379 523 448 550 537 550 c 0
 658 550 772 486 772 346 c 0
 772 332 771 316 768 300 c 0
 735 91 564 -20 347 -20 c 0
 149 -20 21 88 21 237 c 0
 21 251 22 265 24 280 c 2
304 280 m 0
 303 275 303 270 303 265 c 0
 303 224 333 190 380 190 c 0
 433 190 476 232 484 280 c 0
 485 285 485 290 485 295 c 0
 485 336 456 370 409 370 c 0
 349 370 312 328 304 280 c 0
EndSplineSet
Layer: 3
SplineSet
24 280 m 2
 59 500 l 2
 94 719 255 860 496 860 c 0
 637 860 709 818 754 785 c 0
 764 778 772 765 770 755 c 0
 768 743 764 737 759 730 c 2
 686 635 l 2
 677 623 662 615 647 615 c 0
 639 615 630 617 624 622 c 0
 603 637 553 660 495 660 c 0
 426 660 349 619 336 540 c 2
 327 486 l 1
 379 523 448 550 537 550 c 0
 658 550 772 486 772 346 c 0
 772 332 771 316 768 300 c 0
 735 91 564 -20 347 -20 c 0
 149 -20 21 88 21 237 c 0
 21 251 22 265 24 280 c 2
304 280 m 0
 303 275 303 270 303 265 c 0
 303 224 333 190 380 190 c 0
 433 190 476 232 484 280 c 0
 485 285 485 290 485 295 c 0
 485 336 456 370 409 370 c 0
 349 370 312 328 304 280 c 0
EndSplineSet
EndChar

StartChar: seven
Encoding: 55 55 135
Width: 720
VWidth: 0
Flags: HMW
LayerCount: 4
Layer: 2
SplineSet
80 630 m 1
 113 840 l 1
 763 840 l 1
 735 660 l 1
 350 0 l 1
 50 0 l 1
 430 630 l 1
 80 630 l 1
EndSplineSet
Layer: 3
SplineSet
86 670 m 2
 107 800 l 2
 110 822 131 840 153 840 c 2
 723 840 l 2
 743 840 757 825 757 806 c 0
 757 804 757 802 757 800 c 2
 736 670 l 2
 732 647 702 602 679 565 c 1
 373 40 l 1
 361 14 346 0 317 0 c 2
 104 0 l 2
 81 0 68 9 68 22 c 0
 68 28 70 34 75 40 c 2
 430 630 l 1
 120 630 l 2
 100 630 86 645 86 664 c 0
 86 666 86 668 86 670 c 2
EndSplineSet
Colour: ffff00
EndChar

StartChar: eight
Encoding: 56 56 136
Width: 800
VWidth: 0
Flags: HMW
LayerCount: 4
Layer: 2
SplineSet
5 220 m 0
 21 319 85 392 189 433 c 1
 126 468 95 521 95 585 c 0
 95 596 96 608 98 620 c 0
 119 755 271 860 476 860 c 0
 665 860 780 770 780 650 c 0
 780 640 780 630 778 620 c 0
 765 540 715 474 629 433 c 1
 708 398 748 339 748 261 c 0
 748 248 747 234 745 220 c 0
 720 63 554 -20 337 -20 c 0
 137 -20 2 51 2 185 c 0
 2 196 3 208 5 220 c 0
290 250 m 0
 289 245 289 239 289 234 c 0
 289 192 318 160 365 160 c 0
 418 160 462 200 470 250 c 0
 471 257 472 265 472 272 c 0
 472 314 451 350 395 350 c 0
 330 350 298 300 290 250 c 0
365 600 m 0
 364 592 363 584 363 577 c 0
 363 536 384 510 421 510 c 0
 465 510 496 546 505 600 c 0
 506 608 507 615 507 622 c 0
 507 664 484 690 449 690 c 0
 408 690 374 654 365 600 c 0
EndSplineSet
Layer: 3
SplineSet
5 220 m 0
 21 319 85 392 189 433 c 1
 126 468 95 521 95 585 c 0
 95 596 96 608 98 620 c 0
 119 755 271 860 476 860 c 0
 665 860 780 770 780 650 c 0
 780 640 780 630 778 620 c 0
 765 540 715 474 629 433 c 1
 708 398 748 339 748 261 c 0
 748 248 747 234 745 220 c 0
 720 63 554 -20 337 -20 c 0
 137 -20 2 51 2 185 c 0
 2 196 3 208 5 220 c 0
290 250 m 0
 289 245 289 239 289 234 c 0
 289 192 318 160 365 160 c 0
 418 160 462 200 470 250 c 0
 471 257 472 265 472 272 c 0
 472 314 451 350 395 350 c 0
 330 350 298 300 290 250 c 0
365 600 m 0
 364 592 363 584 363 577 c 0
 363 536 384 510 421 510 c 0
 465 510 496 546 505 600 c 0
 506 608 507 615 507 622 c 0
 507 664 484 690 449 690 c 0
 408 690 374 654 365 600 c 0
EndSplineSet
Colour: ffff00
EndChar

StartChar: nine
Encoding: 57 57 137
Width: 810
VWidth: 0
Flags: HMW
LayerCount: 4
Layer: 2
SplineSet
799 560 m 2
 764 340 l 2
 729 121 568 -20 327 -20 c 0
 186 -20 94 25 43 80 c 1
 168 240 l 1
 191 218 255 180 329 180 c 0
 398 180 475 221 488 300 c 2
 496 354 l 1
 444 317 375 290 286 290 c 0
 165 290 52 355 52 494 c 0
 52 508 53 524 56 540 c 0
 89 749 259 860 476 860 c 0
 674 860 802 752 802 603 c 0
 802 589 801 575 799 560 c 2
519 560 m 0
 520 565 520 570 520 575 c 0
 520 616 490 650 443 650 c 0
 390 650 347 608 339 560 c 0
 338 555 338 550 338 545 c 0
 338 504 367 470 414 470 c 0
 474 470 511 512 519 560 c 0
EndSplineSet
Layer: 3
SplineSet
799 560 m 2
 764 340 l 2
 729 121 568 -20 327 -20 c 0
 186 -20 114 22 69 55 c 0
 59 62 51 75 53 85 c 0
 55 97 59 103 64 110 c 2
 137 205 l 2
 146 217 161 225 176 225 c 0
 184 225 194 223 200 218 c 0
 221 203 271 180 329 180 c 0
 398 180 475 221 488 300 c 2
 496 354 l 1
 444 317 375 290 286 290 c 0
 165 290 52 355 52 494 c 0
 52 508 53 524 56 540 c 0
 89 749 259 860 476 860 c 0
 674 860 802 752 802 603 c 0
 802 589 801 575 799 560 c 2
519 560 m 0
 520 565 520 570 520 575 c 0
 520 616 490 650 443 650 c 0
 390 650 347 608 339 560 c 0
 338 555 338 550 338 545 c 0
 338 504 367 470 414 470 c 0
 474 470 511 512 519 560 c 0
EndSplineSet
EndChar

StartChar: colon
Encoding: 58 58 138
Width: 360
VWidth: 0
Flags: HMW
LayerCount: 4
Layer: 2
SplineSet
0 0 m 1
 32 200 l 1
 272 200 l 1
 240 0 l 1
 0 0 l 1
63 400 m 1
 95 600 l 1
 335 600 l 1
 303 400 l 1
 63 400 l 1
EndSplineSet
Layer: 3
SplineSet
5 30 m 6
 27 170 l 6
 30 186 46 200 62 200 c 6
 242 200 l 6
 256 200 267 189 267 175 c 4
 267 173 267 172 267 170 c 6
 245 30 l 6
 242 14 226 0 210 0 c 6
 30 0 l 6
 16 0 5 11 5 25 c 4
 5 27 5 28 5 30 c 6
68 430 m 6
 90 570 l 6
 93 586 109 600 125 600 c 6
 305 600 l 6
 319 600 330 589 330 575 c 4
 330 573 330 572 330 570 c 6
 308 430 l 6
 305 414 289 400 273 400 c 6
 93 400 l 6
 79 400 68 411 68 425 c 4
 68 427 68 428 68 430 c 6
EndSplineSet
Colour: ffff00
EndChar

StartChar: semicolon
Encoding: 59 59 139
Width: 360
VWidth: 0
Flags: HMW
LayerCount: 4
Layer: 2
SplineSet
63 400 m 1
 95 600 l 1
 335 600 l 1
 303 400 l 1
 63 400 l 1
-37 -110 m 1
 10 -110 69 -86 90 0 c 1
 0 0 l 1
 32 200 l 1
 272 200 l 1
 245 30 l 2
 221 -124 96 -200 -32 -200 c 1
 -37 -110 l 1
EndSplineSet
Layer: 3
SplineSet
-36 -125 m 4
 -34 -114 -24 -110 -16 -108 c 4
 15 -102 69 -86 90 0 c 5
 30 0 l 6
 16 0 5 11 5 25 c 4
 5 27 5 28 5 30 c 6
 27 170 l 6
 30 186 46 200 62 200 c 6
 242 200 l 6
 256 200 267 189 267 175 c 4
 267 173 267 172 267 170 c 6
 245 30 l 6
 221 -124 92 -200 -12 -200 c 4
 -23 -200 -33 -194 -34 -180 c 6
 -36 -131 l 5
 -36 -131 -36 -128 -36 -125 c 4
68 430 m 6
 90 570 l 6
 93 586 109 600 125 600 c 6
 305 600 l 6
 319 600 330 589 330 575 c 4
 330 573 330 572 330 570 c 6
 308 430 l 6
 305 414 289 400 273 400 c 6
 93 400 l 6
 79 400 68 411 68 425 c 4
 68 427 68 428 68 430 c 6
EndSplineSet
Colour: ffff00
EndChar

StartChar: less
Encoding: 60 60 140
Width: 570
VWidth: 0
Flags: HMW
LayerCount: 4
Layer: 2
SplineSet
24 245 m 1
 42 360 l 1
 60 475 l 1
 574 690 l 1
 541 480 l 1
 222 360 l 1
 503 240 l 1
 470 30 l 1
 24 245 l 1
EndSplineSet
Layer: 3
SplineSet
27 263 m 2
 42 360 l 1
 57 457 l 2
 60 473 77 481 92 487 c 2
 542 677 l 1
 542 677 553 682 561 682 c 0
 569 682 572 674 570 660 c 2
 546 514 l 2
 542 491 526 476 509 470 c 2
 222 360 l 1
 475 250 l 2
 488 245 499 233 499 215 c 0
 499 212 499 209 498 206 c 2
 475 60 l 2
 473 46 467 38 459 38 c 0
 451 38 442 43 442 43 c 1
 52 233 l 2
 39 239 24 247 27 263 c 2
EndSplineSet
EndChar

StartChar: equal
Encoding: 61 61 141
Width: 640
VWidth: 0
Flags: HMW
LayerCount: 4
Layer: 2
SplineSet
9 120 m 1
 38 300 l 1
 578 300 l 1
 549 120 l 1
 9 120 l 1
57 420 m 1
 85 600 l 1
 625 600 l 1
 597 420 l 1
 57 420 l 1
EndSplineSet
Layer: 3
SplineSet
14 150 m 2
 33 270 l 2
 36 286 52 300 68 300 c 2
 548 300 l 2
 564 300 576 286 573 270 c 2
 554 150 l 2
 551 134 535 120 519 120 c 2
 39 120 l 2
 23 120 11 134 14 150 c 2
61 450 m 2
 80 570 l 2
 83 586 99 600 115 600 c 2
 595 600 l 2
 611 600 623 586 620 570 c 2
 601 450 l 2
 598 434 583 420 567 420 c 2
 87 420 l 2
 71 420 58 434 61 450 c 2
EndSplineSet
Colour: ffff00
EndChar

StartChar: greater
Encoding: 62 62 142
Width: 570
VWidth: 0
Flags: HMW
LayerCount: 4
Layer: 2
SplineSet
540 475 m 1
 522 360 l 1
 504 245 l 1
 -10 30 l 1
 23 240 l 1
 342 360 l 1
 61 480 l 1
 94 690 l 1
 540 475 l 1
EndSplineSet
Layer: 3
SplineSet
537 457 m 2
 522 360 l 1
 507 263 l 2
 504 247 487 239 472 233 c 2
 22 43 l 1
 22 43 11 38 3 38 c 0
 -5 38 -7 46 -5 60 c 2
 18 206 l 2
 22 229 38 244 55 250 c 2
 342 360 l 1
 89 470 l 2
 76 475 65 487 65 505 c 0
 65 508 65 511 66 514 c 2
 90 660 l 2
 92 674 97 682 105 682 c 0
 113 682 122 677 122 677 c 1
 512 487 l 2
 525 481 540 473 537 457 c 2
EndSplineSet
EndChar

StartChar: question
Encoding: 63 63 143
Width: 690
VWidth: 0
Flags: HMW
LayerCount: 4
Layer: 2
SplineSet
66 730 m 1
 154 798 271 860 416 860 c 0
 579 860 688 771 688 640 c 0
 688 627 687 614 685 600 c 0
 661 449 494 375 462 362 c 1
 443 270 l 1
 223 270 l 1
 241 450 l 1
 335 474 402 516 409 560 c 0
 410 564 410 568 410 571 c 0
 410 600 387 620 348 620 c 0
 294 620 232 586 166 540 c 1
 66 730 l 1
170 0 m 1
 202 200 l 1
 442 200 l 1
 410 0 l 1
 170 0 l 1
EndSplineSet
Layer: 3
SplineSet
77 725 m 0
 79 738 89 746 100 755 c 0
 157 798 275 860 416 860 c 0
 579 860 688 771 688 640 c 0
 688 627 687 614 685 600 c 0
 661 448 494 375 462 362 c 1
 451 310 l 1
 448 288 427 270 405 270 c 2
 261 270 l 2
 241 270 227 285 227 304 c 0
 227 306 227 308 227 310 c 1
 240 435 l 2
 242 447 252 453 267 457 c 0
 337 476 402 516 409 560 c 0
 410 564 410 568 410 571 c 0
 410 600 387 620 348 620 c 0
 301 620 241 591 202 564 c 0
 194 559 186 555 178 555 c 0
 165 555 155 562 149 573 c 2
 81 700 l 2
 77 707 76 717 77 725 c 0
175 30 m 2
 197 170 l 2
 200 186 216 200 232 200 c 2
 412 200 l 2
 428 200 440 186 437 170 c 2
 415 30 l 2
 412 14 396 0 380 0 c 2
 200 0 l 2
 184 0 172 14 175 30 c 2
EndSplineSet
Colour: ffff00
EndChar

StartChar: at
Encoding: 64 64 144
Width: 1100
VWidth: 0
Flags: HMW
LayerCount: 4
Layer: 2
SplineSet
24 340 m 0
 69 622 329 860 626 860 c 0
 893 860 1071 667 1071 423 c 0
 1071 396 1068 368 1064 340 c 0
 1045 218 962 92 769 92 c 0
 694 92 628 124 601 187 c 1
 565 135 512 92 437 92 c 0
 312 92 240 179 240 293 c 0
 240 308 241 324 244 340 c 0
 266 477 373 588 515 588 c 0
 574 588 611 562 633 525 c 1
 642 580 l 1
 840 580 l 1
 796 300 l 2
 795 291 794 282 794 274 c 0
 794 227 818 200 862 200 c 0
 915 200 960 249 974 340 c 0
 978 364 980 387 980 410 c 0
 980 612 836 780 614 780 c 0
 367 780 151 572 114 340 c 0
 110 316 108 293 108 270 c 0
 108 68 252 -100 474 -100 c 0
 562 -100 631 -87 685 -65 c 1
 699 -135 l 1
 633 -161 567 -180 461 -180 c 0
 194 -180 17 13 17 257 c 0
 17 284 19 312 24 340 c 0
468 340 m 0
 467 331 466 323 466 316 c 0
 466 268 492 244 525 244 c 0
 556 244 575 259 587 283 c 1
 588 289 589 294 590 300 c 2
 605 398 l 1
 600 421 586 436 555 436 c 0
 517 436 478 404 468 340 c 0
EndSplineSet
Layer: 3
SplineSet
24 340 m 0
 69 622 329 860 626 860 c 0
 893 860 1071 667 1071 423 c 0
 1071 396 1068 368 1064 340 c 0
 1045 218 962 92 769 92 c 0
 694 92 628 124 601 187 c 1
 565 135 512 92 437 92 c 0
 312 92 240 179 240 293 c 0
 240 308 241 324 244 340 c 0
 266 477 373 588 515 588 c 0
 574 588 611 562 633 525 c 1
 637 550 l 2
 640 566 656 580 672 580 c 2
 810 580 l 2
 826 580 838 566 835 550 c 2
 796 300 l 2
 795 291 794 282 794 274 c 0
 794 227 818 200 862 200 c 0
 915 200 960 249 974 340 c 0
 978 364 980 387 980 410 c 0
 980 612 836 780 614 780 c 0
 367 780 151 572 114 340 c 0
 110 316 108 293 108 270 c 0
 108 68 252 -100 474 -100 c 0
 562 -100 612 -89 658 -75 c 0
 663 -74 668 -72 674 -72 c 0
 684 -72 688 -79 690 -90 c 2
 694 -112 l 2
 695 -115 696 -120 695 -125 c 0
 693 -137 685 -142 674 -145 c 0
 634 -157 576 -180 461 -180 c 0
 194 -180 17 13 17 257 c 0
 17 284 19 312 24 340 c 0
468 340 m 0
 467 331 466 323 466 316 c 0
 466 268 492 244 525 244 c 0
 556 244 575 259 587 283 c 1
 588 289 589 294 590 300 c 2
 605 398 l 1
 600 421 586 436 555 436 c 0
 517 436 478 404 468 340 c 0
EndSplineSet
Colour: ffff00
EndChar

StartChar: A
Encoding: 65 65 145
Width: 980
VWidth: 0
Flags: HMW
LayerCount: 4
Layer: 2
SplineSet
-50 0 m 1
 403 840 l 1
 723 840 l 1
 910 0 l 1
 610 0 l 1
 591 120 l 1
 307 120 l 1
 250 0 l 1
 -50 0 l 1
392 300 m 1
 564 300 l 1
 526 540 l 1
 525 570 l 1
 515 570 l 1
 506 540 l 1
 392 300 l 1
EndSplineSet
Layer: 3
SplineSet
-29 40 m 1
 382 800 l 1
 387 813 408 840 433 840 c 2
 563 840 l 1
 693 840 l 2
 718 840 731 813 732 800 c 1
 901 40 l 1
 903 35 905 29 904 25 c 0
 902 10 885 0 860 0 c 2
 645 0 l 2
 616 0 605 14 601 40 c 2
 589 120 l 1
 309 120 l 1
 271 40 l 2
 259 14 244 0 215 0 c 2
 0 0 l 2
 -23 0 -36 9 -36 22 c 0
 -36 28 -34 34 -29 40 c 1
394 300 m 1
 562 300 l 1
 526 540 l 1
 525 570 l 1
 520 570 l 1
 515 570 l 1
 506 540 l 1
 394 300 l 1
EndSplineSet
Colour: ffff00
EndChar

StartChar: B
Encoding: 66 66 146
Width: 880
VWidth: 0
Flags: HMW
LayerCount: 4
Layer: 2
SplineSet
0 0 m 1
 133 840 l 1
 553 840 l 2
 756 840 850 762 850 647 c 0
 850 635 849 623 847 610 c 0
 835 533 789 472 706 434 c 1
 789 400 829 342 829 263 c 0
 829 249 827 235 825 220 c 0
 799 56 630 0 480 0 c 2
 0 0 l 1
309 180 m 1
 419 180 l 2
 471 180 524 214 531 260 c 0
 532 265 532 270 532 275 c 0
 532 315 507 350 445 350 c 2
 335 350 l 1
 309 180 l 1
359 500 m 1
 469 500 l 2
 513 500 546 542 552 580 c 0
 553 584 553 587 553 591 c 0
 553 626 528 660 485 660 c 2
 385 660 l 1
 359 500 l 1
EndSplineSet
Layer: 3
SplineSet
6 40 m 2
 127 800 l 2
 130 822 151 840 173 840 c 2
 553 840 l 2
 756 840 850 762 850 647 c 0
 850 635 849 623 847 610 c 0
 835 533 789 472 706 434 c 1
 789 400 829 342 829 263 c 0
 829 249 827 235 825 220 c 0
 799 56 630 0 480 0 c 2
 40 0 l 2
 20 0 6 15 6 34 c 0
 6 36 6 38 6 40 c 2
309 180 m 1
 419 180 l 2
 471 180 524 214 531 260 c 0
 532 265 532 270 532 275 c 0
 532 315 507 350 445 350 c 2
 335 350 l 1
 309 180 l 1
359 500 m 1
 469 500 l 2
 513 500 546 542 552 580 c 0
 553 584 553 587 553 591 c 0
 553 626 528 660 485 660 c 2
 385 660 l 1
 359 500 l 1
EndSplineSet
Colour: ffff00
EndChar

StartChar: C
Encoding: 67 67 147
Width: 840
VWidth: 0
Flags: HMW
LayerCount: 4
Layer: 2
SplineSet
37 420 m 0
 75 658 278 860 576 860 c 0
 775 860 880 760 880 760 c 1
 739 560 l 1
 739 560 681 620 578 620 c 0
 451 620 361 542 342 420 c 0
 340 406 339 393 339 380 c 0
 339 281 403 220 515 220 c 0
 618 220 694 280 694 280 c 1
 773 80 l 1
 773 80 636 -20 437 -20 c 0
 171 -20 31 141 31 345 c 0
 31 370 33 394 37 420 c 0
EndSplineSet
Layer: 3
SplineSet
37 420 m 0
 75 658 278 860 576 860 c 0
 741 860 838 792 849 785 c 0
 862 777 870 768 870 758 c 0
 870 746 864 739 858 730 c 2
 765 600 l 2
 756 587 743 580 732 580 c 0
 725 580 714 582 708 585 c 0
 698 589 656 620 578 620 c 0
 451 620 361 542 342 420 c 0
 340 406 339 393 339 380 c 0
 339 281 403 220 515 220 c 0
 593 220 643 251 655 255 c 0
 661 258 674 260 681 260 c 0
 692 260 703 253 708 240 c 2
 759 110 l 2
 763 101 765 95 763 85 c 0
 761 73 750 64 734 55 c 0
 721 48 602 -20 437 -20 c 0
 171 -20 31 141 31 345 c 0
 31 370 33 394 37 420 c 0
EndSplineSet
Colour: ffff00
EndChar

StartChar: D
Encoding: 68 68 148
Width: 900
VWidth: 0
Flags: HMW
LayerCount: 4
Layer: 2
SplineSet
0 0 m 1
 133 840 l 1
 473 840 l 2
 747 840 883 696 883 497 c 0
 883 472 881 446 877 420 c 0
 839 182 648 0 340 0 c 2
 0 0 l 1
313 210 m 1
 363 210 l 2
 481 210 568 301 587 420 c 0
 589 435 591 449 591 463 c 0
 591 560 533 630 430 630 c 2
 380 630 l 1
 313 210 l 1
EndSplineSet
Layer: 3
SplineSet
6 40 m 2
 127 800 l 2
 130 822 151 840 173 840 c 2
 473 840 l 2
 747 840 883 696 883 497 c 0
 883 472 881 446 877 420 c 0
 839 182 648 0 340 0 c 2
 40 0 l 2
 20 0 6 15 6 34 c 0
 6 36 6 38 6 40 c 2
313 210 m 1
 363 210 l 2
 481 210 568 301 587 420 c 0
 589 435 591 449 591 463 c 0
 591 560 533 630 430 630 c 2
 380 630 l 1
 313 210 l 1
EndSplineSet
Colour: ffff00
EndChar

StartChar: E
Encoding: 69 69 149
Width: 790
VWidth: 0
Flags: HMW
LayerCount: 4
Layer: 2
SplineSet
0 0 m 1
 133 840 l 1
 813 840 l 1
 780 630 l 1
 380 630 l 1
 361 510 l 1
 721 510 l 1
 689 310 l 1
 329 310 l 1
 313 210 l 1
 723 210 l 1
 690 0 l 1
 0 0 l 1
EndSplineSet
Layer: 3
SplineSet
6 40 m 2
 127 800 l 2
 130 822 151 840 173 840 c 2
 773 840 l 2
 793 840 807 825 807 806 c 0
 807 804 807 802 807 800 c 2
 786 670 l 2
 783 648 762 630 740 630 c 2
 380 630 l 1
 361 510 l 1
 681 510 l 2
 701 510 714 495 714 476 c 0
 714 474 714 472 714 470 c 2
 695 350 l 2
 692 328 671 310 649 310 c 2
 329 310 l 1
 313 210 l 1
 683 210 l 2
 703 210 717 195 717 176 c 0
 717 174 717 172 717 170 c 2
 696 40 l 2
 693 18 672 0 650 0 c 2
 40 0 l 2
 20 0 6 15 6 34 c 0
 6 36 6 38 6 40 c 2
EndSplineSet
Colour: ffff00
EndChar

StartChar: F
Encoding: 70 70 150
Width: 740
VWidth: 0
Flags: HMW
LayerCount: 4
Layer: 2
SplineSet
0 0 m 1
 133 840 l 1
 793 840 l 1
 760 630 l 1
 390 630 l 1
 364 470 l 1
 694 470 l 1
 663 270 l 1
 333 270 l 1
 290 0 l 1
 0 0 l 1
EndSplineSet
Layer: 3
SplineSet
6 40 m 2
 127 800 l 2
 130 822 151 840 173 840 c 2
 753 840 l 2
 773 840 787 825 787 806 c 0
 787 804 787 802 787 800 c 2
 766 670 l 2
 763 648 742 630 720 630 c 2
 390 630 l 1
 364 470 l 1
 654 470 l 2
 674 470 688 455 688 436 c 0
 688 434 688 432 688 430 c 2
 669 310 l 2
 666 288 645 270 623 270 c 2
 333 270 l 1
 296 40 l 2
 293 18 272 0 250 0 c 2
 40 0 l 2
 20 0 6 15 6 34 c 0
 6 36 6 38 6 40 c 2
EndSplineSet
Colour: ffff00
EndChar

StartChar: G
Encoding: 71 71 151
Width: 920
VWidth: 0
Flags: HMW
LayerCount: 4
Layer: 2
SplineSet
37 420 m 0
 75 658 278 860 576 860 c 0
 796 860 900 760 900 760 c 1
 759 560 l 1
 759 560 699 620 578 620 c 0
 451 620 356 542 337 420 c 0
 334 401 333 384 333 367 c 0
 333 253 399 190 510 190 c 0
 540 190 568 195 592 202 c 1
 606 290 l 1
 466 290 l 1
 494 470 l 1
 834 470 l 2
 872 470 887 461 887 431 c 0
 887 425 886 418 885 410 c 2
 841 130 l 1
 800 73 648 -20 437 -20 c 0
 171 -20 31 141 31 345 c 0
 31 370 33 394 37 420 c 0
EndSplineSet
Layer: 3
SplineSet
37 420 m 0
 75 658 278 860 576 860 c 0
 761 860 859 792 869 785 c 0
 882 777 890 768 890 758 c 0
 890 746 884 739 878 730 c 2
 785 600 l 2
 776 587 763 580 752 580 c 0
 745 580 734 582 728 585 c 0
 721 589 670 620 578 620 c 0
 451 620 356 542 337 420 c 0
 334 401 333 384 333 367 c 0
 333 253 399 190 510 190 c 0
 540 190 568 195 592 202 c 1
 606 290 l 1
 506 290 l 2
 486 290 472 305 472 324 c 0
 472 326 472 328 472 330 c 2
 488 430 l 2
 491 452 512 470 534 470 c 2
 834 470 l 2
 872 470 887 461 887 431 c 0
 887 425 886 418 885 410 c 2
 844 150 l 2
 833 82 648 -20 437 -20 c 0
 171 -20 31 141 31 345 c 0
 31 370 33 394 37 420 c 0
EndSplineSet
Colour: ffff00
EndChar

StartChar: H
Encoding: 72 72 152
Width: 920
VWidth: 0
Flags: HMW
LayerCount: 4
Layer: 2
SplineSet
0 0 m 1
 133 840 l 1
 413 840 l 1
 361 510 l 1
 601 510 l 1
 653 840 l 1
 933 840 l 1
 800 0 l 1
 520 0 l 1
 566 290 l 1
 326 290 l 1
 280 0 l 1
 0 0 l 1
EndSplineSet
Layer: 3
SplineSet
6 40 m 2
 127 800 l 2
 130 822 151 840 173 840 c 2
 373 840 l 2
 393 840 407 825 407 806 c 0
 407 804 407 802 407 800 c 2
 361 510 l 1
 601 510 l 1
 647 800 l 2
 650 822 671 840 693 840 c 2
 893 840 l 2
 913 840 927 825 927 806 c 0
 927 804 927 802 927 800 c 2
 806 40 l 2
 803 18 782 0 760 0 c 2
 560 0 l 2
 540 0 526 15 526 34 c 0
 526 36 526 38 526 40 c 2
 566 290 l 1
 326 290 l 1
 286 40 l 2
 283 18 262 0 240 0 c 2
 40 0 l 2
 20 0 6 15 6 34 c 0
 6 36 6 38 6 40 c 2
EndSplineSet
Colour: ffff00
EndChar

StartChar: I
Encoding: 73 73 153
Width: 400
VWidth: 0
Flags: HMW
LayerCount: 4
Layer: 2
SplineSet
0 0 m 1
 133 840 l 1
 413 840 l 1
 280 0 l 1
 0 0 l 1
EndSplineSet
Layer: 3
SplineSet
6 40 m 2
 127 800 l 2
 130 822 151 840 173 840 c 2
 373 840 l 2
 393 840 407 825 407 806 c 0
 407 804 407 802 407 800 c 2
 286 40 l 2
 283 18 262 0 240 0 c 2
 40 0 l 2
 20 0 6 15 6 34 c 0
 6 36 6 38 6 40 c 2
EndSplineSet
Colour: ffff00
EndChar

StartChar: J
Encoding: 74 74 154
Width: 580
VWidth: 0
Flags: HMW
LayerCount: 4
Layer: 2
SplineSet
-57 80 m 1
 78 240 l 1
 95 222 128 200 162 200 c 0
 187 200 214 213 221 260 c 2
 313 840 l 1
 593 840 l 1
 498 240 l 2
 471 67 327 -10 188 -10 c 0
 49 -10 -38 53 -57 80 c 1
EndSplineSet
Layer: 3
SplineSet
-47 85 m 0
 -46 91 -43 97 -39 102 c 2
 56 214 l 2
 62 222 73 226 82 226 c 0
 89 226 95 225 100 221 c 0
 117 210 140 200 162 200 c 0
 187 200 214 213 221 260 c 2
 307 800 l 2
 310 822 331 840 353 840 c 2
 553 840 l 2
 573 840 587 825 587 806 c 0
 587 804 587 802 587 800 c 2
 498 240 l 2
 471 67 327 -10 188 -10 c 0
 78 -10 0 30 -37 60 c 0
 -45 66 -49 75 -47 85 c 0
EndSplineSet
Colour: ffff00
EndChar

StartChar: K
Encoding: 75 75 155
Width: 890
VWidth: 0
Flags: HMW
LayerCount: 4
Layer: 2
SplineSet
0 0 m 1
 133 840 l 1
 413 840 l 1
 364 530 l 1
 404 530 l 1
 623 840 l 1
 933 840 l 1
 620 440 l 1
 830 0 l 1
 510 0 l 1
 371 320 l 1
 331 320 l 1
 280 0 l 1
 0 0 l 1
EndSplineSet
Layer: 3
SplineSet
6 40 m 2
 127 800 l 2
 130 822 151 840 173 840 c 2
 373 840 l 2
 393 840 407 825 407 806 c 0
 407 804 407 802 407 800 c 2
 364 530 l 1
 404 530 l 1
 597 800 l 2
 617 827 629 840 658 840 c 2
 873 840 l 2
 896 840 909 831 909 818 c 0
 909 812 907 806 902 800 c 2
 620 440 l 1
 811 40 l 2
 813 35 815 29 814 25 c 0
 812 10 795 0 770 0 c 2
 540 0 l 2
 511 0 503 13 491 40 c 2
 371 320 l 1
 331 320 l 1
 286 40 l 2
 283 18 262 0 240 0 c 2
 40 0 l 2
 20 0 6 15 6 34 c 0
 6 36 6 38 6 40 c 2
EndSplineSet
Colour: ffff00
EndChar

StartChar: L
Encoding: 76 76 156
Width: 660
VWidth: 0
Flags: HMW
LayerCount: 4
Layer: 2
SplineSet
0 0 m 1
 133 840 l 1
 413 840 l 1
 313 210 l 1
 613 210 l 1
 580 0 l 1
 0 0 l 1
EndSplineSet
Layer: 3
SplineSet
6 40 m 2
 127 800 l 2
 130 822 151 840 173 840 c 2
 373 840 l 2
 393 840 407 825 407 806 c 0
 407 804 407 802 407 800 c 2
 313 210 l 1
 573 210 l 2
 593 210 607 195 607 176 c 0
 607 174 607 172 607 170 c 2
 586 40 l 2
 583 18 562 0 540 0 c 2
 40 0 l 2
 20 0 6 15 6 34 c 0
 6 36 6 38 6 40 c 2
EndSplineSet
Colour: ffff00
EndChar

StartChar: M
Encoding: 77 77 157
Width: 1080
VWidth: 0
Flags: HMW
LayerCount: 4
Layer: 2
SplineSet
0 0 m 1
 133 840 l 1
 443 840 l 1
 561 510 l 1
 783 840 l 1
 1093 840 l 1
 960 0 l 1
 680 0 l 1
 753 460 l 1
 559 180 l 1
 459 180 l 1
 353 460 l 1
 280 0 l 1
 0 0 l 1
EndSplineSet
Layer: 3
SplineSet
6 40 m 2
 127 800 l 2
 130 822 151 840 173 840 c 2
 408 840 l 2
 434 840 446 824 457 800 c 1
 561 510 l 1
 757 800 l 1
 776 824 792 840 818 840 c 2
 1053 840 l 2
 1073 840 1087 825 1087 806 c 0
 1087 804 1087 802 1087 800 c 2
 966 40 l 2
 963 18 942 0 920 0 c 2
 720 0 l 2
 700 0 686 15 686 34 c 0
 686 36 686 38 686 40 c 2
 753 460 l 1
 585 220 l 1
 570 197 556 180 539 180 c 2
 509 180 l 1
 479 180 l 2
 462 180 452 197 445 220 c 1
 353 460 l 1
 286 40 l 2
 283 18 262 0 240 0 c 2
 40 0 l 2
 20 0 6 15 6 34 c 0
 6 36 6 38 6 40 c 2
EndSplineSet
Colour: ffff00
EndChar

StartChar: N
Encoding: 78 78 158
Width: 920
VWidth: 0
Flags: HMW
LayerCount: 4
Layer: 2
SplineSet
0 0 m 1
 133 840 l 1
 413 840 l 1
 587 420 l 1
 653 840 l 1
 933 840 l 1
 800 0 l 1
 520 0 l 1
 342 390 l 1
 280 0 l 1
 0 0 l 1
EndSplineSet
Layer: 3
SplineSet
6 40 m 2
 127 800 l 2
 130 822 151 840 173 840 c 2
 383 840 l 2
 409 840 421 824 432 800 c 1
 587 420 l 1
 647 800 l 2
 650 822 671 840 693 840 c 2
 893 840 l 2
 913 840 927 825 927 806 c 0
 927 804 927 802 927 800 c 2
 806 40 l 2
 803 18 782 0 760 0 c 2
 550 0 l 2
 524 0 512 16 501 40 c 2
 342 390 l 1
 286 40 l 2
 283 18 262 0 240 0 c 2
 40 0 l 2
 20 0 6 15 6 34 c 0
 6 36 6 38 6 40 c 2
EndSplineSet
Colour: ffff00
EndChar

StartChar: O
Encoding: 79 79 159
Width: 1000
VWidth: 0
Flags: HMW
LayerCount: 4
Layer: 2
SplineSet
37 420 m 0
 75 658 278 860 576 860 c 0
 842 860 983 699 983 495 c 0
 983 471 981 445 977 420 c 0
 939 182 735 -20 437 -20 c 0
 171 -20 31 141 31 345 c 0
 31 370 33 394 37 420 c 0
332 420 m 0
 330 405 329 391 329 378 c 0
 329 281 387 220 475 220 c 0
 575 220 663 298 682 420 c 0
 684 435 685 449 685 462 c 0
 685 560 626 620 538 620 c 0
 438 620 351 542 332 420 c 0
EndSplineSet
Layer: 3
SplineSet
37 420 m 0
 75 658 278 860 576 860 c 0
 842 860 983 699 983 495 c 0
 983 471 981 445 977 420 c 0
 939 182 735 -20 437 -20 c 0
 171 -20 31 141 31 345 c 0
 31 370 33 394 37 420 c 0
332 420 m 0
 330 405 329 391 329 378 c 0
 329 281 387 220 475 220 c 0
 575 220 663 298 682 420 c 0
 684 435 685 449 685 462 c 0
 685 560 626 620 538 620 c 0
 438 620 351 542 332 420 c 0
EndSplineSet
Colour: ffff00
EndChar

StartChar: P
Encoding: 80 80 160
Width: 870
VWidth: 0
Flags: HMW
LayerCount: 4
Layer: 2
SplineSet
0 0 m 1
 133 840 l 1
 573 840 l 2
 774 840 880 730 880 588 c 0
 880 572 879 556 876 540 c 0
 850 376 709 240 478 240 c 2
 318 240 l 1
 280 0 l 1
 0 0 l 1
350 440 m 1
 460 440 l 2
 541 440 587 483 596 540 c 0
 597 546 597 551 597 556 c 0
 597 605 560 640 491 640 c 2
 381 640 l 1
 350 440 l 1
EndSplineSet
Layer: 3
SplineSet
6 40 m 2
 127 800 l 2
 130 822 151 840 173 840 c 2
 573 840 l 2
 774 840 880 730 880 588 c 0
 880 572 879 556 876 540 c 0
 850 376 709 240 478 240 c 2
 318 240 l 1
 286 40 l 2
 283 18 262 0 240 0 c 2
 40 0 l 2
 20 0 6 15 6 34 c 0
 6 36 6 38 6 40 c 2
350 440 m 1
 460 440 l 2
 541 440 587 483 596 540 c 0
 597 546 597 551 597 556 c 0
 597 605 560 640 491 640 c 2
 381 640 l 1
 350 440 l 1
EndSplineSet
Colour: ffff00
EndChar

StartChar: Q
Encoding: 81 81 161
Width: 1010
VWidth: 0
Flags: HMW
LayerCount: 4
Layer: 2
SplineSet
37 420 m 0
 75 658 278 860 576 860 c 0
 842 860 983 699 983 495 c 0
 983 471 981 445 977 420 c 0
 961 316 912 219 838 143 c 1
 901 70 l 1
 750 -60 l 1
 678 30 l 1
 607 -2 526 -20 437 -20 c 0
 171 -20 31 141 31 345 c 0
 31 370 33 394 37 420 c 0
332 420 m 0
 330 405 329 391 329 378 c 0
 329 281 387 220 475 220 c 0
 490 220 505 222 519 225 c 1
 445 315 l 1
 584 435 l 1
 660 347 l 1
 669 369 678 394 682 420 c 0
 684 435 685 449 685 462 c 0
 685 560 626 620 538 620 c 0
 438 620 351 542 332 420 c 0
EndSplineSet
Layer: 3
SplineSet
37 420 m 0
 75 658 278 860 576 860 c 0
 842 860 983 699 983 495 c 0
 983 471 981 445 977 420 c 0
 961 316 911 219 837 142 c 1
 883 90 l 2
 888 85 890 77 889 69 c 0
 888 61 884 53 877 48 c 2
 776 -38 l 2
 769 -44 762 -47 754 -47 c 0
 747 -47 739 -44 734 -38 c 2
 678 30 l 1
 608 -2 527 -20 437 -20 c 0
 171 -20 31 141 31 345 c 0
 31 370 33 394 37 420 c 0
332 420 m 0
 330 405 329 391 329 378 c 0
 329 281 387 220 475 220 c 0
 490 220 505 222 519 225 c 1
 463 294 l 2
 458 300 456 308 457 315 c 0
 458 323 462 331 469 337 c 2
 559 415 l 2
 565 420 572 423 580 423 c 0
 587 423 595 420 601 414 c 2
 660 346 l 1
 670 369 678 393 682 420 c 0
 684 435 685 449 685 462 c 0
 685 560 626 620 538 620 c 0
 438 620 351 542 332 420 c 0
EndSplineSet
Colour: ffff00
EndChar

StartChar: R
Encoding: 82 82 162
Width: 900
VWidth: 0
Flags: HMW
LayerCount: 4
Layer: 2
SplineSet
0 0 m 1
 133 840 l 1
 573 840 l 2
 774 840 880 730 880 588 c 0
 880 572 879 556 876 540 c 0
 859 433 792 338 685 285 c 1
 840 0 l 1
 520 0 l 1
 408 240 l 1
 318 240 l 1
 280 0 l 1
 0 0 l 1
350 440 m 1
 460 440 l 2
 541 440 587 483 596 540 c 0
 597 546 597 551 597 556 c 0
 597 605 560 640 491 640 c 2
 381 640 l 1
 350 440 l 1
EndSplineSet
Layer: 3
SplineSet
6 40 m 2
 127 800 l 2
 130 822 151 840 173 840 c 2
 573 840 l 2
 774 840 880 730 880 588 c 0
 880 572 879 556 876 540 c 0
 859 433 793 338 685 285 c 1
 821 40 l 2
 823 35 825 29 824 25 c 0
 822 10 805 0 780 0 c 2
 550 0 l 2
 521 0 513 13 501 40 c 2
 408 240 l 1
 318 240 l 1
 286 40 l 2
 283 18 262 0 240 0 c 2
 40 0 l 2
 20 0 6 15 6 34 c 0
 6 36 6 38 6 40 c 2
350 440 m 1
 460 440 l 2
 541 440 587 483 596 540 c 0
 597 546 597 551 597 556 c 0
 597 605 560 640 491 640 c 2
 381 640 l 1
 350 440 l 1
EndSplineSet
Colour: ffff00
EndChar

StartChar: S
Encoding: 83 83 163
Width: 820
VWidth: 0
Flags: HMW
LayerCount: 4
Layer: 2
SplineSet
-17 80 m 1
 124 275 l 1
 188 227 290 190 370 190 c 0
 414 190 451 197 456 230 c 0
 456 232 457 235 457 237 c 0
 457 261 433 275 414 280 c 0
 359 297 268 328 216 355 c 0
 154 387 80 442 80 546 c 0
 80 558 81 571 83 585 c 0
 114 778 300 860 496 860 c 0
 675 860 803 780 830 760 c 1
 702 580 l 1
 639 630 541 650 473 650 c 0
 435 650 402 644 397 610 c 0
 397 608 397 606 397 604 c 0
 397 582 418 566 439 560 c 0
 514 536 555 523 609 500 c 0
 679 471 774 424 774 297 c 0
 774 282 773 267 770 250 c 0
 740 61 543 -20 347 -20 c 0
 150 -20 14 54 -17 80 c 1
EndSplineSet
Layer: 3
SplineSet
6 115 m 2
 98 240 l 2
 107 253 120 260 131 260 c 0
 138 260 149 258 155 255 c 0
 218 218 303 190 370 190 c 0
 414 190 451 197 456 230 c 0
 456 232 457 235 457 237 c 0
 457 261 433 275 414 280 c 0
 359 297 268 328 216 355 c 0
 154 387 80 442 80 546 c 0
 80 558 81 571 83 585 c 0
 114 778 300 860 496 860 c 0
 634 860 745 811 799 780 c 0
 811 774 819 764 819 753 c 0
 819 752 819 751 819 750 c 0
 817 740 813 734 807 725 c 2
 727 615 l 2
 718 602 705 595 694 595 c 0
 687 595 676 597 670 600 c 0
 609 634 530 650 473 650 c 0
 435 650 402 644 397 610 c 0
 397 608 397 606 397 604 c 0
 397 582 418 566 439 560 c 0
 514 536 555 523 609 500 c 0
 679 471 774 424 774 297 c 0
 774 282 773 267 770 250 c 0
 740 61 543 -20 347 -20 c 0
 193 -20 73 28 15 60 c 0
 3 66 -6 76 -6 87 c 0
 -6 99 0 106 6 115 c 2
EndSplineSet
Colour: ffff00
EndChar

StartChar: T
Encoding: 84 84 164
Width: 740
VWidth: 0
Flags: HMW
LayerCount: 4
Layer: 2
SplineSet
60 630 m 1
 93 840 l 1
 793 840 l 1
 760 630 l 1
 550 630 l 1
 450 0 l 1
 170 0 l 1
 270 630 l 1
 60 630 l 1
EndSplineSet
Layer: 3
SplineSet
66 670 m 2
 87 800 l 2
 90 822 111 840 133 840 c 2
 753 840 l 2
 773 840 787 825 787 806 c 0
 787 804 787 802 787 800 c 2
 766 670 l 2
 763 648 742 630 720 630 c 2
 550 630 l 1
 456 40 l 2
 453 18 432 0 410 0 c 2
 210 0 l 2
 190 0 176 15 176 34 c 0
 176 36 176 38 176 40 c 2
 270 630 l 1
 100 630 l 2
 80 630 66 645 66 664 c 0
 66 666 66 668 66 670 c 2
EndSplineSet
Colour: ffff00
EndChar

StartChar: U
Encoding: 85 85 165
Width: 920
VWidth: 0
Flags: HMW
LayerCount: 4
Layer: 2
SplineSet
44 280 m 2
 133 840 l 1
 413 840 l 1
 329 310 l 2
 328 301 327 293 327 285 c 0
 327 223 369 190 430 190 c 0
 499 190 557 232 569 310 c 2
 653 840 l 1
 933 840 l 1
 844 280 l 2
 814 92 637 -20 397 -20 c 0
 178 -20 40 73 40 232 c 0
 40 247 41 263 44 280 c 2
EndSplineSet
Layer: 3
SplineSet
44 280 m 2
 127 800 l 2
 130 822 151 840 173 840 c 2
 373 840 l 2
 393 840 407 825 407 806 c 0
 407 804 407 802 407 800 c 2
 329 310 l 2
 328 301 327 293 327 285 c 0
 327 223 369 190 430 190 c 0
 499 190 557 232 569 310 c 2
 647 800 l 2
 650 822 671 840 693 840 c 2
 893 840 l 2
 913 840 927 825 927 806 c 0
 927 804 927 802 927 800 c 2
 844 280 l 2
 814 92 637 -20 397 -20 c 0
 178 -20 40 73 40 232 c 0
 40 247 41 263 44 280 c 2
EndSplineSet
Colour: ffff00
EndChar

StartChar: V
Encoding: 86 86 166
Width: 980
VWidth: 0
Flags: HMW
LayerCount: 4
Layer: 2
SplineSet
83 840 m 1
 383 840 l 1
 468 300 l 1
 468 270 l 1
 478 270 l 1
 488 300 l 1
 743 840 l 1
 1043 840 l 1
 590 0 l 1
 270 0 l 1
 83 840 l 1
EndSplineSet
Layer: 3
SplineSet
89 815 m 0
 91 830 108 840 133 840 c 2
 348 840 l 2
 377 840 388 826 392 800 c 2
 468 300 l 1
 468 270 l 1
 473 270 l 1
 478 270 l 1
 488 300 l 1
 722 800 l 2
 734 826 749 840 778 840 c 2
 993 840 l 2
 1016 840 1029 831 1029 818 c 0
 1029 812 1027 806 1022 800 c 1
 611 40 l 1
 606 27 585 0 560 0 c 2
 430 0 l 1
 300 0 l 2
 275 0 262 27 261 40 c 1
 92 800 l 1
 90 805 88 811 89 815 c 0
EndSplineSet
Colour: ffff00
EndChar

StartChar: W
Encoding: 87 87 167
Width: 1370
VWidth: 0
Flags: HMW
LayerCount: 4
Layer: 2
SplineSet
83 840 m 1
 403 840 l 1
 434 340 l 1
 434 310 l 1
 444 310 l 1
 454 340 l 1
 663 840 l 1
 853 840 l 1
 904 340 l 1
 904 310 l 1
 914 310 l 1
 924 340 l 1
 1113 840 l 1
 1433 840 l 1
 1030 0 l 1
 720 0 l 1
 692 420 l 1
 530 0 l 1
 220 0 l 1
 83 840 l 1
EndSplineSet
Layer: 3
SplineSet
89 815 m 0
 91 830 108 840 133 840 c 2
 363 840 l 2
 392 840 406 824 407 800 c 2
 434 340 l 1
 434 310 l 1
 444 310 l 1
 454 340 l 1
 647 800 l 2
 656 824 664 840 693 840 c 2
 758 840 l 1
 823 840 l 2
 852 840 856 824 857 800 c 2
 904 340 l 1
 904 310 l 1
 914 310 l 1
 924 340 l 1
 1097 800 l 2
 1106 824 1124 840 1153 840 c 2
 1383 840 l 2
 1406 840 1419 831 1419 818 c 0
 1419 812 1416 805 1414 800 c 2
 1051 40 l 2
 1046 27 1025 0 1000 0 c 2
 760 0 l 2
 731 0 718 13 716 40 c 2
 692 420 l 1
 546 40 l 2
 536 13 519 0 490 0 c 2
 250 0 l 2
 225 0 212 27 211 40 c 2
 90 800 l 2
 90 804 88 811 89 815 c 0
EndSplineSet
Colour: ffff00
EndChar

StartChar: X
Encoding: 88 88 168
Width: 940
VWidth: 0
Flags: HMW
LayerCount: 4
Layer: 2
SplineSet
-60 0 m 1
 278 430 l 1
 103 840 l 1
 423 840 l 1
 502 580 l 1
 663 840 l 1
 983 840 l 1
 678 430 l 1
 880 0 l 1
 540 0 l 1
 450 250 l 1
 280 0 l 1
 -60 0 l 1
EndSplineSet
Layer: 3
SplineSet
-29 40 m 2
 278 430 l 1
 122 800 l 2
 120 805 118 811 119 815 c 0
 121 830 138 840 163 840 c 2
 388 840 l 2
 417 840 425 827 437 800 c 1
 502 580 l 1
 637 800 l 1
 657 827 669 840 698 840 c 2
 923 840 l 2
 946 840 959 831 959 818 c 0
 959 817 959 816 959 815 c 0
 958 811 956 805 952 800 c 2
 678 430 l 1
 861 40 l 2
 863 35 865 29 864 25 c 0
 862 10 845 0 820 0 c 2
 575 0 l 2
 546 0 538 13 526 40 c 1
 450 250 l 1
 306 40 l 1
 286 13 274 0 245 0 c 2
 0 0 l 2
 -23 0 -36 9 -36 22 c 0
 -36 28 -34 34 -29 40 c 2
EndSplineSet
Colour: ffff00
EndChar

StartChar: Y
Encoding: 89 89 169
Width: 940
VWidth: 0
Flags: HMW
LayerCount: 4
Layer: 2
SplineSet
83 840 m 1
 403 840 l 1
 496 540 l 1
 683 840 l 1
 1003 840 l 1
 594 280 l 1
 550 0 l 1
 270 0 l 1
 314 280 l 1
 83 840 l 1
EndSplineSet
Layer: 3
SplineSet
99 815 m 0
 101 830 118 840 143 840 c 2
 368 840 l 2
 397 840 405 827 417 800 c 1
 496 540 l 1
 657 800 l 1
 677 827 689 840 718 840 c 2
 943 840 l 2
 966 840 979 831 979 818 c 0
 979 812 977 806 972 800 c 2
 594 280 l 1
 556 40 l 2
 553 18 532 0 510 0 c 2
 310 0 l 2
 290 0 276 15 276 34 c 0
 276 36 276 38 276 40 c 2
 314 280 l 1
 102 800 l 2
 100 805 98 811 99 815 c 0
EndSplineSet
Colour: ffff00
EndChar

StartChar: Z
Encoding: 90 90 170
Width: 830
VWidth: 0
Flags: HMW
LayerCount: 4
Layer: 2
SplineSet
-30 0 m 1
 -1 180 l 1
 460 630 l 1
 100 630 l 1
 133 840 l 1
 843 840 l 1
 813 650 l 1
 383 210 l 1
 773 210 l 1
 740 0 l 1
 -30 0 l 1
EndSplineSet
Layer: 3
SplineSet
-24 40 m 2
 -5 155 l 2
 -1 183 23 202 46 225 c 2
 460 630 l 1
 140 630 l 2
 120 630 106 645 106 664 c 0
 106 666 106 668 106 670 c 2
 127 800 l 2
 130 822 151 840 173 840 c 2
 803 840 l 2
 823 840 837 825 837 806 c 0
 837 804 837 802 837 800 c 2
 816 670 l 2
 812 642 788 623 765 600 c 2
 383 210 l 1
 733 210 l 2
 753 210 767 195 767 176 c 0
 767 174 767 172 767 170 c 2
 746 40 l 2
 743 18 722 0 700 0 c 2
 10 0 l 2
 -10 0 -24 15 -24 34 c 0
 -24 36 -24 38 -24 40 c 2
EndSplineSet
Colour: ffff00
EndChar

StartChar: bracketleft
Encoding: 91 91 171
Width: 480
VWidth: 0
Flags: HMW
LayerCount: 4
Layer: 2
SplineSet
-34 -150 m 1
 128 870 l 1
 518 870 l 1
 491 700 l 1
 341 700 l 1
 233 20 l 1
 383 20 l 1
 356 -150 l 1
 -34 -150 l 1
EndSplineSet
Layer: 3
SplineSet
-27 -110 m 2
 121 830 l 2
 124 852 146 870 168 870 c 2
 488 870 l 2
 504 870 516 856 513 840 c 2
 496 730 l 2
 493 714 477 700 461 700 c 2
 341 700 l 1
 233 20 l 1
 353 20 l 2
 369 20 381 6 378 -10 c 2
 361 -120 l 2
 358 -136 342 -150 326 -150 c 2
 6 -150 l 2
 -14 -150 -27 -135 -27 -116 c 0
 -27 -114 -27 -112 -27 -110 c 2
EndSplineSet
Colour: ffff00
EndChar

StartChar: backslash
Encoding: 92 92 172
Width: 600
VWidth: 0
Flags: HMW
LayerCount: 4
Layer: 2
SplineSet
103 840 m 1
 313 840 l 1
 510 0 l 1
 300 0 l 1
 103 840 l 1
EndSplineSet
Layer: 3
SplineSet
108 828 m 0
 109 836 118 840 132 840 c 2
 281 840 l 2
 304 840 317 826 320 810 c 2
 503 30 l 1
 503 30 506 20 505 12 c 0
 504 4 495 0 481 0 c 2
 332 0 l 2
 309 0 296 14 293 30 c 2
 110 810 l 1
 110 810 107 820 108 828 c 0
EndSplineSet
Colour: ffff00
EndChar

StartChar: bracketright
Encoding: 93 93 173
Width: 480
VWidth: 0
Flags: HMW
LayerCount: 4
Layer: 2
SplineSet
508 870 m 1
 346 -150 l 1
 -44 -150 l 1
 -17 20 l 1
 133 20 l 1
 241 700 l 1
 91 700 l 1
 118 870 l 1
 508 870 l 1
EndSplineSet
Layer: 3
SplineSet
501 830 m 2
 353 -110 l 2
 350 -132 328 -150 306 -150 c 2
 -14 -150 l 2
 -30 -150 -42 -136 -39 -120 c 2
 -22 -10 l 2
 -19 6 -3 20 13 20 c 2
 133 20 l 1
 241 700 l 1
 121 700 l 2
 105 700 93 714 96 730 c 2
 113 840 l 2
 116 856 132 870 148 870 c 2
 468 870 l 2
 488 870 501 855 501 836 c 0
 501 834 501 832 501 830 c 2
EndSplineSet
Colour: ffff00
EndChar

StartChar: asciicircum
Encoding: 94 94 174
Width: 600
VWidth: 0
Flags: HMW
LayerCount: 4
Layer: 2
SplineSet
35 600 m 1
 37 610 l 1
 288 840 l 1
 373 840 l 1
 458 840 l 1
 637 610 l 1
 635 600 l 1
 460 600 l 1
 349 690 l 1
 210 600 l 1
 35 600 l 1
EndSplineSet
Layer: 3
SplineSet
58 620 m 0
 60 633 66 638 72 645 c 1
 253 810 l 2
 273 828 288 840 313 840 c 2
 373 840 l 1
 433 840 l 2
 458 840 469 828 483 810 c 2
 612 645 l 1
 616 638 620 633 618 620 c 0
 617 612 609 600 595 600 c 2
 477 600 l 2
 457 600 444 612 425 628 c 2
 349 690 l 1
 253 628 l 2
 228 612 213 600 193 600 c 2
 75 600 l 2
 61 600 57 612 58 620 c 0
EndSplineSet
Colour: ffff00
EndChar

StartChar: underscore
Encoding: 95 95 175
Width: 700
VWidth: 0
Flags: HMW
LayerCount: 4
Layer: 2
SplineSet
-10 0 m 1
 590 0 l 1
 561 -180 l 1
 -39 -180 l 1
 -10 0 l 1
EndSplineSet
Layer: 3
SplineSet
-15 -30 m 2
 -12 -14 4 0 20 0 c 2
 560 0 l 2
 576 0 588 -14 585 -30 c 2
 566 -150 l 2
 563 -166 547 -180 531 -180 c 2
 -9 -180 l 2
 -25 -180 -37 -166 -34 -150 c 2
 -15 -30 l 2
EndSplineSet
Colour: ffff00
EndChar

StartChar: grave
Encoding: 96 96 176
Width: 450
VWidth: 0
Flags: HMW
LayerCount: 4
Layer: 2
SplineSet
51 830 m 1
 53 840 l 1
 303 840 l 1
 467 610 l 1
 465 600 l 1
 295 600 l 1
 51 830 l 1
EndSplineSet
Layer: 3
SplineSet
93 840 m 2
 278 840 l 2
 301 840 314 826 324 810 c 2
 442 645 l 2
 446 638 450 633 448 620 c 0
 447 612 439 600 425 600 c 2
 315 600 l 2
 295 600 283 612 264 630 c 2
 89 785 l 1
 89 785 70 799 70 816 c 0
 70 828 78 840 93 840 c 2
EndSplineSet
Colour: ffff00
EndChar

StartChar: v
Encoding: 118 118 177
Width: 780
VWidth: 0
Flags: HMW
LayerCount: 4
Layer: 2
SplineSet
45 600 m 1
 335 600 l 1
 360 250 l 1
 360 220 l 1
 370 220 l 1
 380 250 l 1
 515 600 l 1
 805 600 l 1
 490 0 l 1
 170 0 l 1
 45 600 l 1
EndSplineSet
Layer: 3
SplineSet
51 575 m 0
 53 590 70 600 95 600 c 2
 295 600 l 2
 324 600 336 587 339 560 c 1
 360 250 l 1
 360 220 l 1
 365 220 l 1
 370 220 l 1
 380 250 l 1
 499 560 l 1
 510 587 526 600 555 600 c 2
 755 600 l 2
 778 600 791 591 791 578 c 0
 791 572 789 566 784 560 c 1
 511 40 l 1
 506 27 485 0 460 0 c 2
 330 0 l 1
 200 0 l 2
 175 0 162 27 161 40 c 1
 54 560 l 1
 52 565 50 571 51 575 c 0
EndSplineSet
Colour: ffff00
EndChar

StartChar: w
Encoding: 119 119 178
Width: 1050
VWidth: 0
Flags: HMW
LayerCount: 4
Layer: 2
SplineSet
45 600 m 1
 330 600 l 1
 333 270 l 1
 331 230 l 1
 341 230 l 1
 353 270 l 1
 485 600 l 1
 560 600 l 1
 635 600 l 1
 663 270 l 1
 661 230 l 1
 671 230 l 1
 683 270 l 1
 790 600 l 1
 1075 600 l 1
 810 0 l 1
 530 0 l 1
 505 250 l 1
 400 0 l 1
 120 0 l 1
 45 600 l 1
EndSplineSet
Layer: 3
SplineSet
47 580 m 0
 49 595 65 600 95 600 c 2
 295 600 l 2
 324 600 333 587 334 560 c 2
 333 270 l 1
 331 230 l 1
 341 230 l 1
 353 270 l 1
 469 560 l 2
 478 584 486 600 515 600 c 2
 560 600 l 1
 605 600 l 2
 634 600 638 584 639 560 c 2
 663 270 l 1
 661 230 l 1
 671 230 l 1
 683 270 l 1
 774 560 l 2
 783 587 796 600 825 600 c 2
 1025 600 l 2
 1053 600 1067 596 1067 583 c 0
 1067 576 1062 566 1059 560 c 2
 826 40 l 2
 817 19 805 0 775 0 c 2
 565 0 l 2
 538 0 530 16 526 40 c 1
 505 250 l 1
 416 40 l 1
 404 16 392 0 365 0 c 2
 155 0 l 2
 125 0 119 19 116 40 c 2
 49 560 l 2
 48 565 46 575 47 580 c 0
EndSplineSet
Colour: ffff00
EndChar

StartChar: x
Encoding: 120 120 179
Width: 760
VWidth: 0
Flags: HMW
LayerCount: 4
Layer: 2
SplineSet
-60 0 m 1
 189 310 l 1
 55 600 l 1
 345 600 l 1
 387 420 l 1
 485 600 l 1
 775 600 l 1
 549 310 l 1
 700 0 l 1
 400 0 l 1
 349 180 l 1
 240 0 l 1
 -60 0 l 1
EndSplineSet
Layer: 3
SplineSet
-29 40 m 2
 189 310 l 1
 74 560 l 2
 72 565 70 571 71 575 c 0
 73 590 90 600 115 600 c 2
 310 600 l 2
 339 600 347 587 354 560 c 2
 387 420 l 1
 464 560 l 2
 479 587 491 600 520 600 c 2
 715 600 l 2
 738 600 751 591 751 578 c 0
 751 577 751 576 751 575 c 0
 750 571 748 565 744 560 c 2
 549 310 l 1
 681 40 l 2
 683 35 685 29 684 25 c 0
 682 10 665 0 640 0 c 2
 430 0 l 2
 401 0 394 13 386 40 c 2
 349 180 l 1
 266 40 l 2
 250 13 239 0 210 0 c 2
 0 0 l 2
 -23 0 -36 9 -36 22 c 0
 -36 28 -34 34 -29 40 c 2
EndSplineSet
Colour: ffff00
EndChar

StartChar: y
Encoding: 121 121 180
Width: 780
VWidth: 0
Flags: HMW
LayerCount: 4
Layer: 2
SplineSet
45 600 m 1
 335 600 l 1
 360 250 l 1
 360 220 l 1
 365 220 l 1
 370 220 l 1
 380 250 l 1
 515 600 l 1
 805 600 l 1
 490 0 l 1
 399 -210 268 -260 149 -260 c 0
 64 -260 -4 -240 -45 -220 c 1
 40 -60 l 1
 40 -60 80 -90 136 -90 c 0
 201 -90 224 -54 249 -3 c 1
 198 9 161 41 144 120 c 2
 45 600 l 1
EndSplineSet
Layer: 3
SplineSet
51 575 m 0
 53 590 70 600 95 600 c 2
 295 600 l 2
 324 600 336 587 339 560 c 1
 360 250 l 1
 360 220 l 1
 365 220 l 1
 370 220 l 1
 380 250 l 1
 499 560 l 1
 510 587 526 600 555 600 c 2
 755 600 l 2
 778 600 791 591 791 578 c 0
 791 572 789 566 784 560 c 1
 490 0 l 1
 399 -210 268 -260 149 -260 c 0
 83 -260 33 -247 7 -240 c 0
 -11 -235 -37 -222 -37 -207 c 0
 -37 -194 -28 -184 -23 -175 c 2
 24 -90 l 2
 31 -78 39 -65 50 -65 c 0
 70 -65 89 -90 136 -90 c 0
 201 -90 224 -54 249 -3 c 1
 198 9 161 41 144 120 c 2
 54 560 l 1
 52 565 50 571 51 575 c 0
EndSplineSet
Colour: ffff00
EndChar

StartChar: braceleft
Encoding: 123 123 181
Width: 480
VWidth: 0
Flags: HMW
LayerCount: 4
Layer: 2
SplineSet
2 330 m 1
 7 360 l 1
 12 390 l 1
 12 390 127 420 146 540 c 2
 174 720 l 2
 189 816 264 870 358 870 c 2
 528 870 l 1
 501 700 l 1
 451 700 l 2
 415 700 408 685 401 640 c 2
 381 510 l 2
 363 395 277 360 277 360 c 1
 277 360 336 333 336 245 c 0
 336 234 335 222 333 210 c 2
 313 80 l 2
 311 67 310 56 310 48 c 0
 310 28 318 20 343 20 c 2
 393 20 l 1
 366 -150 l 1
 196 -150 l 2
 112 -150 58 -107 58 -29 c 0
 58 -20 58 -10 60 0 c 2
 89 180 l 2
 91 190 91 199 91 208 c 0
 91 305 2 330 2 330 c 1
EndSplineSet
Layer: 3
SplineSet
5 345 m 2
 7 360 l 1
 9 375 l 2
 12 391 29 399 44 405 c 0
 58 410 131 445 146 540 c 2
 174 720 l 2
 189 816 264 870 358 870 c 2
 498 870 l 2
 514 870 526 856 523 840 c 2
 506 730 l 2
 503 714 487 700 471 700 c 2
 451 700 l 2
 415 700 408 685 401 640 c 2
 381 510 l 2
 363 395 277 360 277 360 c 1
 277 360 336 333 336 245 c 0
 336 234 335 222 333 210 c 2
 313 80 l 2
 311 67 310 56 310 48 c 0
 310 28 318 20 343 20 c 2
 363 20 l 2
 379 20 391 6 388 -10 c 2
 371 -120 l 2
 368 -136 352 -150 336 -150 c 2
 196 -150 l 2
 112 -150 58 -107 58 -29 c 0
 58 -20 58 -10 60 0 c 2
 89 180 l 2
 91 190 91 199 91 208 c 0
 91 282 41 311 30 315 c 0
 17 321 2 329 5 345 c 2
EndSplineSet
Colour: ffff00
EndChar

StartChar: bar
Encoding: 124 124 182
Width: 360
VWidth: 0
Flags: HMW
LayerCount: 4
Layer: 2
SplineSet
-9 -150 m 1
 153 870 l 1
 363 870 l 1
 201 -150 l 1
 -9 -150 l 1
EndSplineSet
Layer: 3
SplineSet
-4 -120 m 2
 148 840 l 2
 151 856 167 870 183 870 c 2
 333 870 l 2
 349 870 361 856 358 840 c 2
 206 -120 l 2
 203 -136 187 -150 171 -150 c 2
 21 -150 l 2
 5 -150 -7 -136 -4 -120 c 2
EndSplineSet
Colour: ffff00
EndChar

StartChar: braceright
Encoding: 125 125 183
Width: 480
VWidth: 0
Flags: HMW
LayerCount: 4
Layer: 2
SplineSet
472 390 m 1
 467 360 l 1
 462 330 l 1
 462 330 348 300 329 180 c 2
 300 0 l 2
 285 -96 210 -150 116 -150 c 2
 -54 -150 l 1
 -27 20 l 1
 23 20 l 2
 59 20 66 35 73 80 c 2
 93 210 l 2
 111 325 197 360 197 360 c 1
 197 360 138 387 138 475 c 0
 138 486 139 498 141 510 c 2
 161 640 l 2
 163 653 164 664 164 672 c 0
 164 692 156 700 131 700 c 2
 81 700 l 1
 108 870 l 1
 278 870 l 2
 362 870 416 827 416 749 c 0
 416 740 416 730 414 720 c 2
 386 540 l 2
 384 530 384 521 384 512 c 0
 384 415 472 390 472 390 c 1
EndSplineSet
Layer: 3
SplineSet
469 375 m 2
 467 360 l 1
 465 345 l 2
 462 329 445 321 430 315 c 0
 416 310 344 275 329 180 c 2
 300 0 l 2
 285 -96 210 -150 116 -150 c 2
 -24 -150 l 2
 -40 -150 -52 -136 -49 -120 c 2
 -32 -10 l 2
 -29 6 -13 20 3 20 c 2
 23 20 l 2
 59 20 66 35 73 80 c 2
 93 210 l 2
 111 325 197 360 197 360 c 1
 197 360 138 387 138 475 c 0
 138 486 139 498 141 510 c 2
 161 640 l 2
 163 653 164 664 164 672 c 0
 164 692 156 700 131 700 c 2
 111 700 l 2
 95 700 83 714 86 730 c 2
 103 840 l 2
 106 856 122 870 138 870 c 2
 278 870 l 2
 362 870 416 827 416 749 c 0
 416 740 416 730 414 720 c 2
 386 540 l 2
 384 530 384 520 384 511 c 0
 384 438 433 409 444 405 c 0
 457 399 472 391 469 375 c 2
EndSplineSet
Colour: ffff00
EndChar

StartChar: asciitilde
Encoding: 126 126 184
Width: 650
VWidth: 0
Flags: HMW
LayerCount: 4
Layer: 2
SplineSet
28 300 m 1
 74 437 156 480 236 480 c 0
 283 480 309 466 341 450 c 1
 379 433 404 420 437 420 c 0
 465 420 486 443 506 480 c 1
 617 420 l 1
 571 283 488 240 408 240 c 0
 361 240 335 254 303 270 c 1
 265 287 241 300 208 300 c 0
 180 300 158 277 138 240 c 1
 28 300 l 1
EndSplineSet
Layer: 3
SplineSet
35 316 m 0
 42 362 104 480 236 480 c 0
 283 480 308 465 341 450 c 0
 379 432 404 420 437 420 c 0
 465 420 482 443 495 460 c 0
 501 468 508 475 517 475 c 0
 528 475 534 470 534 470 c 1
 599 433 l 2
 611 426 611 414 609 404 c 0
 602 358 540 240 408 240 c 0
 361 240 336 255 303 270 c 0
 265 288 241 300 208 300 c 0
 180 300 162 277 149 260 c 0
 143 252 136 245 127 245 c 0
 116 245 110 250 110 250 c 1
 45 287 l 2
 33 294 33 306 35 316 c 0
EndSplineSet
Colour: ffff00
EndChar

StartChar: Euro
Encoding: 8364 8364 185
Width: 840
VWidth: 0
UnlinkRmOvrlpSave: 1
Flags: HMW
LayerCount: 4
Layer: 2
SplineSet
606 860 m 0
 805 860 880 760 880 760 c 1
 743 590 l 1
 743 590 706 650 613 650 c 0
 534 650 472 625 429 570 c 1
 620 570 l 1
 601 450 l 1
 377 450 l 1
 374 440 374 430 372 420 c 0
 370 410 369 400 368 390 c 1
 592 390 l 1
 573 270 l 1
 382 270 l 1
 407 215 461 190 540 190 c 0
 633 190 690 250 690 250 c 1
 773 80 l 1
 773 80 666 -20 467 -20 c 0
 235 -20 124 103 103 270 c 1
 23 270 l 1
 42 390 l 1
 103 390 l 1
 105 400 105 410 107 420 c 0
 109 430 110 440 112 450 c 1
 51 450 l 1
 70 570 l 1
 150 570 l 1
 223 737 374 860 606 860 c 0
EndSplineSet
Layer: 3
SplineSet
606 860 m 0
 735 860 817 816 855 787 c 0
 868 777 875 769 873 757 c 0
 871 747 867 741 861 732 c 2
 774 625 l 2
 765 612 752 605 741 605 c 0
 734 605 723 612 717 615 c 0
 710 619 669 650 613 650 c 0
 534 650 472 625 429 570 c 1
 590 570 l 2
 606 570 619 556 616 540 c 2
 606 480 l 2
 603 464 587 450 571 450 c 2
 377 450 l 1
 374 440 374 430 372 420 c 0
 370 410 369 400 368 390 c 1
 562 390 l 2
 578 390 590 376 587 360 c 2
 578 300 l 2
 575 284 559 270 543 270 c 2
 382 270 l 1
 407 215 461 190 540 190 c 0
 596 190 647 221 656 225 c 0
 662 228 675 235 682 235 c 0
 693 235 704 228 709 215 c 2
 762 108 l 2
 766 99 768 93 766 83 c 0
 764 71 755 63 738 53 c 0
 690 24 596 -20 467 -20 c 0
 235 -20 124 103 103 270 c 1
 53 270 l 2
 37 270 25 284 28 300 c 2
 37 360 l 2
 40 376 56 390 72 390 c 2
 103 390 l 1
 105 400 105 410 107 420 c 0
 109 430 110 440 112 450 c 1
 81 450 l 2
 65 450 53 464 56 480 c 2
 66 540 l 2
 69 556 84 570 100 570 c 2
 150 570 l 1
 223 737 374 860 606 860 c 0
EndSplineSet
Colour: ff0000
EndChar

StartChar: quoteleft
Encoding: 8216 8216 186
Width: 360
VWidth: 0
Flags: HMW
LayerCount: 4
Layer: 2
SplineSet
382 770 m 1
 335 770 276 746 255 660 c 1
 345 660 l 1
 313 460 l 1
 73 460 l 1
 100 630 l 2
 124 784 248 860 376 860 c 1
 382 770 l 1
EndSplineSet
Layer: 3
SplineSet
380 785 m 0
 378 774 369 770 361 768 c 0
 330 762 276 746 255 660 c 1
 315 660 l 2
 331 660 343 646 340 630 c 2
 318 490 l 2
 315 474 299 460 283 460 c 2
 103 460 l 2
 87 460 75 474 78 490 c 2
 100 630 l 2
 124 784 252 860 356 860 c 0
 367 860 377 854 378 840 c 2
 380 791 l 1
 380 791 380 788 380 785 c 0
EndSplineSet
Colour: ff00ff
EndChar

StartChar: quoteright
Encoding: 8217 8217 187
Width: 360
VWidth: 0
Flags: HMW
LayerCount: 4
Layer: 2
SplineSet
64 530 m 1
 111 530 170 554 191 640 c 1
 101 640 l 1
 133 840 l 1
 373 840 l 1
 346 670 l 2
 322 516 198 440 70 440 c 1
 64 530 l 1
EndSplineSet
Layer: 3
SplineSet
66 515 m 0
 68 526 77 530 85 532 c 0
 116 538 170 554 191 640 c 1
 131 640 l 2
 115 640 103 654 106 670 c 2
 128 810 l 2
 131 826 147 840 163 840 c 2
 343 840 l 2
 359 840 371 826 368 810 c 2
 346 670 l 2
 322 516 194 440 90 440 c 0
 79 440 69 446 68 460 c 2
 66 509 l 1
 66 509 66 512 66 515 c 0
EndSplineSet
Colour: ff00ff
EndChar

StartChar: quotedblleft
Encoding: 8220 8220 188
Width: 660
VWidth: 0
Flags: HMW
LayerCount: 4
Layer: 2
SplineSet
382 770 m 1
 335 770 276 746 255 660 c 1
 345 660 l 1
 313 460 l 1
 73 460 l 1
 100 630 l 2
 124 784 248 860 376 860 c 1
 382 770 l 1
682 770 m 1
 635 770 576 746 555 660 c 1
 645 660 l 1
 613 460 l 1
 373 460 l 1
 400 630 l 2
 424 784 548 860 676 860 c 1
 682 770 l 1
EndSplineSet
Layer: 3
SplineSet
380 785 m 0
 378 774 369 770 361 768 c 0
 330 762 276 746 255 660 c 1
 315 660 l 2
 331 660 343 646 340 630 c 2
 318 490 l 2
 315 474 299 460 283 460 c 2
 103 460 l 2
 87 460 75 474 78 490 c 2
 100 630 l 2
 124 784 252 860 356 860 c 0
 367 860 377 854 378 840 c 2
 380 791 l 1
 380 791 380 788 380 785 c 0
680 785 m 0
 678 774 669 770 661 768 c 0
 630 762 576 746 555 660 c 1
 615 660 l 2
 631 660 643 646 640 630 c 2
 618 490 l 2
 615 474 599 460 583 460 c 2
 403 460 l 2
 387 460 375 474 378 490 c 2
 400 630 l 2
 424 784 552 860 656 860 c 0
 667 860 677 854 678 840 c 2
 680 791 l 1
 680 791 680 788 680 785 c 0
EndSplineSet
Colour: ff00ff
EndChar

